<?xml version="1.0" encoding="UTF-8" standalone="no"?>
<!-- Created with Inkscape (http://www.inkscape.org/) -->

<svg
   width="33.951832mm"
   height="19.201401mm"
   viewBox="0 0 33.951832 19.201401"
   version="1.1"
   id="svg38064"
   inkscape:version="1.2 (dc2aedaf03, 2022-05-15)"
   sodipodi:docname="all.svg"
   xml:space="preserve"
   inkscape:export-filename="all.pdf"
   inkscape:export-xdpi="96"
   inkscape:export-ydpi="96"
   xmlns:inkscape="http://www.inkscape.org/namespaces/inkscape"
   xmlns:sodipodi="http://sodipodi.sourceforge.net/DTD/sodipodi-0.dtd"
   xmlns="http://www.w3.org/2000/svg"
   xmlns:svg="http://www.w3.org/2000/svg"><sodipodi:namedview
     id="namedview38066"
     pagecolor="#ffffff"
     bordercolor="#000000"
     borderopacity="0.25"
     inkscape:showpageshadow="2"
     inkscape:pageopacity="0.0"
     inkscape:pagecheckerboard="0"
     inkscape:deskcolor="#d1d1d1"
     inkscape:document-units="mm"
     showgrid="false"
     inkscape:zoom="0.73940798"
     inkscape:cx="510.54358"
     inkscape:cy="478.08518"
     inkscape:window-width="1920"
     inkscape:window-height="991"
     inkscape:window-x="-9"
     inkscape:window-y="-9"
     inkscape:window-maximized="1"
     inkscape:current-layer="layer1" /><defs
     id="defs38061" /><g
     inkscape:label="Layer 1"
     inkscape:groupmode="layer"
     id="layer1"
     transform="translate(-11.908146,-82.444071)"><path
       style="fill:#404852;fill-opacity:1;stroke-width:0.290183"
       d="m 24.659946,101.12776 c -0.420332,-0.34053 -0.656931,-0.84184 -0.649757,-1.378394 0.02163,-0.834716 5.693558,-15.856819 6.286881,-16.618258 0.867896,-1.113988 2.810891,-0.821928 3.360448,0.50517 0.296447,0.715432 -3.31e-4,1.649394 -2.876527,9.049465 -1.763357,4.538437 -3.426534,8.414917 -3.695513,8.614417 -0.696485,0.51699 -1.658615,0.44862 -2.425532,-0.17252 z M 15.4587,96.362815 c -2.908771,-2.915575 -3.550555,-3.711325 -3.550555,-4.401782 0,-0.687891 0.635858,-1.48465 3.458581,-4.334083 3.178764,-3.208862 3.545642,-3.491253 4.531829,-3.491253 1.25655,0 1.875975,0.653753 1.875975,1.979449 0,0.720696 -0.46318,1.347079 -2.533121,3.426767 l -2.533237,2.544858 2.533237,2.544871 c 2.083158,2.092844 2.533121,2.703365 2.533121,3.437255 0,1.098256 -0.779335,1.852891 -1.91358,1.852891 -0.702975,0 -1.471939,-0.621291 -4.40225,-3.558973 z M 36.473867,99.3911 c -1.035896,-1.144554 -0.646326,-2.047871 2.052844,-4.759458 l 2.533022,-2.544871 -2.533022,-2.544858 c -2.06994,-2.079688 -2.533353,-2.706071 -2.533353,-3.426767 0,-1.325696 0.619657,-1.979449 1.876207,-1.979449 0.98642,0 1.352949,0.282391 4.531614,3.491253 2.838904,2.865593 3.458796,3.643831 3.458796,4.34262 0,0.702451 -0.622738,1.472485 -3.558976,4.4018 -3.009184,3.001894 -3.69713,3.550418 -4.452974,3.550418 -0.497723,0 -1.106894,-0.235351 -1.374158,-0.530688 z"
       id="path1626"
       sodipodi:nodetypes="scsssssssssssscsssssscssssssss" /></g></svg>
