<?xml version="1.0" encoding="UTF-8" standalone="no"?>
<!-- Created with Inkscape (http://www.inkscape.org/) -->

<svg
   width="43.307755mm"
   height="54.492607mm"
   viewBox="0 0 43.307755 54.492607"
   version="1.1"
   id="svg5"
   xml:space="preserve"
   xmlns:inkscape="http://www.inkscape.org/namespaces/inkscape"
   xmlns:sodipodi="http://sodipodi.sourceforge.net/DTD/sodipodi-0.dtd"
   xmlns="http://www.w3.org/2000/svg"
   xmlns:svg="http://www.w3.org/2000/svg"><sodipodi:namedview
     id="namedview7"
     pagecolor="#ffffff"
     bordercolor="#000000"
     borderopacity="0.25"
     inkscape:showpageshadow="2"
     inkscape:pageopacity="0.0"
     inkscape:pagecheckerboard="0"
     inkscape:deskcolor="#d1d1d1"
     inkscape:document-units="mm"
     showgrid="false" /><defs
     id="defs2" /><g
     inkscape:label="Layer 1"
     inkscape:groupmode="layer"
     id="layer1"
     transform="translate(58.847398,-125.68604)"><path
       style="fill:#404852;fill-opacity:1;stroke-width:0.264583"
       d="m -53.191387,179.78375 c -1.167709,-0.44488 -2.575738,-1.45306 -3.681512,-2.63604 -2.393201,-2.5603 -2.616942,-6.08732 -0.638146,-10.05967 1.243108,-2.49548 1.737709,-3.08457 2.511596,-2.99138 1.028487,0.12385 1.350365,0.84509 0.772861,1.73178 -0.261658,0.40174 -0.855557,1.50434 -1.319774,2.45023 -0.723295,1.47378 -0.844031,2.00642 -0.844031,3.72355 0,1.69976 0.100353,2.15236 0.661459,2.98324 0.938288,1.3894 3.161625,2.87112 4.308142,2.87112 1.116044,0 1.394133,-0.14386 4.425531,-2.28947 3.119022,-2.20762 5.106225,-2.89474 8.41839,-2.91083 2.145213,-0.0104 2.516899,0.0551 2.844271,0.5016 0.43983,0.59985 0.448545,0.68276 0.125444,1.19351 -0.177699,0.28089 -0.870111,0.39879 -2.575637,0.43853 -2.958509,0.0689 -4.404261,0.56145 -7.17885,2.44557 -1.210229,0.82182 -2.661101,1.76681 -3.22416,2.09998 -1.30852,0.77428 -3.253116,0.96355 -4.605584,0.44828 z m 10.744535,0.0837 c -0.369099,-0.3691 -0.42432,-1.43734 -0.08514,-1.64697 0.127799,-0.079 1.526783,-0.19487 3.108854,-0.25754 3.514849,-0.13922 6.025991,-0.69684 8.088349,-1.79606 1.797451,-0.95803 2.688111,-1.91088 3.561201,-3.80987 2.19023,-4.76376 0.34314,-9.71088 -6.921028,-18.5368 -4.709745,-5.72231 -8.588722,-11.89653 -13.826629,-22.00803 -2.220793,-4.28712 -2.477908,-4.9231 -2.219563,-5.4901 0.286775,-0.62941 0.954111,-0.82315 1.511477,-0.43881 0.155044,0.10691 1.419831,2.39704 2.810637,5.08918 4.526446,8.76168 8.606252,15.36435 12.098011,19.57917 5.041715,6.08571 7.360045,9.52784 8.687945,12.89933 0.61953,1.57299 0.70452,2.16374 0.71541,4.97286 0.0123,3.16515 0.005,3.20222 -0.98723,5.21123 -0.63136,1.27804 -1.41108,2.38256 -2.11666,2.99837 -1.621198,1.41493 -4.512705,2.6782 -7.204608,3.14763 -2.807792,0.48964 -6.770382,0.53705 -7.221029,0.0864 z m -10.238664,-17.50867 c -0.55172,-0.40343 -0.439482,-1.4575 0.197727,-1.85695 0.667795,-0.41861 1.389063,0.11543 1.389063,1.02849 0,0.8819 -0.88314,1.34298 -1.58679,0.82846 z m 26.676368,-9.60877 c -0.65247,-1.11001 -0.74791,-1.5425 -0.74791,-3.38905 0,-1.93095 0.0871,-2.28377 0.99218,-4.02121 1.15354,-2.21426 1.26869,-3.52769 0.44997,-5.1325 -0.60344,-1.18285 -0.49516,-1.9781 0.30387,-2.2317 1.20087,-0.38114 2.46431,1.8516 2.47508,4.37395 0.006,1.51028 -0.13359,2.00104 -1.14955,4.02834 -1.30144,2.59695 -1.33994,3.56297 -0.21991,5.51728 0.68482,1.19493 0.44861,1.91051 -0.67521,2.04552 -0.56835,0.0683 -0.80399,-0.12813 -1.42852,-1.19063 z m 7.06895,0.33398 c -0.65223,-1.05534 -0.63187,-1.94148 0.0545,-2.37174 0.61162,-0.3834 1.16074,-0.0254 1.88345,1.22811 0.65934,1.14355 0.41011,1.86686 -0.6889,1.99928 -0.52476,0.0632 -0.79596,-0.12255 -1.24904,-0.85565 z m -0.34238,-4.93485 c -0.70213,-0.40895 -0.5892,-1.52016 0.1906,-1.87546 0.49978,-0.22772 0.74887,-0.21876 1.05833,0.0381 0.56604,0.46977 0.50514,1.52164 -0.10706,1.84928 -0.60908,0.32597 -0.56095,0.32647 -1.14187,-0.0119 z m -13.251218,-1.21353 c -0.324469,-0.32446 -0.181448,-1.12052 0.402638,-2.24112 0.795319,-1.52585 0.750456,-3.36443 -0.113964,-4.67066 -1.321364,-1.99671 -1.271879,-3.32013 0.118888,-3.17951 0.697717,0.0705 0.929491,0.32253 1.763323,1.91705 0.857133,1.63909 0.960013,2.05023 0.960013,3.83646 0,1.71337 -0.10607,2.18109 -0.738752,3.2574 -0.601155,1.02268 -0.876316,1.25677 -1.477259,1.25677 -0.406175,0 -0.817875,-0.0794 -0.914887,-0.17639 z m 14.914168,-3.2458 c -0.15064,-0.28147 -0.27426,-0.90655 -0.27471,-1.38906 -5.3e-4,-0.48251 -0.41717,-1.7039 -0.92604,-2.7142 -0.78003,-1.54866 -0.92431,-2.10918 -0.91941,-3.57188 0.009,-2.67334 1.34384,-5.05677 2.60752,-4.65569 0.84631,0.26861 0.90134,1.0317 0.17317,2.40121 -0.9087,1.70904 -0.85182,2.79237 0.26537,5.05338 1.04157,2.10798 1.45437,4.3435 0.92077,4.98644 -0.46753,0.56335 -1.5198,0.50056 -1.84667,-0.1102 z m -15.135129,-9.93143 c -0.227719,-0.49979 -0.218758,-0.74888 0.03807,-1.05833 0.84909,-1.0231 2.482739,0.0165 1.858587,1.18279 -0.410157,0.76638 -1.524064,0.69329 -1.896655,-0.12446 z"
       id="path260" /></g></svg>
