<?xml version="1.0" encoding="UTF-8"?>
<svg width="43.308mm" height="54.493mm" version="1.1" viewBox="0 0 43.308 54.493" xml:space="preserve" xmlns="http://www.w3.org/2000/svg"><g transform="translate(58.847 -125.69)"><path d="m-53.191 179.78c-1.1677-0.44488-2.5757-1.4531-3.6815-2.636-2.3932-2.5603-2.6169-6.0873-0.63815-10.06 1.2431-2.4955 1.7377-3.0846 2.5116-2.9914 1.0285 0.12385 1.3504 0.84509 0.77286 1.7318-0.26166 0.40174-0.85556 1.5043-1.3198 2.4502-0.7233 1.4738-0.84403 2.0064-0.84403 3.7236 0 1.6998 0.10035 2.1524 0.66146 2.9832 0.93829 1.3894 3.1616 2.8711 4.3081 2.8711 1.116 0 1.3941-0.14386 4.4255-2.2895 3.119-2.2076 5.1062-2.8947 8.4184-2.9108 2.1452-0.0104 2.5169 0.0551 2.8443 0.5016 0.43983 0.59985 0.44854 0.68276 0.12544 1.1935-0.1777 0.28089-0.87011 0.39879-2.5756 0.43853-2.9585 0.0689-4.4043 0.56145-7.1788 2.4456-1.2102 0.82182-2.6611 1.7668-3.2242 2.1-1.3085 0.77428-3.2531 0.96355-4.6056 0.44828zm10.745 0.0837c-0.3691-0.3691-0.42432-1.4373-0.08514-1.647 0.1278-0.079 1.5268-0.19487 3.1089-0.25754 3.5148-0.13922 6.026-0.69684 8.0883-1.7961 1.7975-0.95803 2.6881-1.9109 3.5612-3.8099 2.1902-4.7638 0.34314-9.7109-6.921-18.537-4.7097-5.7223-8.5887-11.897-13.827-22.008-2.2208-4.2871-2.4779-4.9231-2.2196-5.4901 0.28678-0.62941 0.95411-0.82315 1.5115-0.43881 0.15504 0.10691 1.4198 2.397 2.8106 5.0892 4.5264 8.7617 8.6063 15.364 12.098 19.579 5.0417 6.0857 7.36 9.5278 8.6879 12.899 0.61953 1.573 0.70452 2.1637 0.71541 4.9729 0.0123 3.1652 5e-3 3.2022-0.98723 5.2112-0.63136 1.278-1.4111 2.3826-2.1167 2.9984-1.6212 1.4149-4.5127 2.6782-7.2046 3.1476-2.8078 0.48964-6.7704 0.53705-7.221 0.0864zm-10.239-17.509c-0.55172-0.40343-0.43948-1.4575 0.19773-1.857 0.6678-0.41861 1.3891 0.11543 1.3891 1.0285 0 0.8819-0.88314 1.343-1.5868 0.82846zm26.676-9.6088c-0.65247-1.11-0.74791-1.5425-0.74791-3.389 0-1.931 0.0871-2.2838 0.99218-4.0212 1.1535-2.2143 1.2687-3.5277 0.44997-5.1325-0.60344-1.1828-0.49516-1.9781 0.30387-2.2317 1.2009-0.38114 2.4643 1.8516 2.4751 4.374 6e-3 1.5103-0.13359 2.001-1.1496 4.0283-1.3014 2.597-1.3399 3.563-0.21991 5.5173 0.68482 1.1949 0.44861 1.9105-0.67521 2.0455-0.56835 0.0683-0.80399-0.12813-1.4285-1.1906zm7.069 0.33398c-0.65223-1.0553-0.63187-1.9415 0.0545-2.3717 0.61162-0.3834 1.1607-0.0254 1.8834 1.2281 0.65934 1.1436 0.41011 1.8669-0.6889 1.9993-0.52476 0.0632-0.79596-0.12255-1.249-0.85565zm-0.34238-4.9348c-0.70213-0.40895-0.5892-1.5202 0.1906-1.8755 0.49978-0.22772 0.74887-0.21876 1.0583 0.0381 0.56604 0.46977 0.50514 1.5216-0.10706 1.8493-0.60908 0.32597-0.56095 0.32647-1.1419-0.0119zm-13.251-1.2135c-0.32447-0.32446-0.18145-1.1205 0.40264-2.2411 0.79532-1.5258 0.75046-3.3644-0.11396-4.6707-1.3214-1.9967-1.2719-3.3201 0.11889-3.1795 0.69772 0.0705 0.92949 0.32253 1.7633 1.917 0.85713 1.6391 0.96001 2.0502 0.96001 3.8365 0 1.7134-0.10607 2.1811-0.73875 3.2574-0.60116 1.0227-0.87632 1.2568-1.4773 1.2568-0.40618 0-0.81788-0.0794-0.91489-0.17639zm14.914-3.2458c-0.15064-0.28147-0.27426-0.90655-0.27471-1.3891-5.3e-4 -0.48251-0.41717-1.7039-0.92604-2.7142-0.78003-1.5487-0.92431-2.1092-0.91941-3.5719 9e-3 -2.6733 1.3438-5.0568 2.6075-4.6557 0.84631 0.26861 0.90134 1.0317 0.17317 2.4012-0.9087 1.709-0.85182 2.7924 0.26537 5.0534 1.0416 2.108 1.4544 4.3435 0.92077 4.9864-0.46753 0.56335-1.5198 0.50056-1.8467-0.1102zm-15.135-9.9314c-0.22772-0.49979-0.21876-0.74888 0.03807-1.0583 0.84909-1.0231 2.4827 0.0165 1.8586 1.1828-0.41016 0.76638-1.5241 0.69329-1.8967-0.12446z" fill="#404852" stroke-width=".26458"/></g></svg>
