<?xml version="1.0" encoding="UTF-8"?>
<svg width="39.687mm" height="36.226mm" version="1.1" viewBox="0 0 39.687 36.226" xml:space="preserve" xmlns="http://www.w3.org/2000/svg"><g transform="translate(-188.22 -9.2613)"><path d="m190.59 45.396c-1.106-0.26506-2.0495-1.2226-2.2837-2.317-0.12135-0.56488-0.12363-27.155-2e-3 -27.719 0.21312-0.99971 0.94106-1.834 1.943-2.2295l0.3908-0.15439 3.7716-0.0304 0.0232 1.5093c0.0232 1.401 0.0308 1.5315 0.14592 1.8189 0.25343 0.62308 0.80503 1.1697 1.4338 1.4201 0.25187 0.1004 0.42874 0.12474 0.90962 0.12626 0.57038 2e-3 0.6155-8e-3 1.023-0.20117 0.78391-0.37307 1.302-1.0596 1.4192-1.88 0.0308-0.21677 0.0561-0.93236 0.0584-1.5903l1e-3 -1.1963h17.336v1.4023c0 1.2183 0.0232 1.4474 0.10789 1.7451 0.2154 0.68784 0.69701 1.2302 1.37 1.5453 0.34173 0.16011 0.41664 0.17304 0.99739 0.17494 0.61193 2e-3 0.63911-4e-3 1.056-0.20726 0.78905-0.38615 1.2914-1.055 1.4118-1.8798 0.0308-0.21334 0.0561-0.92624 0.0584-1.5842l1e-3 -1.1963 1.7193 8.8e-4c1.9117 8.4e-4 2.1874 0.0342 2.7942 0.35101 0.44336 0.23045 1.0369 0.81843 1.2697 1.2572 0.38281 0.72236 0.35515-0.40372 0.35515 14.66 0 15.062 0.0308 13.937-0.35477 14.66-0.26111 0.49438-0.84404 1.0471-1.3595 1.2894-0.22924 0.108-0.55269 0.22361-0.71814 0.25784-0.21539 0.0441-5.2029 0.0605-17.421 0.0574-14.568-4e-3 -17.169-0.0152-17.453-0.0844zm34.491-2.4116c0.40293-0.16657 0.37322 0.79633 0.35709-11.555l-0.0232-11.134-34.729-1.1e-4 -0.0232 11.076c-0.0232 12.198-0.0403 11.35 0.33789 11.579 0.18855 0.11333 0.23768 0.11371 17.028 0.11371 14.426 1.5e-4 16.868-0.0114 17.034-0.0799zm-31.487-2.4497c-0.063-0.0266-0.1774-0.11561-0.25571-0.1989l-0.14131-0.15135v-1.6421c0-0.91829 0.0232-1.7224 0.0472-1.8242 0.0308-0.10002 0.12135-0.23312 0.19965-0.29549 0.14132-0.10952 0.22578-0.11371 2.558-0.11371h2.4127l0.16626 0.16467 0.16627 0.16429v3.5535l-0.16627 0.18368-0.16626 0.18368-2.3494 0.0114c-1.2921 4e-3 -2.4004-0.0114-2.463-0.038zm8.0096-0.0266c-0.33979-0.14794-0.36478-0.29093-0.36478-2.0565 0-1.6989 0.0232-1.8658 0.29066-2.0512 0.11671-0.0818 0.40539-0.092 2.5311-0.092h2.3986l0.17509 0.17341 0.17509 0.17342v3.5362l-0.16627 0.18368-0.16626 0.18368-2.3495 0.0152c-1.8769 0.0114-2.3845-2e-3 -2.5243-0.0635zm8.0595-4e-3c-0.34021-0.14642-0.36017-0.27267-0.34135-2.1755l0.0232-1.6897 0.18623-0.1639 0.18623-0.16429h2.3609c2.5605 0 2.6022 4e-3 2.7419 0.30804 0.0472 0.10382 0.0672 0.64988 0.0672 1.8494 0 1.8625 0 1.8618-0.34174 2.0368-0.23768 0.1217-4.5923 0.12131-4.8753-5.3e-4zm-16.069-6.7243c-0.063-0.0266-0.1774-0.11485-0.25571-0.19813l-0.14131-0.15136v-1.6421c0-0.9183 0.0232-1.7224 0.0472-1.8242 0.0308-0.10002 0.12135-0.23312 0.19965-0.29549 0.14132-0.10953 0.22578-0.11371 2.558-0.11371h2.4127l0.16626 0.16467 0.16627 0.16466v1.7651c0 1.5407-0.0232 1.7818-0.0921 1.8962-0.19544 0.27647-0.30793 0.28826-2.7048 0.28446-1.2282-2e-3 -2.2839-0.0266-2.3465-0.0502zm8.004-0.038c-0.34979-0.17113-0.36744-0.27989-0.34827-2.1666l0.0232-1.6926 0.18623-0.16428 0.18623-0.16391h4.8383l0.16626 0.16467 0.16627 0.16467v1.7652c0 1.9576 1e-3 1.9499-0.37513 2.1057-0.29681 0.12283-4.5815 0.1118-4.8359-0.0114zm8.0651 4e-3c-0.34021-0.14641-0.36017-0.27229-0.34135-2.1755l0.0232-1.6897 0.37246-0.32858 2.4006 1e-3c2.1887 1e-3 2.4112 8e-3 2.5219 0.0985 0.23768 0.19053 0.24844 0.27686 0.24844 2.0514 0 1.8946 2.3e-4 1.8936-0.37512 2.0488-0.28069 0.11637-4.5701 0.11067-4.8419-4e-3zm8.0769 2e-3c-0.34406-0.14793-0.359-0.23654-0.359-2.0876 0-1.8125 0.0232-1.9077 0.32447-2.0474 0.0899-0.0411 0.91994-0.0605 2.5057-0.0601 2.1602 1e-3 2.3811 0.0114 2.4915 0.0985 0.2373 0.19015 0.24844 0.27876 0.24844 2.0104 0 1.8605-0.0232 1.9404-0.3717 2.0882-0.27951 0.11599-4.5707 0.11371-4.8399-2e-3zm-16.028-6.7122c-0.20426-0.0395-0.40789-0.28751-0.44606-0.54287-0.0232-0.12892-0.0232-0.9394-0.0232-1.8012l0.0232-1.5669 0.18623-0.1639 0.18623-0.16429h4.8383l0.33253 0.32933v1.7651c0 1.5407-0.0232 1.7818-0.0921 1.8962-0.19543 0.27686-0.30834 0.28864-2.6765 0.28028-1.2122-4e-3 -2.2599-0.019-2.3279-0.0304zm7.9571-0.0517c-0.34865-0.17-0.36592-0.278-0.34747-2.1651l0.0232-1.6941 0.18623-0.1639 0.18623-0.16429h2.3901c1.5305 0 2.4294 0.019 2.4994 0.0582 0.26187 0.13843 0.28107 0.28218 0.28027 2.0644-7.9e-4 1.848 0 1.8922-0.34097 2.0575-0.17969 0.089-0.41775 0.0985-2.4433 0.0974-1.9225-1e-3 -2.2711-0.0152-2.426-0.0894zm8.0709 8e-3c-0.34406-0.14794-0.359-0.23541-0.359-2.0978 0-1.7824 0-1.8092 0.28145-2.026 0.11443-0.0894 4.8406-0.10306 5.0078-0.0152 0.26111 0.13842 0.28108 0.28255 0.2807 2.0644 0 1.5622 0 1.6899-0.10983 1.8571-0.0741 0.12056-0.18201 0.1989-0.32675 0.23883-0.34785 0.0958-4.5451 0.0761-4.7736-0.0228zm-21.393-10.543c-0.23152-0.11599-0.35093-0.22361-0.47907-0.43178l-0.17049-0.27685-0.0232-2.6948c-0.0232-1.8594 0-2.7683 0.0472-2.9318 0.0875-0.32325 0.51406-0.73184 0.85325-0.81596 0.54642-0.13576 1.1456 0.12207 1.399 0.60181l0.13018 0.24834v2.78c0 2.625 0 2.7916-0.10789 2.9889-0.32983 0.63551-1.0142 0.85539-1.6571 0.53256zm22.483 0.0871c-0.29758-0.10306-0.54796-0.33199-0.68757-0.62927l-0.13478-0.28788-2.3e-4 -2.6458c-2.3e-4 -1.7079 0.0232-2.7228 0.0607-2.8629 0.0921-0.32629 0.4638-0.6948 0.80299-0.79451 0.56547-0.16619 1.1837 0.0825 1.4486 0.58409l0.13018 0.24833-1e-3 2.7637c-1e-3 2.5515 0 2.781-0.10561 2.9893-0.25263 0.55142-0.9325 0.8366-1.5139 0.63531z" fill="#404852" stroke-width=".056566"/></g></svg>
