<?xml version="1.0" encoding="UTF-8" standalone="no"?>
<!-- Created with Inkscape (http://www.inkscape.org/) -->

<svg
   width="39.687012mm"
   height="36.226021mm"
   viewBox="0 0 39.687012 36.226021"
   version="1.1"
   id="svg38064"
   inkscape:version="1.2 (dc2aedaf03, 2022-05-15)"
   sodipodi:docname="all.svg"
   xml:space="preserve"
   inkscape:export-filename="all.pdf"
   inkscape:export-xdpi="96"
   inkscape:export-ydpi="96"
   xmlns:inkscape="http://www.inkscape.org/namespaces/inkscape"
   xmlns:sodipodi="http://sodipodi.sourceforge.net/DTD/sodipodi-0.dtd"
   xmlns="http://www.w3.org/2000/svg"
   xmlns:svg="http://www.w3.org/2000/svg"><sodipodi:namedview
     id="namedview38066"
     pagecolor="#ffffff"
     bordercolor="#000000"
     borderopacity="0.25"
     inkscape:showpageshadow="2"
     inkscape:pageopacity="0.0"
     inkscape:pagecheckerboard="0"
     inkscape:deskcolor="#d1d1d1"
     inkscape:document-units="mm"
     showgrid="false"
     inkscape:zoom="0.73940798"
     inkscape:cx="510.54358"
     inkscape:cy="478.08518"
     inkscape:window-width="1920"
     inkscape:window-height="991"
     inkscape:window-x="-9"
     inkscape:window-y="-9"
     inkscape:window-maximized="1"
     inkscape:current-layer="layer1" /><defs
     id="defs38061" /><g
     inkscape:label="Layer 1"
     inkscape:groupmode="layer"
     id="layer1"
     transform="translate(-188.21824,-9.2613146)"><path
       style="fill:#404852;fill-opacity:1;stroke-width:0.0565664"
       d="m 190.59405,45.396 c -1.10601,-0.26506 -2.04954,-1.2226 -2.28368,-2.31705 -0.12135,-0.56488 -0.12363,-27.15467 -0.002,-27.71914 0.21312,-0.99971 0.94106,-1.83404 1.94295,-2.22947 l 0.3908,-0.15439 1.88589,-0.0152 1.8857,-0.0152 0.0232,1.5093 c 0.0232,1.401 0.0308,1.53152 0.14592,1.81894 0.25343,0.62308 0.80503,1.16967 1.43381,1.42009 0.25187,0.1004 0.42874,0.12474 0.90962,0.12626 0.57038,0.002 0.6155,-0.008 1.02296,-0.20117 0.78391,-0.37307 1.302,-1.05958 1.41918,-1.88002 0.0308,-0.21677 0.0561,-0.93236 0.0584,-1.59031 l 0.001,-1.19629 h 8.66806 8.66801 v 1.40233 c 0,1.21827 0.0232,1.4474 0.10789,1.74513 0.2154,0.68784 0.69701,1.23017 1.37003,1.54528 0.34173,0.16011 0.41664,0.17304 0.99739,0.17494 0.61193,0.002 0.63911,-0.004 1.05599,-0.20726 0.78905,-0.38615 1.29143,-1.05497 1.41177,-1.87979 0.0308,-0.21334 0.0561,-0.92624 0.0584,-1.58415 l 0.001,-1.19629 1.71932,8.8e-4 c 1.91173,8.4e-4 2.18738,0.0342 2.79417,0.35101 0.44336,0.23045 1.0369,0.81843 1.2697,1.25721 0.38281,0.72236 0.35515,-0.40372 0.35515,14.66033 0,15.06215 0.0308,13.93706 -0.35477,14.66034 -0.26111,0.49438 -0.84404,1.04713 -1.35947,1.28942 -0.22924,0.108 -0.55269,0.22361 -0.71814,0.25784 -0.21539,0.0441 -5.20286,0.0605 -17.42134,0.0574 -14.56789,-0.004 -17.16946,-0.0152 -17.45275,-0.0844 z m 34.49117,-2.41155 c 0.40293,-0.16657 0.37322,0.79633 0.35709,-11.55516 l -0.0232,-11.13358 -17.36432,-7e-5 -17.36432,-4e-5 -0.0232,11.0763 c -0.0232,12.1979 -0.0403,11.35011 0.33789,11.57855 0.18855,0.11333 0.23768,0.11371 17.0285,0.11371 14.42606,1.5e-4 16.8682,-0.0114 17.03366,-0.0799 z m -31.4869,-2.44973 c -0.063,-0.0266 -0.1774,-0.11561 -0.25571,-0.1989 L 193.2013,40.18447 V 38.5424 c 0,-0.91829 0.0232,-1.72238 0.0472,-1.82419 0.0308,-0.10002 0.12135,-0.23312 0.19965,-0.29549 0.14132,-0.10952 0.22578,-0.11371 2.55803,-0.11371 h 2.41273 l 0.16626,0.16467 0.16627,0.16429 v 1.77673 1.77673 l -0.16627,0.18368 -0.16626,0.18368 -2.34945,0.0114 c -1.29213,0.004 -2.40041,-0.0114 -2.46304,-0.038 z m 8.00963,-0.0266 c -0.33979,-0.14794 -0.36478,-0.29093 -0.36478,-2.05651 0,-1.69892 0.0232,-1.86583 0.29066,-2.05115 0.11671,-0.0818 0.40539,-0.092 2.53107,-0.092 h 2.3986 l 0.17509,0.17341 0.17509,0.17342 v 1.76809 1.76806 l -0.16627,0.18368 -0.16626,0.18368 -2.34946,0.0152 c -1.87694,0.0114 -2.38447,-0.002 -2.52434,-0.0635 z m 8.05946,-0.004 c -0.34021,-0.14642 -0.36017,-0.27267 -0.34135,-2.17551 l 0.0232,-1.68972 0.18623,-0.1639 0.18623,-0.16429 h 2.3609 c 2.56048,0 2.60222,0.004 2.74187,0.30804 0.0472,0.10382 0.0672,0.64988 0.0672,1.8494 0,1.86249 0,1.8618 -0.34174,2.03685 -0.23768,0.1217 -4.59227,0.12131 -4.87534,-5.3e-4 z m -16.06909,-6.72431 c -0.063,-0.0266 -0.1774,-0.11485 -0.25571,-0.19813 l -0.14131,-0.15136 v -1.6421 c 0,-0.9183 0.0232,-1.72239 0.0472,-1.82419 0.0308,-0.10002 0.12135,-0.23312 0.19965,-0.29549 0.14132,-0.10953 0.22578,-0.11371 2.55803,-0.11371 h 2.41273 l 0.16626,0.16467 0.16627,0.16466 v 1.76513 c 0,1.54072 -0.0232,1.78175 -0.0921,1.89615 -0.19544,0.27647 -0.30793,0.28826 -2.70482,0.28446 -1.22815,-0.002 -2.28391,-0.0266 -2.34654,-0.0502 z m 8.00402,-0.038 c -0.34979,-0.17113 -0.36744,-0.27989 -0.34827,-2.1666 l 0.0232,-1.69258 0.18623,-0.16428 0.18623,-0.16391 h 2.41902 2.41927 l 0.16626,0.16467 0.16627,0.16467 v 1.76516 c 0,1.95756 0.001,1.94992 -0.37513,2.10569 -0.29681,0.12283 -4.58153,0.1118 -4.83587,-0.0114 z m 8.06507,0.004 c -0.34021,-0.14641 -0.36017,-0.27229 -0.34135,-2.17547 l 0.0232,-1.68971 0.18623,-0.16429 0.18623,-0.16429 2.40064,10e-4 c 2.18872,0.001 2.41119,0.008 2.52186,0.0985 0.23768,0.19053 0.24844,0.27686 0.24844,2.05138 0,1.89458 2.3e-4,1.89356 -0.37512,2.04879 -0.28069,0.11637 -4.57009,0.11067 -4.84193,-0.004 z m 8.07694,0.002 c -0.34406,-0.14793 -0.359,-0.23654 -0.359,-2.08758 0,-1.81248 0.0232,-1.90767 0.32447,-2.04735 0.0899,-0.0411 0.91994,-0.0605 2.50572,-0.0601 2.1602,0.001 2.3811,0.0114 2.49153,0.0985 0.2373,0.19015 0.24844,0.27876 0.24844,2.01042 0,1.86051 -0.0232,1.94045 -0.3717,2.08823 -0.27951,0.11599 -4.57074,0.11371 -4.8399,-0.002 z m -16.02797,-6.7122 c -0.20426,-0.0395 -0.40789,-0.28751 -0.44606,-0.54287 -0.0232,-0.12892 -0.0232,-0.9394 -0.0232,-1.80118 l 0.0232,-1.56689 0.18623,-0.1639 0.18623,-0.16429 h 2.41903 2.4193 l 0.16627,0.16467 0.16626,0.16466 v 1.76513 c 0,1.54072 -0.0232,1.78175 -0.0921,1.89618 -0.19543,0.27686 -0.30834,0.28864 -2.67652,0.28028 -1.21222,-0.004 -2.25987,-0.019 -2.32791,-0.0304 z m 7.95706,-0.0517 c -0.34865,-0.17 -0.36592,-0.278 -0.34747,-2.16513 l 0.0232,-1.69413 0.18623,-0.1639 0.18623,-0.16429 h 2.39008 c 1.53053,0 2.42935,0.019 2.49939,0.0582 0.26187,0.13843 0.28107,0.28218 0.28027,2.06438 -7.9e-4,1.84804 0,1.89219 -0.34097,2.0575 -0.17969,0.089 -0.41775,0.0985 -2.4433,0.0974 -1.92248,-0.001 -2.27112,-0.0152 -2.42601,-0.0894 z m 8.07091,0.008 c -0.34406,-0.14794 -0.359,-0.23541 -0.359,-2.09781 0,-1.78244 0,-1.80925 0.28145,-2.02605 0.11443,-0.0894 4.84056,-0.10306 5.00781,-0.0152 0.26111,0.13842 0.28108,0.28255 0.2807,2.06438 0,1.56224 0,1.68991 -0.10983,1.85708 -0.0741,0.12056 -0.18201,0.1989 -0.32675,0.23883 -0.34785,0.0958 -4.54513,0.0761 -4.77363,-0.0228 z M 196.35121,16.44855 c -0.23152,-0.11599 -0.35093,-0.22361 -0.47907,-0.43178 l -0.17049,-0.27685 -0.0232,-2.69476 c -0.0232,-1.85944 0,-2.76827 0.0472,-2.93183 0.0875,-0.32325 0.51406,-0.73184 0.85325,-0.81596 0.54642,-0.13576 1.14556,0.12207 1.39902,0.60181 l 0.13018,0.24834 v 2.77998 c 0,2.62501 0,2.79165 -0.10789,2.98887 -0.32983,0.63551 -1.01421,0.85539 -1.65713,0.53256 z m 22.48345,0.0871 c -0.29758,-0.10306 -0.54796,-0.33199 -0.68757,-0.62927 l -0.13478,-0.28788 -2.3e-4,-2.64585 c -2.3e-4,-1.70786 0.0232,-2.72282 0.0607,-2.86292 0.0921,-0.32629 0.4638,-0.6948 0.80299,-0.79451 0.56547,-0.16619 1.18369,0.0825 1.44859,0.58409 l 0.13018,0.24833 -0.001,2.76374 c -0.001,2.55147 0,2.78101 -0.10561,2.98934 -0.25263,0.55142 -0.9325,0.8366 -1.5139,0.63531 z"
       id="path1654" /></g></svg>
