<?xml version="1.0" encoding="UTF-8" standalone="no"?>
<!-- Created with Inkscape (http://www.inkscape.org/) -->

<svg
   width="33.95182mm"
   height="38.794693mm"
   viewBox="0 0 33.95182 38.794693"
   version="1.1"
   id="svg38064"
   inkscape:version="1.2 (dc2aedaf03, 2022-05-15)"
   sodipodi:docname="all.svg"
   xml:space="preserve"
   inkscape:export-filename="all.pdf"
   inkscape:export-xdpi="96"
   inkscape:export-ydpi="96"
   xmlns:inkscape="http://www.inkscape.org/namespaces/inkscape"
   xmlns:sodipodi="http://sodipodi.sourceforge.net/DTD/sodipodi-0.dtd"
   xmlns="http://www.w3.org/2000/svg"
   xmlns:svg="http://www.w3.org/2000/svg"><sodipodi:namedview
     id="namedview38066"
     pagecolor="#ffffff"
     bordercolor="#000000"
     borderopacity="0.25"
     inkscape:showpageshadow="2"
     inkscape:pageopacity="0.0"
     inkscape:pagecheckerboard="0"
     inkscape:deskcolor="#d1d1d1"
     inkscape:document-units="mm"
     showgrid="false"
     inkscape:zoom="0.73940798"
     inkscape:cx="510.54358"
     inkscape:cy="478.08518"
     inkscape:window-width="1920"
     inkscape:window-height="991"
     inkscape:window-x="-9"
     inkscape:window-y="-9"
     inkscape:window-maximized="1"
     inkscape:current-layer="layer1" /><defs
     id="defs38061" /><g
     inkscape:label="Layer 1"
     inkscape:groupmode="layer"
     id="layer1"
     transform="translate(-127.82045,-73.566232)"><g
       id="g40938"
       transform="matrix(2.4786536,0,0,2.4786536,-458.89318,-171.2838)"><path
         style="fill:#404852;fill-opacity:1;stroke-width:0.0945822"
         d="m 238.44071,114.31143 c -0.88322,-0.34029 -1.46711,-1.02349 -1.65712,-1.93887 -0.0689,-0.33215 -0.0937,-1.03329 -0.0657,-1.85914 0.0368,-1.07894 0.0855,-1.43158 0.26168,-1.89338 0.54092,-1.41745 1.65835,-2.38105 3.11739,-2.68811 0.47035,-0.099 0.53829,-0.0916 0.75665,0.0828 0.88235,0.7048 1.76481,1.03851 2.74626,1.03851 0.9815,0 1.86391,-0.33371 2.74625,-1.03851 0.21831,-0.17438 0.28625,-0.18182 0.75671,-0.0828 1.29043,0.27158 2.32432,1.0698 2.90411,2.24213 l 0.35558,0.7189 0.0316,1.74503 c 0.0269,1.47543 0.006,1.81095 -0.13154,2.17169 -0.22047,0.57722 -0.74665,1.13777 -1.31855,1.40464 l -0.47287,0.22068 -4.87097,-0.006 c -3.48811,-0.005 -4.95283,-0.0378 -5.15915,-0.1173 z m 10.14793,-0.77672 c 0.45211,-0.18889 0.66427,-0.38687 0.89135,-0.83198 0.16651,-0.32623 0.18217,-0.52586 0.15551,-1.98624 -0.0281,-1.54264 -0.0421,-1.64949 -0.28548,-2.14438 -0.45357,-0.92357 -1.38818,-1.6793 -2.28473,-1.84749 -0.28303,-0.0531 -0.3968,-0.0285 -0.56232,0.12133 -0.67859,0.61437 -1.74586,0.97014 -2.9103,0.97014 -1.02904,0 -1.84,-0.23673 -2.63904,-0.7703 -0.57055,-0.38101 -0.59364,-0.38748 -0.97893,-0.27467 -0.97226,0.28466 -1.89132,1.13073 -2.23971,2.0619 -0.18054,0.48247 -0.19726,0.69356 -0.1706,2.15487 l 0.0292,1.62001 0.27274,0.35728 c 0.55044,0.72095 0.46748,0.7106 5.71263,0.71294 3.984,0.002 4.71177,-0.0191 5.00941,-0.14341 z M 242.5465,105.498 c -1.45869,-0.46743 -2.55765,-2.0712 -2.42055,-3.53232 0.12026,-1.28211 0.82272,-2.32132 1.94114,-2.87192 0.5788,-0.28495 0.70397,-0.31028 1.53277,-0.31028 0.82885,0 0.95396,0.0253 1.53276,0.31028 2.64932,1.30422 2.54812,5.06572 -0.16884,6.27806 -0.59599,0.26595 -1.78703,0.32812 -2.41728,0.12618 z m 1.93448,-0.76455 c 0.61306,-0.20889 1.31428,-0.86509 1.57702,-1.4759 0.91491,-2.12681 -1.14883,-4.36047 -3.33926,-3.61413 -0.61306,0.20889 -1.31423,0.8651 -1.57702,1.47591 -0.91574,2.12861 1.14701,4.36111 3.33926,3.61412 z"
         id="path1638"
         sodipodi:nodetypes="csccscsssscccsccccccccscssssccscccsssscssscsss" /><g
         id="g40769"><path
           style="fill:#404852;fill-opacity:1;stroke:none;stroke-width:0.264583;stroke-linecap:round;stroke-linejoin:round;stroke-dasharray:none;stroke-dashoffset:0;stroke-opacity:1;stop-color:#000000"
           d="m 240.34474,106.23449 -1.02207,0.37475 c 0,0 -0.68138,0.22146 -0.83956,0.44047 -0.15818,0.21902 -0.53537,0.73006 -0.57187,0.79089 -0.0365,0.0608 -0.22584,-0.008 -0.14601,0.36503 0.0798,0.37327 -0.47454,0.85172 -0.49887,0.96123 -0.0243,0.10951 -0.0365,0.0243 -0.0243,0.30419 0.0122,0.27985 -0.25552,1.54527 -0.20685,1.61828 0.0487,0.073 0.0365,-0.0365 0.0852,0.66921 0.0487,0.70572 -0.0487,0.85172 0.15818,1.16808 0.20685,0.31635 0.21902,0.34069 0.46237,0.59621 0.24335,0.25552 0.4867,0.40153 0.98557,0.40153 0.49886,0 1.05857,0.12167 2.14148,0.12167 1.08291,0 2.32399,0.073 3.90577,0.0122 1.58177,-0.0608 2.67685,-0.0487 2.78636,-0.0487 0.1095,0 0.36502,0.14601 0.82738,-0.0365 0.46237,-0.18252 0.49887,-0.18252 0.83956,-0.4137 0.34069,-0.23118 0.73005,-0.37719 0.71788,-0.92473 -0.0122,-0.54753 0,-0.88822 0.0122,-1.37493 0.0122,-0.4867 0.13384,-1.11941 0.1095,-1.58177 -0.0243,-0.46237 -0.0487,-0.82739 -0.17034,-1.05857 -0.12168,-0.23119 -0.25552,-0.32124 -0.4137,-0.64488 -0.15817,-0.32364 -0.0852,-0.47453 -0.47453,-0.70572 -0.38936,-0.23118 -0.37719,-0.24335 -0.85173,-0.5232 -0.47453,-0.27985 -0.51103,-0.30419 -0.75438,-0.38936 -0.24335,-0.0852 -0.4137,-0.24335 -0.63271,-0.10951 -0.21902,0.13384 -0.32852,0.20196 -0.68138,0.36258 -0.35286,0.16062 0.0852,0.0146 -0.58404,0.2823 -0.66921,0.26769 -0.14448,0.29202 -1.04641,0.4502 -0.90193,0.15818 -0.073,0.35286 -1.14374,0.13384 -1.07074,-0.21901 -1.02207,-0.12167 -1.28976,-0.27985 -0.26768,-0.15818 -0.79089,-0.38692 -1.0099,-0.4867 -0.21902,-0.0998 -0.30419,-0.13385 -0.36503,-0.21902 -0.0608,-0.0852 -0.30418,-0.25552 -0.30418,-0.25552 z"
           id="path10450" /><path
           style="fill:#404852;fill-opacity:1;stroke:none;stroke-width:0.264583;stroke-linecap:round;stroke-linejoin:round;stroke-dasharray:none;stroke-dashoffset:0;stroke-opacity:1;stop-color:#000000"
           d="m 240.55159,103.08311 c 0,0 0.75438,0.91256 0.91256,1.19241 0.15818,0.27986 0.49887,0.44361 0.82739,0.58404 0.32852,0.14044 1.07074,0.43803 1.39926,0.3772 0.32853,-0.0608 1.44794,-0.40153 1.49661,-0.4137 0.0487,-0.0122 -0.13385,0.18252 0.4867,-0.46236 0.62054,-0.64488 0.75438,-0.82739 0.92473,-1.36276 0.17034,-0.53538 -0.26769,-2.14149 -0.32853,-2.27533 -0.0608,-0.13384 0.15376,-0.2388 -0.27985,-0.29202 -0.43361,-0.0532 -0.87606,-0.949065 -0.96123,-1.034237 -0.0852,-0.08517 -1.24109,-0.255516 -1.24109,-0.255516 l -1.25325,0.08517 -1.02207,0.693547 c 0,0 -0.76655,0.997736 -0.77872,1.046406 -0.0122,0.0487 -0.18251,2.11715 -0.18251,2.11715 z"
           id="path10452" /></g></g></g></svg>
