<?xml version="1.0" encoding="UTF-8"?>
<svg width="33.952mm" height="38.795mm" version="1.1" viewBox="0 0 33.952 38.795" xml:space="preserve" xmlns="http://www.w3.org/2000/svg"><g transform="translate(-127.82 -73.566)"><g transform="matrix(2.4787 0 0 2.4787 -458.89 -171.28)" fill="#404852"><path d="m238.44 114.31c-0.88322-0.34029-1.4671-1.0235-1.6571-1.9389-0.0689-0.33215-0.0937-1.0333-0.0657-1.8591 0.0368-1.0789 0.0855-1.4316 0.26168-1.8934 0.54092-1.4174 1.6584-2.381 3.1174-2.6881 0.47035-0.099 0.53829-0.0916 0.75665 0.0828 0.88235 0.7048 1.7648 1.0385 2.7463 1.0385 0.9815 0 1.8639-0.33371 2.7462-1.0385 0.21831-0.17438 0.28625-0.18182 0.75671-0.0828 1.2904 0.27158 2.3243 1.0698 2.9041 2.2421l0.35558 0.7189 0.0316 1.745c0.0269 1.4754 6e-3 1.811-0.13154 2.1717-0.22047 0.57722-0.74665 1.1378-1.3186 1.4046l-0.47287 0.22068-4.871-6e-3c-3.4881-5e-3 -4.9528-0.0378-5.1592-0.1173zm10.148-0.77672c0.45211-0.18889 0.66427-0.38687 0.89135-0.83198 0.16651-0.32623 0.18217-0.52586 0.15551-1.9862-0.0281-1.5426-0.0421-1.6495-0.28548-2.1444-0.45357-0.92357-1.3882-1.6793-2.2847-1.8475-0.28303-0.0531-0.3968-0.0285-0.56232 0.12133-0.67859 0.61437-1.7459 0.97014-2.9103 0.97014-1.029 0-1.84-0.23673-2.639-0.7703-0.57055-0.38101-0.59364-0.38748-0.97893-0.27467-0.97226 0.28466-1.8913 1.1307-2.2397 2.0619-0.18054 0.48247-0.19726 0.69356-0.1706 2.1549l0.0292 1.62 0.27274 0.35728c0.55044 0.72095 0.46748 0.7106 5.7126 0.71294 3.984 2e-3 4.7118-0.0191 5.0094-0.14341zm-6.0421-8.0367c-1.4587-0.46743-2.5576-2.0712-2.4206-3.5323 0.12026-1.2821 0.82272-2.3213 1.9411-2.8719 0.5788-0.28495 0.70397-0.31028 1.5328-0.31028 0.82885 0 0.95396 0.0253 1.5328 0.31028 2.6493 1.3042 2.5481 5.0657-0.16884 6.2781-0.59599 0.26595-1.787 0.32812-2.4173 0.12618zm1.9345-0.76455c0.61306-0.20889 1.3143-0.86509 1.577-1.4759 0.91491-2.1268-1.1488-4.3605-3.3393-3.6141-0.61306 0.20889-1.3142 0.8651-1.577 1.4759-0.91574 2.1286 1.147 4.3611 3.3393 3.6141z" stroke-width=".094582"/><path d="m240.34 106.23-1.0221 0.37475s-0.68138 0.22146-0.83956 0.44047c-0.15818 0.21902-0.53537 0.73006-0.57187 0.79089-0.0365 0.0608-0.22584-8e-3 -0.14601 0.36503 0.0798 0.37327-0.47454 0.85172-0.49887 0.96123-0.0243 0.10951-0.0365 0.0243-0.0243 0.30419 0.0122 0.27985-0.25552 1.5453-0.20685 1.6183 0.0487 0.073 0.0365-0.0365 0.0852 0.66921 0.0487 0.70572-0.0487 0.85172 0.15818 1.1681 0.20685 0.31635 0.21902 0.34069 0.46237 0.59621s0.4867 0.40153 0.98557 0.40153c0.49886 0 1.0586 0.12167 2.1415 0.12167s2.324 0.073 3.9058 0.0122c1.5818-0.0608 2.6768-0.0487 2.7864-0.0487 0.1095 0 0.36502 0.14601 0.82738-0.0365 0.46237-0.18252 0.49887-0.18252 0.83956-0.4137s0.73005-0.37719 0.71788-0.92473c-0.0122-0.54753 0-0.88822 0.0122-1.3749 0.0122-0.4867 0.13384-1.1194 0.1095-1.5818-0.0243-0.46237-0.0487-0.82739-0.17034-1.0586-0.12168-0.23119-0.25552-0.32124-0.4137-0.64488-0.15817-0.32364-0.0852-0.47453-0.47453-0.70572-0.38936-0.23118-0.37719-0.24335-0.85173-0.5232-0.47453-0.27985-0.51103-0.30419-0.75438-0.38936-0.24335-0.0852-0.4137-0.24335-0.63271-0.10951-0.21902 0.13384-0.32852 0.20196-0.68138 0.36258s0.0852 0.0146-0.58404 0.2823c-0.66921 0.26769-0.14448 0.29202-1.0464 0.4502s-0.073 0.35286-1.1437 0.13384c-1.0707-0.21901-1.0221-0.12167-1.2898-0.27985-0.26768-0.15818-0.79089-0.38692-1.0099-0.4867-0.21902-0.0998-0.30419-0.13385-0.36503-0.21902-0.0608-0.0852-0.30418-0.25552-0.30418-0.25552z" stop-color="#000000"/><path d="m240.55 103.08s0.75438 0.91256 0.91256 1.1924c0.15818 0.27986 0.49887 0.44361 0.82739 0.58404 0.32852 0.14044 1.0707 0.43803 1.3993 0.3772 0.32853-0.0608 1.4479-0.40153 1.4966-0.4137 0.0487-0.0122-0.13385 0.18252 0.4867-0.46236 0.62054-0.64488 0.75438-0.82739 0.92473-1.3628 0.17034-0.53538-0.26769-2.1415-0.32853-2.2753-0.0608-0.13384 0.15376-0.2388-0.27985-0.29202-0.43361-0.0532-0.87606-0.94906-0.96123-1.0342-0.0852-0.08517-1.2411-0.25552-1.2411-0.25552l-1.2532 0.08517-1.0221 0.69355s-0.76655 0.99774-0.77872 1.0464c-0.0122 0.0487-0.18251 2.1172-0.18251 2.1172z" stop-color="#000000"/></g></g></svg>
