<?xml version="1.0" encoding="UTF-8"?>
<svg width="33.952mm" height="36.181mm" version="1.1" viewBox="0 0 33.952 36.181" xml:space="preserve" xmlns="http://www.w3.org/2000/svg"><g transform="translate(-130.78 -11.493)"><g transform="matrix(2.22 0 0 2.22 -392.39 -277.13)" fill="#404852"><path d="m238.16 146.27c-0.2179-0.069-0.34342-0.17507-0.44269-0.37427-0.0991-0.19887-0.11138-0.34614-0.0474-0.56159 0.055-0.1844 0.28028-0.40951 0.46462-0.4646 0.11038-0.033 1.3495-0.0427 5.4416-0.0427 4.7118 0 5.3129-6e-3 5.4277-0.0539 0.16265-0.068 0.30735-0.20423 0.39247-0.36988 0.0641-0.12461 0.0662-0.26353 0.0662-4.295v-4.1663h-3.8389l-0.17638-0.0879c-0.19504-0.0972-0.3305-0.26585-0.38944-0.48476-0.0246-0.091-0.0374-0.7811-0.038-2.0044v-1.8655h-2.6562c-2.9031 0-2.7929-7e-3 -3.0129 0.20141-0.0544 0.0515-0.12839 0.15154-0.16487 0.22237-0.0623 0.12118-0.0662 0.22253-0.0664 1.718-2.3e-4 1.0258-0.0135 1.6385-0.038 1.7281-0.059 0.21891-0.19445 0.38759-0.38943 0.48476-0.29841 0.14868-0.60482 0.0984-0.84166-0.13813-0.22801-0.22765-0.22877-0.23555-0.21684-2.1688l0.0111-1.718 0.098-0.27733c0.21831-0.61777 0.61902-1.064 1.1904-1.3256 0.45351-0.20764 0.25917-0.19706 3.8609-0.2103 2.3771-9e-3 3.365-1e-3 3.5055 0.0272l0.19563 0.0394 2.1928 2.1922c1.9391 1.9385 2.1972 2.209 2.2307 2.3373 0.0263 0.10223 0.0351 1.5849 0.0286 5.0152l-9e-3 4.8701-0.0969 0.27385c-0.21088 0.59639-0.58084 1.0235-1.1179 1.2905-0.51805 0.25755-0.0175 0.23708-6.0217 0.24611-4.3844 7e-3 -5.4241-3.9e-4 -5.5414-0.0376zm10.609-11.83c0-5e-3 -0.50759-0.5163-1.128-1.1365l-1.128-1.1276v2.2729h1.128c0.62043 0 1.128-4e-3 1.128-9e-3z" stroke-width=".034707"/><text x="235.4406" y="142.30525" font-family="Arial" font-size="7.3829px" font-weight="bold" stop-color="#000000" stroke="#404852" stroke-linecap="round" stroke-linejoin="round" stroke-width=".6342" style="font-variant-caps:normal;font-variant-east-asian:normal;font-variant-ligatures:normal;font-variant-numeric:normal" xml:space="preserve"><tspan x="235.4406" y="142.30525" font-family="Arial" font-size="7.3829px" font-weight="bold" stroke="none" stroke-width=".6342" style="font-variant-caps:normal;font-variant-east-asian:normal;font-variant-ligatures:normal;font-variant-numeric:normal">{ }</tspan></text></g></g></svg>
