<?xml version="1.0" encoding="UTF-8" standalone="no"?>
<!-- Created with Inkscape (http://www.inkscape.org/) -->

<svg
   width="33.951828mm"
   height="36.181255mm"
   viewBox="0 0 33.951828 36.181255"
   version="1.1"
   id="svg38064"
   inkscape:version="1.2 (dc2aedaf03, 2022-05-15)"
   sodipodi:docname="all.svg"
   xml:space="preserve"
   inkscape:export-filename="all.pdf"
   inkscape:export-xdpi="96"
   inkscape:export-ydpi="96"
   xmlns:inkscape="http://www.inkscape.org/namespaces/inkscape"
   xmlns:sodipodi="http://sodipodi.sourceforge.net/DTD/sodipodi-0.dtd"
   xmlns="http://www.w3.org/2000/svg"
   xmlns:svg="http://www.w3.org/2000/svg"><sodipodi:namedview
     id="namedview38066"
     pagecolor="#ffffff"
     bordercolor="#000000"
     borderopacity="0.25"
     inkscape:showpageshadow="2"
     inkscape:pageopacity="0.0"
     inkscape:pagecheckerboard="0"
     inkscape:deskcolor="#d1d1d1"
     inkscape:document-units="mm"
     showgrid="false"
     inkscape:zoom="0.73940798"
     inkscape:cx="510.54358"
     inkscape:cy="478.08518"
     inkscape:window-width="1920"
     inkscape:window-height="991"
     inkscape:window-x="-9"
     inkscape:window-y="-9"
     inkscape:window-maximized="1"
     inkscape:current-layer="layer1" /><defs
     id="defs38061" /><g
     inkscape:label="Layer 1"
     inkscape:groupmode="layer"
     id="layer1"
     transform="translate(-130.77876,-11.493454)"><g
       id="g40586"
       transform="matrix(2.2200245,0,0,2.2200245,-392.38531,-277.13114)"><path
         style="fill:#404852;fill-opacity:1;stroke-width:0.0347073"
         d="m 238.16131,146.26744 c -0.2179,-0.069 -0.34342,-0.17507 -0.44269,-0.37427 -0.0991,-0.19887 -0.11138,-0.34614 -0.0474,-0.56159 0.055,-0.1844 0.28028,-0.40951 0.46462,-0.4646 0.11038,-0.033 1.34953,-0.0427 5.44159,-0.0427 4.71177,0 5.3129,-0.006 5.42767,-0.0539 0.16265,-0.068 0.30735,-0.20423 0.39247,-0.36988 0.0641,-0.12461 0.0662,-0.26353 0.0662,-4.29504 v -4.16627 h -1.91945 -1.91945 l -0.17638,-0.0879 c -0.19504,-0.0972 -0.3305,-0.26585 -0.38944,-0.48476 -0.0246,-0.091 -0.0374,-0.7811 -0.038,-2.00436 v -1.86551 h -2.65622 c -2.90306,0 -2.79291,-0.007 -3.01291,0.20141 -0.0544,0.0515 -0.12839,0.15154 -0.16487,0.22237 -0.0623,0.12118 -0.0662,0.22253 -0.0664,1.71801 -2.3e-4,1.02585 -0.0135,1.63847 -0.038,1.72808 -0.059,0.21891 -0.19445,0.38759 -0.38943,0.48476 -0.29841,0.14868 -0.60482,0.0984 -0.84166,-0.13813 -0.22801,-0.22765 -0.22877,-0.23555 -0.21684,-2.16876 l 0.0111,-1.71802 0.098,-0.27733 c 0.21831,-0.61777 0.61902,-1.06404 1.1904,-1.32559 0.45351,-0.20764 0.25917,-0.19706 3.86094,-0.2103 2.37711,-0.009 3.36504,-0.001 3.50547,0.0272 l 0.19563,0.0394 2.19277,2.19216 c 1.93909,1.93852 2.19721,2.20895 2.23066,2.3373 0.0263,0.10223 0.0351,1.58493 0.0286,5.01521 l -0.009,4.87007 -0.0969,0.27385 c -0.21088,0.59639 -0.58084,1.02347 -1.1179,1.2905 -0.51805,0.25755 -0.0175,0.23708 -6.02173,0.24611 -4.38443,0.007 -5.42411,-3.9e-4 -5.54139,-0.0376 z M 248.77,134.43791 c 0,-0.005 -0.50759,-0.5163 -1.12802,-1.13647 l -1.12796,-1.12759 v 1.13647 1.13646 h 1.12796 c 0.62043,0 1.12802,-0.004 1.12802,-0.009 z"
         id="path1650"
         sodipodi:nodetypes="cscssccscccscccsscccssccsscccsccccsccccccccscc" /><text
         xml:space="preserve"
         style="font-style:normal;font-variant:normal;font-weight:bold;font-stretch:normal;font-size:7.38286px;font-family:Arial;-inkscape-font-specification:'Arial, Bold';font-variant-ligatures:normal;font-variant-caps:normal;font-variant-numeric:normal;font-variant-east-asian:normal;fill:#404852;fill-opacity:1;stroke:#404852;stroke-width:0.634195;stroke-linecap:round;stroke-linejoin:round;stroke-dasharray:none;stroke-dashoffset:0;stroke-opacity:1;stop-color:#000000"
         x="235.4406"
         y="142.30525"
         id="text10242"><tspan
           sodipodi:role="line"
           id="tspan10239"
           style="font-style:normal;font-variant:normal;font-weight:bold;font-stretch:normal;font-size:7.38286px;font-family:Arial;-inkscape-font-specification:'Arial, Bold';font-variant-ligatures:normal;font-variant-caps:normal;font-variant-numeric:normal;font-variant-east-asian:normal;stroke:none;stroke-width:0.634195"
           x="235.4406"
           y="142.30525">{ }</tspan></text></g></g></svg>
