<?xml version="1.0" encoding="UTF-8"?>
<svg width="39.688mm" height="39.686mm" version="1.1" viewBox="0 0 39.688 39.686" xml:space="preserve" xmlns="http://www.w3.org/2000/svg"><g transform="translate(-7.1079 -133.72)"><g transform="matrix(5.1729 0 0 5.1729 -3200.3 -71.188)"><path d="m623.3 47.252c-0.7569-0.10906-1.5149-0.48269-2.0799-1.025-0.762-0.73155-1.1481-1.5856-1.1893-2.6306-0.029-0.73732 0.092-1.2739 0.4386-1.945 0.4972-0.96267 1.413-1.6788 2.4901-1.9472 0.3566-0.0889 1.112-0.12211 1.4694-0.0646 1.5495 0.24916 2.7656 1.3489 3.162 2.8593 0.1152 0.43888 0.1419 1.1131 0.062 1.5792-0.2777 1.6312-1.551 2.8948-3.1841 3.1596-0.3349 0.0543-0.8485 0.0606-1.1694 0.0143zm0.445-0.26179c0-0.0372 0.023-0.11239 0.051-0.16715 0.042-0.0815 0.06-0.0924 0.099-0.06 0.026 0.0217 0.057 0.0976 0.068 0.16844 0.012 0.073 0.037 0.1236 0.057 0.11675 0.066-0.0217 0.06-0.15535-0.013-0.27863-0.068-0.11472-0.068-0.1228-0.013-0.16349 0.032-0.0236 0.072-0.0428 0.087-0.0428 0.051 0 0.1708 0.0721 0.2657 0.16062 0.078 0.0731 0.123 0.0866 0.2857 0.0866 0.1061 0 0.2042-0.0113 0.218-0.0251 0.014-0.0138 1e-4 -0.0777-0.03-0.14193-0.1065-0.22333-0.4453-0.27199-0.8004-0.11492-0.149 0.0659-0.1627 0.0667-0.2708 0.0153-0.063-0.0298-0.2065-0.0699-0.3196-0.0893-0.2738-0.0469-0.4277 8e-3 -0.5194 0.18449-0.036 0.0687-0.056 0.13383-0.045 0.1447 0.011 0.0109 0.092 0.0267 0.1799 0.0351 0.1763 0.017 0.3429-0.0469 0.3999-0.15333 0.043-0.0797 0.1715-0.11141 0.2821-0.0694l0.087 0.0331-0.066 0.0839c-0.073 0.093-0.1199 0.25854-0.088 0.31075 0.035 0.0569 0.083 0.0375 0.083-0.0338zm-1.0075-0.40219c0.117-0.10309 0.1258-0.22707 0.019-0.25807-0.1849-0.0534-0.3543-0.0332-0.459 0.0549-0.056 0.047-0.1014 0.10628-0.1014 0.13187 0 0.0256 0.01 0.0467 0.01 0.047 0.01 2e-4 0.068 0.0219 0.1401 0.048 0.1881 0.0678 0.2973 0.0612 0.3936-0.0238zm2.7042 3e-3c0.1068-0.0487 0.1053-0.0955-0.01-0.20809-0.084-0.0846-0.1048-0.0896-0.2997-0.074-0.115 9e-3 -0.2239 0.0315-0.2418 0.0495-0.046 0.0457 0.056 0.23338 0.1476 0.27217 0.083 0.0353 0.2792 0.0159 0.4011-0.0396zm-3.2511-0.34892 0.077-0.0854-0.077-0.0583c-0.1301-0.0982-0.3414-0.14307-0.4539-0.0964-0.053 0.0221-0.1064 0.0647-0.1179 0.0946-0.039 0.10238 0.2738 0.28238 0.4282 0.24625 0.036-9e-3 0.1009-0.0538 0.1435-0.1008zm1.2799 4e-3c-0.03-0.18234-0.1254-0.26754-0.3697-0.32889-0.077-0.0193-0.081-0.0129-0.081 0.12586 0 0.20685 0.1204 0.31433 0.3587 0.31989 0.11 2e-3 0.1112 1e-3 0.092-0.11686zm1.1255 0.0372c0.105-0.0883 0.153-0.21414 0.1206-0.31615-0.016-0.0495-0.039-0.0586-0.1085-0.042-0.2233 0.0535-0.3686 0.20044-0.3686 0.37291 0 0.10355 0.227 0.0942 0.3565-0.0148zm1.3413 8e-3c0.1016-0.0503 0.1813-0.1286 0.1813-0.17816 0-0.0247-0.052-0.0696-0.1153-0.0998-0.1078-0.0514-0.1268-0.0513-0.2932 1e-3 -0.2245 0.0708-0.2665 0.11687-0.197 0.21615 0.091 0.13044 0.2403 0.15178 0.4242 0.0608zm-3.0494-0.12701c0-0.11373-0.021-0.1565-0.128-0.26373-0.1848-0.18481-0.3006-0.16495-0.3006 0.0516 0 0.10019 0.1186 0.24624 0.2445 0.30103 0.1623 0.0707 0.1841 0.0602 0.1841-0.0889zm2.1218 0.0903c0.1984-0.0829 0.3094-0.30679 0.2213-0.44605-0.042-0.065-0.2077 6e-3 -0.3164 0.13569-0.078 0.0926-0.1118 0.28183-0.06 0.33383 0.029 0.0291 0.029 0.0291 0.1548-0.0234zm-2.6773-0.2994c0.032-0.11989-0.031-0.26789-0.1682-0.39688-0.1024-0.0961-0.1067-0.0971-0.1524-0.0349-0.09 0.12281-0.059 0.2776 0.084 0.42092 0.1461 0.14606 0.1998 0.14852 0.2366 0.0109zm3.2955-0.0139c0.1398-0.13977 0.1705-0.29585 0.082-0.41691-0.044-0.0602-0.052-0.057-0.1812 0.0722-0.1355 0.13547-0.1727 0.271-0.1153 0.42051 0.03 0.0796 0.075 0.0639 0.2146-0.0758zm-3.9401-0.10627c0.032-0.0346 0.051-0.0681 0.043-0.0745-0.2871-0.2477-0.4917-0.313-0.6013-0.19191-0.051 0.0561-0.046 0.0673 0.072 0.18272 0.1897 0.18521 0.3666 0.2157 0.4861 0.0837zm4.844-0.0966c0.1231-0.12616 0.1252-0.13191 0.063-0.17891-0.1304-0.0986-0.2947-0.0586-0.5085 0.12364-0.1031 0.0879-0.1052 0.0946-0.051 0.15474 0.1204 0.13303 0.3054 0.096 0.4962-0.0995zm-4.6851-0.17323c0.033-0.13069-0.036-0.33561-0.1448-0.43475-0.051-0.0457-0.061-0.045-0.1069 7e-3 -0.1205 0.1372-0.097 0.30843 0.065 0.47879 0.1078 0.11305 0.1476 0.1021 0.1862-0.0513zm4.2745-0.0151c0.1114-0.17437 0.1111-0.30474 0-0.41689-0.062-0.0617-0.064-0.06-0.164 0.097-0.109 0.17183-0.1232 0.26045-0.063 0.39251 0.056 0.12263 0.1155 0.10368 0.2281-0.0726zm-4.8818-0.22236c0.033-0.0397 0.031-0.0638-0.011-0.12362-0.179-0.25487-0.3455-0.34326-0.4829-0.25639-0.043 0.0272-0.042 0.0464 0.015 0.15047 0.1278 0.23741 0.3748 0.35563 0.4794 0.22954zm5.5481-0.0172c0.1132-0.089 0.232-0.28612 0.2089-0.34643-0.036-0.0924-0.2093-0.0568-0.352 0.0722-0.074 0.0664-0.1488 0.14896-0.1672 0.18341-0.079 0.14671 0.1531 0.21452 0.3103 0.0908zm-5.3685-0.13865c0.066-0.0942 0.065-0.25307 0-0.42055-0.06-0.14923-0.1169-0.16688-0.1924-0.0593-0.07 0.10042-0.064 0.26646 0.015 0.42253 0.076 0.14976 0.1071 0.15959 0.1788 0.0573zm5.0674-0.0598c0.1073-0.19988 0.055-0.49325-0.088-0.49325-0.051 0-0.1477 0.25083-0.1477 0.38111 0 0.10997 0.086 0.25508 0.1402 0.23696 0.019-6e-3 0.062-0.0626 0.096-0.12482zm0.6826-0.56652c0.093-0.19245 0.1025-0.29988 0.027-0.31546-0.1239-0.0257-0.3517 0.21569-0.4032 0.42726-0.018 0.0745-0.01 0.0899 0.055 0.1006 0.1241 0.0203 0.2466-0.061 0.3199-0.2124zm-6.2415 0.17042c0.012-0.0191-0.019-0.1165-0.067-0.21647-0.096-0.19521-0.2568-0.31166-0.3539-0.2556-0.044 0.0257-0.044 0.0457 0 0.18592 0.066 0.20557 0.1742 0.32086 0.3008 0.32086 0.054 0 0.1082-0.0156 0.12-0.0347zm0.1293-0.0517c0.097-0.0372 0.1581-0.20511 0.1338-0.36718-0.04-0.26845-0.068-0.28998-0.1998-0.15777-0.091 0.0906-0.1033 0.21555-0.043 0.41799 0.021 0.0701 0.042 0.12744 0.047 0.12744 0.01 0 0.033-9e-3 0.062-0.0205zm5.7193-0.10315c0.057-0.20528 0.043-0.33251-0.046-0.4218-0.044-0.0445-0.095-0.0809-0.112-0.0809-0.046 0-0.1142 0.31652-0.09 0.41349 0.022 0.0874 0.1293 0.21286 0.1823 0.21286 0.018 0 0.047-0.0556 0.066-0.12363zm-6.0454-0.59338c-0.039-0.22303-0.088-0.33585-0.1737-0.40331-0.1246-0.098-0.1745-0.0852-0.1745 0.0448 0 0.28413 0.1159 0.48213 0.2823 0.48213 0.083 0 0.087-6e-3 0.066-0.12363zm6.4659 0.0741c0.1266-0.0887 0.2095-0.51544 0.1043-0.53645-0.097-0.0193-0.226 0.13068-0.2765 0.32228-0.026 0.0997-0.048 0.19986-0.049 0.22252-5e-4 0.0569 0.1347 0.0517 0.2205-8e-3zm-6.2557-0.0411c0.085-0.0687 0.1399-0.27882 0.1127-0.42955-0.016-0.0914-0.03-0.10499-0.09-0.0878-0.1303 0.0377-0.1857 0.13987-0.1857 0.34243 0 0.24764 0.032 0.28137 0.1628 0.17492zm6.0017-0.14925c0-0.23314-0.052-0.33677-0.1803-0.36136-0.082-0.0157-0.083-0.0129-0.083 0.19526 0 0.18029 0.012 0.22305 0.081 0.29213 0.1395 0.13944 0.1828 0.10954 0.1828-0.12603zm-6.2686-0.6967c-0.013-0.26-0.076-0.38202-0.1978-0.38202-0.053 0-0.061 0.0283-0.061 0.22631 0 0.25001 0.076 0.40004 0.2038 0.40004 0.063 0 0.066-0.0164 0.055-0.24433zm0.26 0.17015c0.067-0.0722 0.1402-0.27913 0.1405-0.39558 3e-4 -0.0871-0.1395-0.0722-0.2303 0.0244-0.055 0.0592-0.081 0.1328-0.092 0.26372-0.014 0.16317-0.01 0.18157 0.049 0.18157 0.036 0 0.095-0.0334 0.1328-0.0742zm6.0623-0.0288c-0.011-0.0566-0.021-0.1297-0.021-0.16231 0-0.094-0.1604-0.26213-0.2502-0.26213-0.091 0-0.098 0.0446-0.043 0.24724 0.045 0.16567 0.1489 0.28022 0.2538 0.28022 0.073 0 0.079-0.01 0.06-0.10302zm0.2407 0.0161c0.054-0.0686 0.068-0.13416 0.068-0.31122 0-0.12341-0.014-0.23288-0.03-0.24328-0.017-0.0104-0.072 0.0168-0.1228 0.0604-0.083 0.0715-0.093 0.1041-0.1049 0.33013-0.012 0.23447-0.01 0.2508 0.054 0.2508 0.037 0 0.098-0.0391 0.1354-0.0869zm-6.4354-0.8816c0.016-0.21368 0.01-0.26196-0.04-0.31756-0.085-0.0938-0.1026-0.084-0.1614 0.0887-0.077 0.22739-0.068 0.36066 0.032 0.46119 0.1152 0.11516 0.1462 0.0725 0.1693-0.23228zm0.2497 0.25086c0.029-0.0321 0.083-0.12477 0.1193-0.20603 0.066-0.14682 0.066-0.14795 0-0.17764-0.1026-0.0472-0.2249 0.0298-0.2961 0.18651-0.091 0.20046-0.085 0.25545 0.029 0.25545 0.052 0 0.1175-0.0263 0.1465-0.0583zm5.8584-9e-3c0-0.10009-0.1222-0.32086-0.2009-0.363-0.038-0.0203-0.1041-0.0281-0.147-0.0172l-0.078 0.0196 0.067 0.15628c0.089 0.20681 0.152 0.27167 0.2652 0.27167 0.072 0 0.094-0.0154 0.094-0.0673zm0.2124-0.039c0.061-0.0867 0.065-0.20607 0.014-0.40718-0.046-0.18407-0.088-0.21101-0.1699-0.10993-0.054 0.0663-0.062 0.11538-0.049 0.29743 0.01 0.11992 0.026 0.23489 0.039 0.25549 0.037 0.0595 0.1101 0.0437 0.1658-0.0358zm-5.8273-0.56619c0.051-0.0434 0.1195-0.12433 0.1517-0.17967 0.057-0.0975 0.057-0.10169-0.01-0.13524-0.093-0.0499-0.1182-0.0444-0.2325 0.0517-0.1153 0.097-0.212 0.26176-0.1821 0.31023 0.036 0.0577 0.1739 0.0336 0.2689-0.047zm5.4071 0.0274c0.016-0.0493-0.1206-0.24228-0.228-0.32186-0.076-0.0562-0.1029-0.0605-0.1749-0.0276l-0.085 0.0388 0.06 0.10215c0.089 0.15329 0.2366 0.26535 0.3335 0.25376 0.046-5e-3 0.089-0.0258 0.095-0.0452zm-5.6684-0.17082c0.097-0.22962 0.1121-0.3241 0.069-0.41842-0.055-0.12053-0.1048-0.10474-0.1867 0.0591-0.1059 0.21207-0.1226 0.33558-0.059 0.43313 0.03 0.0455 0.067 0.0828 0.082 0.0828s0.058-0.0705 0.094-0.15658zm5.8249 0.0833c0.028-0.0403 0.051-0.11075 0.051-0.15658 0-0.0779-0.085-0.28725-0.1594-0.39438-0.054-0.0789-0.1366 0.0186-0.1366 0.16235 0 0.12848 0.1208 0.46188 0.1674 0.46188 0.015 0 0.05-0.033 0.078-0.0733zm-5.283-0.41983c0.042-0.0174 0.1276-0.0752 0.1903-0.12841 0.099-0.0836 0.1081-0.10405 0.07-0.14973-0.078-0.0939-0.2238-0.0644-0.3738 0.0754-0.1192 0.11115-0.1317 0.1354-0.094 0.18131 0.051 0.0609 0.099 0.0659 0.2069 0.0214zm4.7768-0.0214c0.038-0.0459 0.026-0.0702-0.094-0.18131-0.1454-0.13563-0.2954-0.16971-0.3671-0.0834-0.029 0.0354-0.01 0.074 0.1106 0.18131 0.1575 0.14516 0.2755 0.17326 0.3501 0.0834zm-4.8463-0.36819c0.08-0.16161 0.065-0.3156-0.029-0.2977-0.076 0.0144-0.2707 0.3105-0.2707 0.41159 0 0.0445 0.016 0.11153 0.036 0.14901 0.036 0.0668 0.038 0.0662 0.1146-0.0269 0.043-0.0523 0.1097-0.15847 0.1482-0.236zm5.0082 0.12301c0-0.0909-0.03-0.16436-0.1087-0.26777-0.2651-0.34759-0.3398-0.0394-0.079 0.32656 0.1175 0.16496 0.1878 0.14295 0.1878-0.0588zm-4.2938-0.25414c0.1254-0.0656 0.1286-0.0774 0.042-0.15565-0.083-0.0752-0.2334-0.0489-0.3861 0.0675-0.1162 0.0886-0.1158 0.13323 0 0.17699 0.074 0.0278 0.1646 4e-3 0.3427-0.0889zm3.6688 0.0633 0.075-0.0604-0.1121-0.0854c-0.1562-0.1188-0.2751-0.14311-0.3762-0.0769-0.045 0.0296-0.082 0.0649-0.082 0.0785 0 0.0353 0.3076 0.19055 0.4002 0.20199 0.012 1e-3 0.055-0.0245 0.096-0.0578zm-3.9594-0.2671c0.1248-0.12164 0.167-0.1868 0.167-0.25823 0-0.0526-0.01-0.10485-0.021-0.11622-0.035-0.0351-0.306 0.17211-0.359 0.27468-0.05 0.0953-0.037 0.26246 0.019 0.26246 0.015 0 0.1024-0.0732 0.1943-0.16269zm4.1085 0.0838c0.028-0.11125-0.062-0.26745-0.2217-0.3827-0.1455-0.10543-0.1926-0.10292-0.1922 0.0102 1e-4 0.0932 0.1014 0.2461 0.238 0.35979 0.1329 0.11062 0.151 0.11192 0.1759 0.0127zm-3.3621-0.12298c0.1803-0.0454 0.2003-0.0734 0.1141-0.15957-0.081-0.0813-0.2298-0.0867-0.3737-0.0135-0.1422 0.0723-0.1406 0.069-0.073 0.14395 0.069 0.0758 0.1267 0.0809 0.3324 0.0291zm2.6998-8e-3c0.092-0.0671 0.042-0.13767-0.1312-0.18616-0.1859-0.052-0.3245-0.0163-0.3395 0.0877-0.01 0.0562 0.015 0.0763 0.1154 0.10307 0.1802 0.0478 0.2855 0.0464 0.3553-5e-3zm-2.893-0.25232c0.1704-0.0978 0.2401-0.17834 0.2401-0.27773 0-0.0722-0.093-0.0643-0.2646 0.0226-0.1574 0.0795-0.2539 0.21112-0.2199 0.29977 0.028 0.073 0.044 0.07 0.2444-0.0445zm3.0037 0.0207c0.017-0.0871-0.081-0.21031-0.2243-0.28368-0.372-0.18975-0.3438 0.0675 0.032 0.29279 0.1285 0.077 0.1759 0.0748 0.1922-9e-3zm-2.3143-0.0836c0.1766-0.0802 0.2027-0.12647 0.095-0.16759-0.1407-0.0535-0.2959-0.038-0.4128 0.0413-0.1374 0.0931-0.1565 0.14734-0.059 0.16603 0.1559 0.0298 0.2445 0.0204 0.3769-0.0397zm1.8227 0.0109c0.01-0.0105-0.029-0.0623-0.089-0.11524-0.084-0.0749-0.1386-0.0959-0.2472-0.095-0.1787 2e-3 -0.3129 0.0689-0.2467 0.12389 0.1086 0.0901 0.2759 0.13919 0.4176 0.12254 0.08-9e-3 0.1544-0.0257 0.1648-0.0362z" fill="#ce990c" stroke-width=".032966"/><path d="m625.06 40.234c-0.1314 3e-3 -0.045 0.18979 0.2369 0.35876 0.1285 0.077 0.176 0.0747 0.1922-9e-3 0.017-0.0871-0.081-0.21026-0.2244-0.28362-0.093-0.0474-0.1609-0.067-0.2047-0.066zm-2.3866 2e-3c-0.044-1e-3 -0.1158 0.0225-0.2125 0.0714-0.1573 0.0795-0.2539 0.21113-0.2199 0.29978 0.028 0.073 0.044 0.07 0.2444-0.0446 0.1705-0.0978 0.2401-0.17831 0.2401-0.2777 0-0.0316-0.017-0.0478-0.052-0.0489zm1.9883 0.0643c-0.1786 2e-3 -0.3129 0.0689-0.2466 0.12388 0.1085 0.0901 0.2759 0.13918 0.4176 0.12253 0.08-9e-3 0.1544-0.0257 0.1648-0.0362 0.01-0.0105-0.029-0.0623-0.089-0.11519-0.084-0.0749-0.1386-0.0959-0.2473-0.095zm-1.5539 5.1e-4c-0.09-2e-3 -0.1781 0.023-0.2512 0.0726-0.1374 0.0931-0.1566 0.14737-0.059 0.16606 0.1559 0.0298 0.2445 0.0204 0.377-0.0398 0.1766-0.0802 0.2027-0.12647 0.095-0.16761-0.053-0.0201-0.1075-0.0303-0.1616-0.0313zm-1.0385 0.18267c-0.059-6e-3 -0.3001 0.18236-0.3499 0.27853-0.049 0.0953-0.037 0.26244 0.019 0.26244 0.015 0 0.1024-0.0732 0.1942-0.1627 0.1249-0.12164 0.167-0.18676 0.167-0.25819 0-0.0526-0.01-0.10485-0.021-0.11622 0-2e-3 -0.01-3e-3 -0.01-4e-3zm3.5988 2e-3c-0.03 2e-3 -0.042 0.0305-0.042 0.0871 2e-4 0.0932 0.1015 0.2461 0.2381 0.35979 0.1329 0.11062 0.151 0.11193 0.1759 0.0127 0.028-0.11126-0.063-0.26747-0.2217-0.38271-0.073-0.0527-0.1209-0.0784-0.1509-0.0768zm-3.0388 0.11228c-0.065-2e-3 -0.1384 0.0146-0.2103 0.0512-0.1422 0.0723-0.1406 0.069-0.073 0.14397 0.069 0.0758 0.1266 0.0809 0.3323 0.0291 0.1803-0.0454 0.2004-0.0734 0.1141-0.15955-0.041-0.0407-0.098-0.0624-0.1634-0.0647zm2.4598 7e-3c-0.1023 5.9e-4 -0.1711 0.0399-0.1814 0.1114-0.01 0.0562 0.015 0.0763 0.1154 0.10308 0.1802 0.0478 0.2855 0.0464 0.3553-5e-3 0.092-0.0671 0.042-0.13765-0.1312-0.18614-0.058-0.0163-0.1116-0.024-0.1581-0.0237zm-2.9426 0.26238c-0.078-4.1e-4 -0.1722 0.0372-0.2677 0.10997-0.1161 0.0887-0.1158 0.13324 0 0.177 0.074 0.0278 0.1647 4e-3 0.3428-0.0889 0.1253-0.0656 0.1286-0.0774 0.042-0.15562-0.031-0.0282-0.072-0.0422-0.1184-0.0424zm3.4537 3e-3c-0.044-1e-3 -0.084 0.0112-0.1222 0.0361-0.045 0.0296-0.082 0.065-0.082 0.0786 0 0.0353 0.3077 0.19054 0.4002 0.20197 0.012 1e-3 0.055-0.0245 0.096-0.0578l0.075-0.0605-0.1121-0.0853c-0.098-0.0743-0.1807-0.1116-0.254-0.113zm-4.1035 0.0275c-0.01-1e-4 -0.011 2.1e-4 -0.017 1e-3 -0.076 0.0144-0.2708 0.31053-0.2708 0.41162 0 0.0445 0.016 0.11151 0.037 0.14899 0.036 0.0668 0.038 0.0662 0.1146-0.0269 0.043-0.0523 0.1097-0.15845 0.1482-0.23598 0.075-0.15151 0.067-0.29631-0.012-0.29907zm4.7229 2e-3c-0.091 3e-3 -0.07 0.22694 0.1092 0.47852 0.1175 0.16496 0.1877 0.14295 0.1877-0.0588 0-0.0909-0.03-0.16437-0.1086-0.26779-0.083-0.10861-0.1471-0.15317-0.1883-0.15195zm-0.2163 0.35289c-0.044-5e-4 -0.082 0.015-0.1093 0.0473-0.029 0.0354-0.01 0.074 0.1106 0.18131 0.1575 0.14516 0.2755 0.17329 0.3501 0.0834 0.038-0.0459 0.026-0.0702-0.094-0.18131-0.091-0.0848-0.1835-0.12988-0.2578-0.13071zm-4.2779 1e-3c-0.075-2e-3 -0.1671 0.0422-0.2608 0.12968-0.1192 0.11115-0.1316 0.13541-0.093 0.18131 0.051 0.0609 0.099 0.066 0.2068 0.0214 0.042-0.0174 0.1277-0.0752 0.1904-0.12845 0.098-0.0836 0.108-0.10402 0.07-0.1497-0.029-0.0353-0.068-0.0531-0.113-0.0543zm-0.6926 0.17153c-0.033 5.1e-4 -0.068 0.0459-0.1143 0.13805-0.106 0.21207-0.1228 0.33557-0.059 0.43312 0.03 0.0455 0.067 0.0828 0.082 0.0828s0.058-0.0705 0.094-0.15658c0.097-0.22962 0.112-0.32413 0.069-0.41845-0.024-0.0527-0.047-0.0794-0.072-0.0789zm5.675 2e-3c-0.046 1e-3 -0.092 0.0827-0.092 0.19053 0 0.12848 0.1209 0.46183 0.1674 0.46183 0.015 0 0.05-0.033 0.078-0.0733s0.052-0.11075 0.051-0.15658c0-0.078-0.085-0.28725-0.1594-0.39437-0.014-0.0197-0.029-0.0284-0.044-0.0281zm-5.3492 0.29341c-0.04-2e-3 -0.077 0.0226-0.1482 0.0827-0.1153 0.0971-0.2119 0.26176-0.182 0.31021 0.036 0.0577 0.1739 0.0336 0.2689-0.0471 0.051-0.0435 0.1195-0.1243 0.1517-0.17963 0.057-0.0976 0.057-0.10167-0.01-0.13522-0.035-0.0187-0.06-0.0297-0.084-0.031zm5.0099 3e-3c-0.019 1e-3 -0.04 8e-3 -0.067 0.0205l-0.085 0.0389 0.06 0.10212c0.089 0.15329 0.2366 0.26535 0.3335 0.25375 0.046-5e-3 0.089-0.0258 0.095-0.0452 0.016-0.0493-0.1206-0.24229-0.228-0.32186-0.047-0.0351-0.076-0.05-0.1079-0.0482zm-5.6866 0.32973c-0.026 5e-3 -0.047 0.0502-0.08 0.14731-0.077 0.22739-0.068 0.36067 0.032 0.46121 0.1152 0.11515 0.1462 0.0726 0.1692-0.23225 0.016-0.21367 0.01-0.26201-0.04-0.31762-0.037-0.041-0.061-0.0622-0.082-0.0587zm6.3647 4e-3c-0.022 4.1e-4 -0.047 0.0203-0.078 0.0582-0.054 0.0663-0.062 0.11533-0.049 0.2974 0.01 0.11991 0.026 0.23488 0.039 0.25548 0.037 0.0595 0.11 0.0437 0.1657-0.0358 0.061-0.0867 0.065-0.20607 0.015-0.40718-0.029-0.11504-0.056-0.16872-0.092-0.16812zm-5.9313 0.2258c-0.087-2e-3 -0.179 0.073-0.2368 0.20031-0.091 0.20046-0.085 0.25542 0.029 0.25542 0.051 0 0.1175-0.0262 0.1465-0.0583 0.029-0.032 0.083-0.12476 0.1193-0.20603 0.066-0.14682 0.066-0.14794 0-0.17764-0.019-9e-3 -0.039-0.0134-0.059-0.0138zm5.4847 3e-3c-0.013 5.1e-4 -0.025 2e-3 -0.036 5e-3l-0.078 0.0195 0.067 0.15633c0.089 0.20681 0.152 0.27165 0.2653 0.27165 0.072 0 0.094-0.0153 0.094-0.0672 0-0.10009-0.1223-0.32086-0.201-0.363-0.029-0.0152-0.073-0.0234-0.1112-0.022zm0.6692 0.46802c-0.023-1e-3 -0.07 0.0244-0.1148 0.0626-0.083 0.0715-0.093 0.10415-0.1049 0.33018-0.012 0.23448-0.01 0.25079 0.054 0.25079 0.037 0 0.098-0.0391 0.1354-0.0869 0.054-0.0686 0.068-0.13417 0.068-0.31124 0-0.12341-0.013-0.23286-0.03-0.24326 0-1e-3 -0.01-2e-3 -0.01-2e-3zm-6.7905 0.0172c-0.053 0-0.061 0.0283-0.061 0.22632 0 0.25001 0.076 0.40004 0.2038 0.40004 0.063 0 0.066-0.0165 0.055-0.24435-0.013-0.26-0.076-0.38201-0.1978-0.38201zm6.2493 0.0989c-0.091 0-0.099 0.0446-0.043 0.24724 0.045 0.16566 0.149 0.28022 0.2539 0.28022 0.073 0 0.079-0.0101 0.06-0.10303-0.011-0.0567-0.021-0.1297-0.021-0.16231 0-0.094-0.1605-0.26212-0.2502-0.26212zm-5.7152 2.1e-4c-0.048-1e-3 -0.115 0.0275-0.1661 0.0819-0.055 0.0592-0.081 0.1328-0.092 0.26372-0.013 0.16318-0.01 0.18157 0.049 0.18157 0.036 0 0.095-0.0334 0.1328-0.0742 0.067-0.0722 0.1403-0.27913 0.1406-0.39559 1e-4 -0.0381-0.027-0.0566-0.064-0.0574zm-0.01 0.6051c-0.01-2.1e-4 -0.022 2e-3 -0.037 6e-3 -0.1302 0.0377-0.1857 0.13985-0.1857 0.34241 0 0.24764 0.032 0.28139 0.1628 0.17494 0.085-0.0687 0.14-0.27879 0.1128-0.42952-0.012-0.0686-0.023-0.0933-0.053-0.0942zm5.7141 8e-3c-0.035 4e-3 -0.036 0.0445-0.036 0.20062 0 0.18029 0.012 0.22305 0.081 0.29212 0.1395 0.13945 0.1828 0.10956 0.1828-0.126 0-0.23314-0.052-0.33674-0.1803-0.36133-0.02-4e-3 -0.036-7e-3 -0.048-5e-3zm-6.2803 0.0152c-0.036 1e-4 -0.052 0.0362-0.052 0.10926 0 0.28414 0.116 0.48213 0.2823 0.48213 0.083 0 0.087-6e-3 0.066-0.12362-0.039-0.22303-0.088-0.33586-0.1737-0.40332-0.054-0.0429-0.095-0.0645-0.1227-0.0644zm6.848 3e-3c-0.094 1e-3 -0.2106 0.14429-0.258 0.32392-0.026 0.0997-0.048 0.19986-0.049 0.22253-5e-4 0.0569 0.1347 0.0517 0.2205-8e-3 0.1266-0.0887 0.2096-0.5154 0.1043-0.53641-0.01-1e-3 -0.012-2e-3 -0.019-2e-3zm-0.6645 0.55468c-0.046 0-0.1141 0.31652-0.09 0.4135 0.022 0.0874 0.1294 0.21285 0.1824 0.21285 0.017 0 0.047-0.0556 0.066-0.12362 0.057-0.20529 0.043-0.3325-0.046-0.42179-0.044-0.0445-0.095-0.0809-0.1122-0.0809zm-5.5162 2e-3c-0.026 1e-3 -0.061 0.0294-0.1108 0.079-0.091 0.0906-0.1033 0.21556-0.043 0.418 0.021 0.0701 0.042 0.12742 0.047 0.12742 0.01 0 0.033-9e-3 0.062-0.0205 0.097-0.0372 0.1581-0.20512 0.1337-0.3672-0.025-0.16777-0.045-0.23912-0.089-0.23675zm6.0706 0.16799c-0.1273 6e-3 -0.3305 0.23072-0.3787 0.42907-0.018 0.0745-0.01 0.0899 0.055 0.10057 0.1241 0.0203 0.2467-0.061 0.3199-0.21241 0.093-0.19245 0.1025-0.29985 0.028-0.31543-0.01-2e-3 -0.016-2e-3 -0.025-2e-3zm-6.6056 2e-3c-0.022-1e-3 -0.042 4e-3 -0.06 0.014-0.044 0.0257-0.044 0.0457 0 0.18595 0.066 0.20556 0.1743 0.32084 0.3008 0.32084 0.054 0 0.1082-0.0156 0.12-0.0347 0.012-0.0191-0.019-0.11649-0.067-0.21646-0.078-0.15861-0.1986-0.26526-0.2934-0.26959zm5.8315 0.38889c-0.051 0-0.1477 0.25083-0.1477 0.38111 0 0.10997 0.086 0.25505 0.1403 0.23694 0.019-6e-3 0.062-0.0626 0.096-0.12478 0.1072-0.19987 0.055-0.49327-0.088-0.49327zm-5.0829 5e-3c-0.028-1e-3 -0.057 0.0217-0.09 0.0688-0.07 0.10042-0.064 0.26643 0.015 0.4225 0.076 0.14977 0.1071 0.15962 0.1788 0.0573 0.066-0.0942 0.065-0.25309 0-0.42057-0.034-0.0839-0.066-0.1262-0.1021-0.128zm5.5918 0.28903c-0.072-5.8e-4 -0.1734 0.0433-0.2626 0.12394-0.073 0.0664-0.1488 0.14898-0.1672 0.18344-0.079 0.1467 0.1531 0.21451 0.3104 0.0908 0.1131-0.089 0.2319-0.28616 0.2088-0.34647-0.013-0.0347-0.046-0.0513-0.089-0.0517zm-6.0536 3e-3c-0.038-5e-5 -0.074 0.0107-0.1082 0.0324-0.043 0.0272-0.042 0.0464 0.015 0.15048 0.1279 0.2374 0.3748 0.35568 0.4795 0.22959 0.033-0.0397 0.031-0.0638-0.011-0.12362-0.1342-0.19115-0.2614-0.28868-0.3746-0.28883zm5.2141 0.18009c-0.024-5.8e-4 -0.049 0.0367-0.1113 0.13482-0.109 0.17184-0.1233 0.26044-0.063 0.3925 0.056 0.12263 0.1154 0.10367 0.2281-0.0726h-1e-4c0.1115-0.17437 0.1112-0.30475 0-0.4169-0.023-0.0231-0.038-0.0374-0.053-0.0378zm-4.4208 2e-3c-0.015 1e-3 -0.029 0.0143-0.052 0.0405-0.1204 0.13719-0.097 0.30841 0.066 0.47878 0.1079 0.11304 0.1476 0.10208 0.1863-0.0513 0.033-0.13069-0.036-0.3356-0.1448-0.43473-0.025-0.0229-0.041-0.0341-0.056-0.0332zm0.413 0.38342c-0.016 4.1e-4 -0.028 0.0155-0.048 0.0427-0.09 0.12281-0.059 0.27757 0.084 0.4209 0.1461 0.14606 0.1997 0.14854 0.2365 0.0109 0.032-0.11989-0.03-0.26788-0.1681-0.39687-0.058-0.0541-0.084-0.078-0.1045-0.0776zm3.6075 6e-3c-0.024-2e-3 -0.058 0.0291-0.1386 0.10991-0.1355 0.13546-0.1727 0.27099-0.1153 0.4205 0.03 0.0796 0.075 0.0639 0.2147-0.0758 0.1397-0.13976 0.1704-0.29585 0.082-0.4169-0.016-0.0226-0.028-0.0362-0.043-0.0377zm0.7658 0.0205c-0.099 3e-3 -0.2129 0.062-0.3466 0.1759-0.103 0.0879-0.1052 0.0947-0.051 0.15479 0.1204 0.13303 0.3054 0.096 0.4962-0.0995 0.1232-0.12616 0.1253-0.13192 0.063-0.17893-0.049-0.037-0.1026-0.0545-0.1618-0.0523zm-5.1729 2e-3c-0.053 2e-3 -0.096 0.0212-0.1302 0.059-0.051 0.0561-0.047 0.0673 0.072 0.18273 0.1897 0.18522 0.3667 0.21568 0.4861 0.0837 0.032-0.0346 0.051-0.0681 0.043-0.0746-0.1974-0.17029-0.3558-0.25434-0.4711-0.25091zm1.3008 0.26527c-0.065-4e-3 -0.1016 0.0555-0.1016 0.17732 0 0.1002 0.1187 0.24621 0.2445 0.30101 0.1624 0.0707 0.1841 0.0602 0.1841-0.0889 0-0.11372-0.021-0.15649-0.128-0.26372-0.081-0.0809-0.1484-0.12258-0.199-0.12575zm2.6186 9e-3c-0.069-1e-3 -0.1833 0.0631-0.2649 0.16007-0.078 0.0926-0.1118 0.28184-0.06 0.33384 0.029 0.0291 0.029 0.029 0.1549-0.0235 0.1983-0.0829 0.3094-0.3068 0.2213-0.44607-0.011-0.0162-0.029-0.0239-0.051-0.0243zm-2.1239 0.12556c-0.034 1e-4 -0.036 0.0298-0.036 0.13379 0 0.20686 0.1205 0.31437 0.3587 0.31994 0.11 2e-3 0.1112 1e-3 0.092-0.11687-0.03-0.18233-0.1253-0.26753-0.3698-0.32888-0.019-5e-3 -0.034-8e-3 -0.045-8e-3zm1.5964 8e-3c-0.012 5.8e-4 -0.027 4e-3 -0.044 7e-3 -0.2234 0.0535-0.3687 0.20045-0.3687 0.37292 0 0.10355 0.2271 0.0941 0.3565-0.0147 0.105-0.0883 0.153-0.21419 0.1206-0.3162-0.012-0.0371-0.028-0.0515-0.064-0.0493zm1.2267 0.0568c-0.039 1e-4 -0.085 0.0133-0.1685 0.0395-0.2246 0.0708-0.2666 0.11687-0.1971 0.21615 0.091 0.13044 0.2403 0.15179 0.4241 0.0608v-7e-5c0.1017-0.0503 0.1813-0.12859 0.1813-0.17816 0-0.0247-0.052-0.0696-0.1153-0.0998-0.054-0.0257-0.085-0.0385-0.1245-0.0384zm-4.0417 9e-3c-0.037 1e-3 -0.072 7e-3 -0.1001 0.0184-0.053 0.022-0.1064 0.0647-0.118 0.0947-0.039 0.10238 0.2738 0.2824 0.4283 0.24627 0.036-9e-3 0.1008-0.0538 0.1434-0.10083l0.078-0.0854-0.077-0.0583c-0.098-0.0736-0.2408-0.11731-0.3538-0.11486zm0.7201 0.31736c-0.104 5.8e-4 -0.1946 0.0292-0.2601 0.0843-0.056 0.0469-0.1014 0.10627-0.1014 0.13186 0 0.0256 0.01 0.0467 0.01 0.047 0.01 2e-4 0.068 0.0218 0.14 0.0479 0.1882 0.0678 0.2973 0.0612 0.3936-0.0237 0.1169-0.10309 0.1257-0.22707 0.019-0.25806-0.069-0.02-0.1366-0.0297-0.1989-0.0293zm2.6948 1e-3c-0.031 4.1e-4 -0.069 3e-3 -0.1171 7e-3 -0.115 9e-3 -0.2238 0.0315-0.2418 0.0495-0.046 0.0457 0.056 0.23336 0.1477 0.27216 0.083 0.0353 0.2792 0.0159 0.401-0.0396 0.1069-0.0487 0.1053-0.0955-0.01-0.20804-0.063-0.0634-0.091-0.0821-0.1826-0.0809zm-0.8492 0.13528c-0.1171 3e-3 -0.248 0.0326-0.3811 0.0915-0.149 0.0659-0.1627 0.0667-0.2709 0.0154-0.063-0.0298-0.2064-0.0699-0.3195-0.0893-0.2738-0.0469-0.4277 8e-3 -0.5195 0.18453-0.036 0.0687-0.056 0.13381-0.045 0.14468 0.011 0.0109 0.092 0.0267 0.1798 0.0352 0.1765 0.017 0.343-0.0468 0.4-0.15331 0.043-0.0797 0.1715-0.11145 0.2821-0.0694l0.087 0.0331-0.066 0.0839c-0.073 0.093-0.1197 0.25858-0.087 0.31079 0.035 0.057 0.083 0.0375 0.083-0.0338 0-0.0372 0.023-0.11243 0.051-0.16721 0.042-0.0815 0.06-0.0924 0.099-0.06 0.026 0.0217 0.057 0.0976 0.068 0.16843 0.012 0.073 0.037 0.12365 0.057 0.1168 0.066-0.0217 0.06-0.15538-0.013-0.27867-0.068-0.11472-0.068-0.12277-0.013-0.16347 0.032-0.0236 0.072-0.0428 0.087-0.0428 0.052 0 0.1708 0.0721 0.2657 0.16064 0.078 0.0731 0.123 0.0866 0.2857 0.0866 0.106 0 0.2042-0.0113 0.218-0.0251 0.014-0.0138 1e-4 -0.0777-0.03-0.14197-0.067-0.13958-0.2239-0.21088-0.4193-0.20642z" fill="#fff"/><text x="623.8053" y="44.927311" fill="#ffffff" font-family="Caladea" font-size="4.6961px" font-weight="bold" stroke-linecap="round" stroke-linejoin="round" stroke-width=".042444" text-align="center" text-anchor="middle" style="font-variant-caps:normal;font-variant-east-asian:normal;font-variant-ligatures:normal;font-variant-numeric:normal;line-height:4.8747px" xml:space="preserve"><tspan x="623.8053" y="44.927311" fill="#ffffff" font-family="Caladea" font-size="4.6961px" font-weight="bold" stroke-width=".042444" text-align="center" text-anchor="middle" style="font-variant-caps:normal;font-variant-east-asian:normal;font-variant-ligatures:normal;font-variant-numeric:normal">1</tspan></text><path d="m623.3 47.252c-0.7569-0.10906-1.5149-0.48269-2.0799-1.025-0.762-0.73155-1.1481-1.5856-1.1893-2.6306-0.029-0.73732 0.092-1.2739 0.4386-1.945 0.4972-0.96267 1.413-1.6788 2.4901-1.9472 0.3566-0.0889 1.112-0.12211 1.4694-0.0646 1.5495 0.24916 2.7656 1.3489 3.162 2.8593 0.1152 0.43888 0.1419 1.1131 0.062 1.5792-0.2777 1.6312-1.551 2.8948-3.1841 3.1596-0.3349 0.0543-0.8485 0.0606-1.1694 0.0143zm0.445-0.26179c0-0.0372 0.023-0.11239 0.051-0.16715 0.042-0.0815 0.06-0.0924 0.099-0.06 0.026 0.0217 0.057 0.0976 0.068 0.16844 0.012 0.073 0.037 0.1236 0.057 0.11675 0.066-0.0217 0.06-0.15535-0.013-0.27863-0.068-0.11472-0.068-0.1228-0.013-0.16349 0.032-0.0236 0.072-0.0428 0.087-0.0428 0.051 0 0.1708 0.0721 0.2657 0.16062 0.078 0.0731 0.123 0.0866 0.2857 0.0866 0.1061 0 0.2042-0.0113 0.218-0.0251 0.014-0.0138 1e-4 -0.0777-0.03-0.14193-0.1065-0.22333-0.4453-0.27199-0.8004-0.11492-0.149 0.0659-0.1627 0.0667-0.2708 0.0153-0.063-0.0298-0.2065-0.0699-0.3196-0.0893-0.2738-0.0469-0.4277 8e-3 -0.5194 0.18449-0.036 0.0687-0.056 0.13383-0.045 0.1447 0.011 0.0109 0.092 0.0267 0.1799 0.0351 0.1763 0.017 0.3429-0.0469 0.3999-0.15333 0.043-0.0797 0.1715-0.11141 0.2821-0.0694l0.087 0.0331-0.066 0.0839c-0.073 0.093-0.1199 0.25854-0.088 0.31075 0.035 0.0569 0.083 0.0375 0.083-0.0338zm-1.0075-0.40219c0.117-0.10309 0.1258-0.22707 0.019-0.25807-0.1849-0.0534-0.3543-0.0332-0.459 0.0549-0.056 0.047-0.1014 0.10628-0.1014 0.13187 0 0.0256 0.01 0.0467 0.01 0.047 0.01 2e-4 0.068 0.0219 0.1401 0.048 0.1881 0.0678 0.2973 0.0612 0.3936-0.0238zm2.7042 3e-3c0.1068-0.0487 0.1053-0.0955-0.01-0.20809-0.084-0.0846-0.1048-0.0896-0.2997-0.074-0.115 9e-3 -0.2239 0.0315-0.2418 0.0495-0.046 0.0457 0.056 0.23338 0.1476 0.27217 0.083 0.0353 0.2792 0.0159 0.4011-0.0396zm-3.2511-0.34892 0.077-0.0854-0.077-0.0583c-0.1301-0.0982-0.3414-0.14307-0.4539-0.0964-0.053 0.0221-0.1064 0.0647-0.1179 0.0946-0.039 0.10238 0.2738 0.28238 0.4282 0.24625 0.036-9e-3 0.1009-0.0538 0.1435-0.1008zm1.2799 4e-3c-0.03-0.18234-0.1254-0.26754-0.3697-0.32889-0.077-0.0193-0.081-0.0129-0.081 0.12586 0 0.20685 0.1204 0.31433 0.3587 0.31989 0.11 2e-3 0.1112 1e-3 0.092-0.11686zm1.1255 0.0372c0.105-0.0883 0.153-0.21414 0.1206-0.31615-0.016-0.0495-0.039-0.0586-0.1085-0.042-0.2233 0.0535-0.3686 0.20044-0.3686 0.37291 0 0.10355 0.227 0.0942 0.3565-0.0148zm1.3413 8e-3c0.1016-0.0503 0.1813-0.1286 0.1813-0.17816 0-0.0247-0.052-0.0696-0.1153-0.0998-0.1078-0.0514-0.1268-0.0513-0.2932 1e-3 -0.2245 0.0708-0.2665 0.11687-0.197 0.21615 0.091 0.13044 0.2403 0.15178 0.4242 0.0608zm-3.0494-0.12701c0-0.11373-0.021-0.1565-0.128-0.26373-0.1848-0.18481-0.3006-0.16495-0.3006 0.0516 0 0.10019 0.1186 0.24624 0.2445 0.30103 0.1623 0.0707 0.1841 0.0602 0.1841-0.0889zm2.1218 0.0903c0.1984-0.0829 0.3094-0.30679 0.2213-0.44605-0.042-0.065-0.2077 6e-3 -0.3164 0.13569-0.078 0.0926-0.1118 0.28183-0.06 0.33383 0.029 0.0291 0.029 0.0291 0.1548-0.0234zm-2.6773-0.2994c0.032-0.11989-0.031-0.26789-0.1682-0.39688-0.1024-0.0961-0.1067-0.0971-0.1524-0.0349-0.09 0.12281-0.059 0.2776 0.084 0.42092 0.1461 0.14606 0.1998 0.14852 0.2366 0.0109zm3.2955-0.0139c0.1398-0.13977 0.1705-0.29585 0.082-0.41691-0.044-0.0602-0.052-0.057-0.1812 0.0722-0.1355 0.13547-0.1727 0.271-0.1153 0.42051 0.03 0.0796 0.075 0.0639 0.2146-0.0758zm-3.9401-0.10627c0.032-0.0346 0.051-0.0681 0.043-0.0745-0.2871-0.2477-0.4917-0.313-0.6013-0.19191-0.051 0.0561-0.046 0.0673 0.072 0.18272 0.1897 0.18521 0.3666 0.2157 0.4861 0.0837zm4.844-0.0966c0.1231-0.12616 0.1252-0.13191 0.063-0.17891-0.1304-0.0986-0.2947-0.0586-0.5085 0.12364-0.1031 0.0879-0.1052 0.0946-0.051 0.15474 0.1204 0.13303 0.3054 0.096 0.4962-0.0995zm-4.6851-0.17323c0.033-0.13069-0.036-0.33561-0.1448-0.43475-0.051-0.0457-0.061-0.045-0.1069 7e-3 -0.1205 0.1372-0.097 0.30843 0.065 0.47879 0.1078 0.11305 0.1476 0.1021 0.1862-0.0513zm4.2745-0.0151c0.1114-0.17437 0.1111-0.30474 0-0.41689-0.062-0.0617-0.064-0.06-0.164 0.097-0.109 0.17183-0.1232 0.26045-0.063 0.39251 0.056 0.12263 0.1155 0.10368 0.2281-0.0726zm-4.8818-0.22236c0.033-0.0397 0.031-0.0638-0.011-0.12362-0.179-0.25487-0.3455-0.34326-0.4829-0.25639-0.043 0.0272-0.042 0.0464 0.015 0.15047 0.1278 0.23741 0.3748 0.35563 0.4794 0.22954zm5.5481-0.0172c0.1132-0.089 0.232-0.28612 0.2089-0.34643-0.036-0.0924-0.2093-0.0568-0.352 0.0722-0.074 0.0664-0.1488 0.14896-0.1672 0.18341-0.079 0.14671 0.1531 0.21452 0.3103 0.0908zm-5.3685-0.13865c0.066-0.0942 0.065-0.25307 0-0.42055-0.06-0.14923-0.1169-0.16688-0.1924-0.0593-0.07 0.10042-0.064 0.26646 0.015 0.42253 0.076 0.14976 0.1071 0.15959 0.1788 0.0573zm5.0674-0.0598c0.1073-0.19988 0.055-0.49325-0.088-0.49325-0.051 0-0.1477 0.25083-0.1477 0.38111 0 0.10997 0.086 0.25508 0.1402 0.23696 0.019-6e-3 0.062-0.0626 0.096-0.12482zm0.6826-0.56652c0.093-0.19245 0.1025-0.29988 0.027-0.31546-0.1239-0.0257-0.3517 0.21569-0.4032 0.42726-0.018 0.0745-0.01 0.0899 0.055 0.1006 0.1241 0.0203 0.2466-0.061 0.3199-0.2124zm-6.2415 0.17042c0.012-0.0191-0.019-0.1165-0.067-0.21647-0.096-0.19521-0.2568-0.31166-0.3539-0.2556-0.044 0.0257-0.044 0.0457 0 0.18592 0.066 0.20557 0.1742 0.32086 0.3008 0.32086 0.054 0 0.1082-0.0156 0.12-0.0347zm0.1293-0.0517c0.097-0.0372 0.1581-0.20511 0.1338-0.36718-0.04-0.26845-0.068-0.28998-0.1998-0.15777-0.091 0.0906-0.1033 0.21555-0.043 0.41799 0.021 0.0701 0.042 0.12744 0.047 0.12744 0.01 0 0.033-9e-3 0.062-0.0205zm5.7193-0.10315c0.057-0.20528 0.043-0.33251-0.046-0.4218-0.044-0.0445-0.095-0.0809-0.112-0.0809-0.046 0-0.1142 0.31652-0.09 0.41349 0.022 0.0874 0.1293 0.21286 0.1823 0.21286 0.018 0 0.047-0.0556 0.066-0.12363zm-6.0454-0.59338c-0.039-0.22303-0.088-0.33585-0.1737-0.40331-0.1246-0.098-0.1745-0.0852-0.1745 0.0448 0 0.28413 0.1159 0.48213 0.2823 0.48213 0.083 0 0.087-6e-3 0.066-0.12363zm6.4659 0.0741c0.1266-0.0887 0.2095-0.51544 0.1043-0.53645-0.097-0.0193-0.226 0.13068-0.2765 0.32228-0.026 0.0997-0.048 0.19986-0.049 0.22252-5e-4 0.0569 0.1347 0.0517 0.2205-8e-3zm-6.2557-0.0411c0.085-0.0687 0.1399-0.27882 0.1127-0.42955-0.016-0.0914-0.03-0.10499-0.09-0.0878-0.1303 0.0377-0.1857 0.13987-0.1857 0.34243 0 0.24764 0.032 0.28137 0.1628 0.17492zm6.0017-0.14925c0-0.23314-0.052-0.33677-0.1803-0.36136-0.082-0.0157-0.083-0.0129-0.083 0.19526 0 0.18029 0.012 0.22305 0.081 0.29213 0.1395 0.13944 0.1828 0.10954 0.1828-0.12603zm-6.2686-0.6967c-0.013-0.26-0.076-0.38202-0.1978-0.38202-0.053 0-0.061 0.0283-0.061 0.22631 0 0.25001 0.076 0.40004 0.2038 0.40004 0.063 0 0.066-0.0164 0.055-0.24433zm0.26 0.17015c0.067-0.0722 0.1402-0.27913 0.1405-0.39558 3e-4 -0.0871-0.1395-0.0722-0.2303 0.0244-0.055 0.0592-0.081 0.1328-0.092 0.26372-0.014 0.16317-0.01 0.18157 0.049 0.18157 0.036 0 0.095-0.0334 0.1328-0.0742zm6.0623-0.0288c-0.011-0.0566-0.021-0.1297-0.021-0.16231 0-0.094-0.1604-0.26213-0.2502-0.26213-0.091 0-0.098 0.0446-0.043 0.24724 0.045 0.16567 0.1489 0.28022 0.2538 0.28022 0.073 0 0.079-0.01 0.06-0.10302zm0.2407 0.0161c0.054-0.0686 0.068-0.13416 0.068-0.31122 0-0.12341-0.014-0.23288-0.03-0.24328-0.017-0.0104-0.072 0.0168-0.1228 0.0604-0.083 0.0715-0.093 0.1041-0.1049 0.33013-0.012 0.23447-0.01 0.2508 0.054 0.2508 0.037 0 0.098-0.0391 0.1354-0.0869zm-6.4354-0.8816c0.016-0.21368 0.01-0.26196-0.04-0.31756-0.085-0.0938-0.1026-0.084-0.1614 0.0887-0.077 0.22739-0.068 0.36066 0.032 0.46119 0.1152 0.11516 0.1462 0.0725 0.1693-0.23228zm0.2497 0.25086c0.029-0.0321 0.083-0.12477 0.1193-0.20603 0.066-0.14682 0.066-0.14795 0-0.17764-0.1026-0.0472-0.2249 0.0298-0.2961 0.18651-0.091 0.20046-0.085 0.25545 0.029 0.25545 0.052 0 0.1175-0.0263 0.1465-0.0583zm5.8584-9e-3c0-0.10009-0.1222-0.32086-0.2009-0.363-0.038-0.0203-0.1041-0.0281-0.147-0.0172l-0.078 0.0196 0.067 0.15628c0.089 0.20681 0.152 0.27167 0.2652 0.27167 0.072 0 0.094-0.0154 0.094-0.0673zm0.2124-0.039c0.061-0.0867 0.065-0.20607 0.014-0.40718-0.046-0.18407-0.088-0.21101-0.1699-0.10993-0.054 0.0663-0.062 0.11538-0.049 0.29743 0.01 0.11992 0.026 0.23489 0.039 0.25549 0.037 0.0595 0.1101 0.0437 0.1658-0.0358zm-5.8273-0.56619c0.051-0.0434 0.1195-0.12433 0.1517-0.17967 0.057-0.0975 0.057-0.10169-0.01-0.13524-0.093-0.0499-0.1182-0.0444-0.2325 0.0517-0.1153 0.097-0.212 0.26176-0.1821 0.31023 0.036 0.0577 0.1739 0.0336 0.2689-0.047zm5.4071 0.0274c0.016-0.0493-0.1206-0.24228-0.228-0.32186-0.076-0.0562-0.1029-0.0605-0.1749-0.0276l-0.085 0.0388 0.06 0.10215c0.089 0.15329 0.2366 0.26535 0.3335 0.25376 0.046-5e-3 0.089-0.0258 0.095-0.0452zm-5.6684-0.17082c0.097-0.22962 0.1121-0.3241 0.069-0.41842-0.055-0.12053-0.1048-0.10474-0.1867 0.0591-0.1059 0.21207-0.1226 0.33558-0.059 0.43313 0.03 0.0455 0.067 0.0828 0.082 0.0828s0.058-0.0705 0.094-0.15658zm5.8249 0.0833c0.028-0.0403 0.051-0.11075 0.051-0.15658 0-0.0779-0.085-0.28725-0.1594-0.39438-0.054-0.0789-0.1366 0.0186-0.1366 0.16235 0 0.12848 0.1208 0.46188 0.1674 0.46188 0.015 0 0.05-0.033 0.078-0.0733zm-5.283-0.41983c0.042-0.0174 0.1276-0.0752 0.1903-0.12841 0.099-0.0836 0.1081-0.10405 0.07-0.14973-0.078-0.0939-0.2238-0.0644-0.3738 0.0754-0.1192 0.11115-0.1317 0.1354-0.094 0.18131 0.051 0.0609 0.099 0.0659 0.2069 0.0214zm4.7768-0.0214c0.038-0.0459 0.026-0.0702-0.094-0.18131-0.1454-0.13563-0.2954-0.16971-0.3671-0.0834-0.029 0.0354-0.01 0.074 0.1106 0.18131 0.1575 0.14516 0.2755 0.17326 0.3501 0.0834zm-4.8463-0.36819c0.08-0.16161 0.065-0.3156-0.029-0.2977-0.076 0.0144-0.2707 0.3105-0.2707 0.41159 0 0.0445 0.016 0.11153 0.036 0.14901 0.036 0.0668 0.038 0.0662 0.1146-0.0269 0.043-0.0523 0.1097-0.15847 0.1482-0.236zm5.0082 0.12301c0-0.0909-0.03-0.16436-0.1087-0.26777-0.2651-0.34759-0.3398-0.0394-0.079 0.32656 0.1175 0.16496 0.1878 0.14295 0.1878-0.0588zm-4.2938-0.25414c0.1254-0.0656 0.1286-0.0774 0.042-0.15565-0.083-0.0752-0.2334-0.0489-0.3861 0.0675-0.1162 0.0886-0.1158 0.13323 0 0.17699 0.074 0.0278 0.1646 4e-3 0.3427-0.0889zm3.6688 0.0633 0.075-0.0604-0.1121-0.0854c-0.1562-0.1188-0.2751-0.14311-0.3762-0.0769-0.045 0.0296-0.082 0.0649-0.082 0.0785 0 0.0353 0.3076 0.19055 0.4002 0.20199 0.012 1e-3 0.055-0.0245 0.096-0.0578zm-3.9594-0.2671c0.1248-0.12164 0.167-0.1868 0.167-0.25823 0-0.0526-0.01-0.10485-0.021-0.11622-0.035-0.0351-0.306 0.17211-0.359 0.27468-0.05 0.0953-0.037 0.26246 0.019 0.26246 0.015 0 0.1024-0.0732 0.1943-0.16269zm4.1085 0.0838c0.028-0.11125-0.062-0.26745-0.2217-0.3827-0.1455-0.10543-0.1926-0.10292-0.1922 0.0102 1e-4 0.0932 0.1014 0.2461 0.238 0.35979 0.1329 0.11062 0.151 0.11192 0.1759 0.0127zm-3.3621-0.12298c0.1803-0.0454 0.2003-0.0734 0.1141-0.15957-0.081-0.0813-0.2298-0.0867-0.3737-0.0135-0.1422 0.0723-0.1406 0.069-0.073 0.14395 0.069 0.0758 0.1267 0.0809 0.3324 0.0291zm2.6998-8e-3c0.092-0.0671 0.042-0.13767-0.1312-0.18616-0.1859-0.052-0.3245-0.0163-0.3395 0.0877-0.01 0.0562 0.015 0.0763 0.1154 0.10307 0.1802 0.0478 0.2855 0.0464 0.3553-5e-3zm-2.893-0.25232c0.1704-0.0978 0.2401-0.17834 0.2401-0.27773 0-0.0722-0.093-0.0643-0.2646 0.0226-0.1574 0.0795-0.2539 0.21112-0.2199 0.29977 0.028 0.073 0.044 0.07 0.2444-0.0445zm3.0037 0.0207c0.017-0.0871-0.081-0.21031-0.2243-0.28368-0.372-0.18975-0.3438 0.0675 0.032 0.29279 0.1285 0.077 0.1759 0.0748 0.1922-9e-3zm-2.3143-0.0836c0.1766-0.0802 0.2027-0.12647 0.095-0.16759-0.1407-0.0535-0.2959-0.038-0.4128 0.0413-0.1374 0.0931-0.1565 0.14734-0.059 0.16603 0.1559 0.0298 0.2445 0.0204 0.3769-0.0397zm1.8227 0.0109c0.01-0.0105-0.029-0.0623-0.089-0.11524-0.084-0.0749-0.1386-0.0959-0.2472-0.095-0.1787 2e-3 -0.3129 0.0689-0.2467 0.12389 0.1086 0.0901 0.2759 0.13919 0.4176 0.12254 0.08-9e-3 0.1544-0.0257 0.1648-0.0362z" fill="#ce990c" stroke-width=".032966"/><path d="m625.06 40.234c-0.1314 3e-3 -0.045 0.18979 0.2369 0.35876 0.1285 0.077 0.176 0.0747 0.1922-9e-3 0.017-0.0871-0.081-0.21026-0.2244-0.28362-0.093-0.0474-0.1609-0.067-0.2047-0.066zm-2.3866 2e-3c-0.044-1e-3 -0.1158 0.0225-0.2125 0.0714-0.1573 0.0795-0.2539 0.21113-0.2199 0.29978 0.028 0.073 0.044 0.07 0.2444-0.0446 0.1705-0.0978 0.2401-0.17831 0.2401-0.2777 0-0.0316-0.017-0.0478-0.052-0.0489zm1.9883 0.0643c-0.1786 2e-3 -0.3129 0.0689-0.2466 0.12388 0.1085 0.0901 0.2759 0.13918 0.4176 0.12253 0.08-9e-3 0.1544-0.0257 0.1648-0.0362 0.01-0.0105-0.029-0.0623-0.089-0.11519-0.084-0.0749-0.1386-0.0959-0.2473-0.095zm-1.5539 5.1e-4c-0.09-2e-3 -0.1781 0.023-0.2512 0.0726-0.1374 0.0931-0.1566 0.14737-0.059 0.16606 0.1559 0.0298 0.2445 0.0204 0.377-0.0398 0.1766-0.0802 0.2027-0.12647 0.095-0.16761-0.053-0.0201-0.1075-0.0303-0.1616-0.0313zm-1.0385 0.18267c-0.059-6e-3 -0.3001 0.18236-0.3499 0.27853-0.049 0.0953-0.037 0.26244 0.019 0.26244 0.015 0 0.1024-0.0732 0.1942-0.1627 0.1249-0.12164 0.167-0.18676 0.167-0.25819 0-0.0526-0.01-0.10485-0.021-0.11622 0-2e-3 -0.01-3e-3 -0.01-4e-3zm3.5988 2e-3c-0.03 2e-3 -0.042 0.0305-0.042 0.0871 2e-4 0.0932 0.1015 0.2461 0.2381 0.35979 0.1329 0.11062 0.151 0.11193 0.1759 0.0127 0.028-0.11126-0.063-0.26747-0.2217-0.38271-0.073-0.0527-0.1209-0.0784-0.1509-0.0768zm-3.0388 0.11228c-0.065-2e-3 -0.1384 0.0146-0.2103 0.0512-0.1422 0.0723-0.1406 0.069-0.073 0.14397 0.069 0.0758 0.1266 0.0809 0.3323 0.0291 0.1803-0.0454 0.2004-0.0734 0.1141-0.15955-0.041-0.0407-0.098-0.0624-0.1634-0.0647zm2.4598 7e-3c-0.1023 5.9e-4 -0.1711 0.0399-0.1814 0.1114-0.01 0.0562 0.015 0.0763 0.1154 0.10308 0.1802 0.0478 0.2855 0.0464 0.3553-5e-3 0.092-0.0671 0.042-0.13765-0.1312-0.18614-0.058-0.0163-0.1116-0.024-0.1581-0.0237zm-2.9426 0.26238c-0.078-4.1e-4 -0.1722 0.0372-0.2677 0.10997-0.1161 0.0887-0.1158 0.13324 0 0.177 0.074 0.0278 0.1647 4e-3 0.3428-0.0889 0.1253-0.0656 0.1286-0.0774 0.042-0.15562-0.031-0.0282-0.072-0.0422-0.1184-0.0424zm3.4537 3e-3c-0.044-1e-3 -0.084 0.0112-0.1222 0.0361-0.045 0.0296-0.082 0.065-0.082 0.0786 0 0.0353 0.3077 0.19054 0.4002 0.20197 0.012 1e-3 0.055-0.0245 0.096-0.0578l0.075-0.0605-0.1121-0.0853c-0.098-0.0743-0.1807-0.1116-0.254-0.113zm-4.1035 0.0275c-0.01-1e-4 -0.011 2.1e-4 -0.017 1e-3 -0.076 0.0144-0.2708 0.31053-0.2708 0.41162 0 0.0445 0.016 0.11151 0.037 0.14899 0.036 0.0668 0.038 0.0662 0.1146-0.0269 0.043-0.0523 0.1097-0.15845 0.1482-0.23598 0.075-0.15151 0.067-0.29631-0.012-0.29907zm4.7229 2e-3c-0.091 3e-3 -0.07 0.22694 0.1092 0.47852 0.1175 0.16496 0.1877 0.14295 0.1877-0.0588 0-0.0909-0.03-0.16437-0.1086-0.26779-0.083-0.10861-0.1471-0.15317-0.1883-0.15195zm-0.2163 0.35289c-0.044-5e-4 -0.082 0.015-0.1093 0.0473-0.029 0.0354-0.01 0.074 0.1106 0.18131 0.1575 0.14516 0.2755 0.17329 0.3501 0.0834 0.038-0.0459 0.026-0.0702-0.094-0.18131-0.091-0.0848-0.1835-0.12988-0.2578-0.13071zm-4.2779 1e-3c-0.075-2e-3 -0.1671 0.0422-0.2608 0.12968-0.1192 0.11115-0.1316 0.13541-0.093 0.18131 0.051 0.0609 0.099 0.066 0.2068 0.0214 0.042-0.0174 0.1277-0.0752 0.1904-0.12845 0.098-0.0836 0.108-0.10402 0.07-0.1497-0.029-0.0353-0.068-0.0531-0.113-0.0543zm-0.6926 0.17153c-0.033 5.1e-4 -0.068 0.0459-0.1143 0.13805-0.106 0.21207-0.1228 0.33557-0.059 0.43312 0.03 0.0455 0.067 0.0828 0.082 0.0828s0.058-0.0705 0.094-0.15658c0.097-0.22962 0.112-0.32413 0.069-0.41845-0.024-0.0527-0.047-0.0794-0.072-0.0789zm5.675 2e-3c-0.046 1e-3 -0.092 0.0827-0.092 0.19053 0 0.12848 0.1209 0.46183 0.1674 0.46183 0.015 0 0.05-0.033 0.078-0.0733s0.052-0.11075 0.051-0.15658c0-0.078-0.085-0.28725-0.1594-0.39437-0.014-0.0197-0.029-0.0284-0.044-0.0281zm-5.3492 0.29341c-0.04-2e-3 -0.077 0.0226-0.1482 0.0827-0.1153 0.0971-0.2119 0.26176-0.182 0.31021 0.036 0.0577 0.1739 0.0336 0.2689-0.0471 0.051-0.0435 0.1195-0.1243 0.1517-0.17963 0.057-0.0976 0.057-0.10167-0.01-0.13522-0.035-0.0187-0.06-0.0297-0.084-0.031zm5.0099 3e-3c-0.019 1e-3 -0.04 8e-3 -0.067 0.0205l-0.085 0.0389 0.06 0.10212c0.089 0.15329 0.2366 0.26535 0.3335 0.25375 0.046-5e-3 0.089-0.0258 0.095-0.0452 0.016-0.0493-0.1206-0.24229-0.228-0.32186-0.047-0.0351-0.076-0.05-0.1079-0.0482zm-5.6866 0.32973c-0.026 5e-3 -0.047 0.0502-0.08 0.14731-0.077 0.22739-0.068 0.36067 0.032 0.46121 0.1152 0.11515 0.1462 0.0726 0.1692-0.23225 0.016-0.21367 0.01-0.26201-0.04-0.31762-0.037-0.041-0.061-0.0622-0.082-0.0587zm6.3647 4e-3c-0.022 4.1e-4 -0.047 0.0203-0.078 0.0582-0.054 0.0663-0.062 0.11533-0.049 0.2974 0.01 0.11991 0.026 0.23488 0.039 0.25548 0.037 0.0595 0.11 0.0437 0.1657-0.0358 0.061-0.0867 0.065-0.20607 0.015-0.40718-0.029-0.11504-0.056-0.16872-0.092-0.16812zm-5.9313 0.2258c-0.087-2e-3 -0.179 0.073-0.2368 0.20031-0.091 0.20046-0.085 0.25542 0.029 0.25542 0.051 0 0.1175-0.0262 0.1465-0.0583 0.029-0.032 0.083-0.12476 0.1193-0.20603 0.066-0.14682 0.066-0.14794 0-0.17764-0.019-9e-3 -0.039-0.0134-0.059-0.0138zm5.4847 3e-3c-0.013 5.1e-4 -0.025 2e-3 -0.036 5e-3l-0.078 0.0195 0.067 0.15633c0.089 0.20681 0.152 0.27165 0.2653 0.27165 0.072 0 0.094-0.0153 0.094-0.0672 0-0.10009-0.1223-0.32086-0.201-0.363-0.029-0.0152-0.073-0.0234-0.1112-0.022zm0.6692 0.46802c-0.023-1e-3 -0.07 0.0244-0.1148 0.0626-0.083 0.0715-0.093 0.10415-0.1049 0.33018-0.012 0.23448-0.01 0.25079 0.054 0.25079 0.037 0 0.098-0.0391 0.1354-0.0869 0.054-0.0686 0.068-0.13417 0.068-0.31124 0-0.12341-0.013-0.23286-0.03-0.24326 0-1e-3 -0.01-2e-3 -0.01-2e-3zm-6.7905 0.0172c-0.053 0-0.061 0.0283-0.061 0.22632 0 0.25001 0.076 0.40004 0.2038 0.40004 0.063 0 0.066-0.0165 0.055-0.24435-0.013-0.26-0.076-0.38201-0.1978-0.38201zm6.2493 0.0989c-0.091 0-0.099 0.0446-0.043 0.24724 0.045 0.16566 0.149 0.28022 0.2539 0.28022 0.073 0 0.079-0.0101 0.06-0.10303-0.011-0.0567-0.021-0.1297-0.021-0.16231 0-0.094-0.1605-0.26212-0.2502-0.26212zm-5.7152 2.1e-4c-0.048-1e-3 -0.115 0.0275-0.1661 0.0819-0.055 0.0592-0.081 0.1328-0.092 0.26372-0.013 0.16318-0.01 0.18157 0.049 0.18157 0.036 0 0.095-0.0334 0.1328-0.0742 0.067-0.0722 0.1403-0.27913 0.1406-0.39559 1e-4 -0.0381-0.027-0.0566-0.064-0.0574zm-0.01 0.6051c-0.01-2.1e-4 -0.022 2e-3 -0.037 6e-3 -0.1302 0.0377-0.1857 0.13985-0.1857 0.34241 0 0.24764 0.032 0.28139 0.1628 0.17494 0.085-0.0687 0.14-0.27879 0.1128-0.42952-0.012-0.0686-0.023-0.0933-0.053-0.0942zm5.7141 8e-3c-0.035 4e-3 -0.036 0.0445-0.036 0.20062 0 0.18029 0.012 0.22305 0.081 0.29212 0.1395 0.13945 0.1828 0.10956 0.1828-0.126 0-0.23314-0.052-0.33674-0.1803-0.36133-0.02-4e-3 -0.036-7e-3 -0.048-5e-3zm-6.2803 0.0152c-0.036 1e-4 -0.052 0.0362-0.052 0.10926 0 0.28414 0.116 0.48213 0.2823 0.48213 0.083 0 0.087-6e-3 0.066-0.12362-0.039-0.22303-0.088-0.33586-0.1737-0.40332-0.054-0.0429-0.095-0.0645-0.1227-0.0644zm6.848 3e-3c-0.094 1e-3 -0.2106 0.14429-0.258 0.32392-0.026 0.0997-0.048 0.19986-0.049 0.22253-5e-4 0.0569 0.1347 0.0517 0.2205-8e-3 0.1266-0.0887 0.2096-0.5154 0.1043-0.53641-0.01-1e-3 -0.012-2e-3 -0.019-2e-3zm-0.6645 0.55468c-0.046 0-0.1141 0.31652-0.09 0.4135 0.022 0.0874 0.1294 0.21285 0.1824 0.21285 0.017 0 0.047-0.0556 0.066-0.12362 0.057-0.20529 0.043-0.3325-0.046-0.42179-0.044-0.0445-0.095-0.0809-0.1122-0.0809zm-5.5162 2e-3c-0.026 1e-3 -0.061 0.0294-0.1108 0.079-0.091 0.0906-0.1033 0.21556-0.043 0.418 0.021 0.0701 0.042 0.12742 0.047 0.12742 0.01 0 0.033-9e-3 0.062-0.0205 0.097-0.0372 0.1581-0.20512 0.1337-0.3672-0.025-0.16777-0.045-0.23912-0.089-0.23675zm6.0706 0.16799c-0.1273 6e-3 -0.3305 0.23072-0.3787 0.42907-0.018 0.0745-0.01 0.0899 0.055 0.10057 0.1241 0.0203 0.2467-0.061 0.3199-0.21241 0.093-0.19245 0.1025-0.29985 0.028-0.31543-0.01-2e-3 -0.016-2e-3 -0.025-2e-3zm-6.6056 2e-3c-0.022-1e-3 -0.042 4e-3 -0.06 0.014-0.044 0.0257-0.044 0.0457 0 0.18595 0.066 0.20556 0.1743 0.32084 0.3008 0.32084 0.054 0 0.1082-0.0156 0.12-0.0347 0.012-0.0191-0.019-0.11649-0.067-0.21646-0.078-0.15861-0.1986-0.26526-0.2934-0.26959zm5.8315 0.38889c-0.051 0-0.1477 0.25083-0.1477 0.38111 0 0.10997 0.086 0.25505 0.1403 0.23694 0.019-6e-3 0.062-0.0626 0.096-0.12478 0.1072-0.19987 0.055-0.49327-0.088-0.49327zm-5.0829 5e-3c-0.028-1e-3 -0.057 0.0217-0.09 0.0688-0.07 0.10042-0.064 0.26643 0.015 0.4225 0.076 0.14977 0.1071 0.15962 0.1788 0.0573 0.066-0.0942 0.065-0.25309 0-0.42057-0.034-0.0839-0.066-0.1262-0.1021-0.128zm5.5918 0.28903c-0.072-5.8e-4 -0.1734 0.0433-0.2626 0.12394-0.073 0.0664-0.1488 0.14898-0.1672 0.18344-0.079 0.1467 0.1531 0.21451 0.3104 0.0908 0.1131-0.089 0.2319-0.28616 0.2088-0.34647-0.013-0.0347-0.046-0.0513-0.089-0.0517zm-6.0536 3e-3c-0.038-5e-5 -0.074 0.0107-0.1082 0.0324-0.043 0.0272-0.042 0.0464 0.015 0.15048 0.1279 0.2374 0.3748 0.35568 0.4795 0.22959 0.033-0.0397 0.031-0.0638-0.011-0.12362-0.1342-0.19115-0.2614-0.28868-0.3746-0.28883zm5.2141 0.18009c-0.024-5.8e-4 -0.049 0.0367-0.1113 0.13482-0.109 0.17184-0.1233 0.26044-0.063 0.3925 0.056 0.12263 0.1154 0.10367 0.2281-0.0726h-1e-4c0.1115-0.17437 0.1112-0.30475 0-0.4169-0.023-0.0231-0.038-0.0374-0.053-0.0378zm-4.4208 2e-3c-0.015 1e-3 -0.029 0.0143-0.052 0.0405-0.1204 0.13719-0.097 0.30841 0.066 0.47878 0.1079 0.11304 0.1476 0.10208 0.1863-0.0513 0.033-0.13069-0.036-0.3356-0.1448-0.43473-0.025-0.0229-0.041-0.0341-0.056-0.0332zm0.413 0.38342c-0.016 4.1e-4 -0.028 0.0155-0.048 0.0427-0.09 0.12281-0.059 0.27757 0.084 0.4209 0.1461 0.14606 0.1997 0.14854 0.2365 0.0109 0.032-0.11989-0.03-0.26788-0.1681-0.39687-0.058-0.0541-0.084-0.078-0.1045-0.0776zm3.6075 6e-3c-0.024-2e-3 -0.058 0.0291-0.1386 0.10991-0.1355 0.13546-0.1727 0.27099-0.1153 0.4205 0.03 0.0796 0.075 0.0639 0.2147-0.0758 0.1397-0.13976 0.1704-0.29585 0.082-0.4169-0.016-0.0226-0.028-0.0362-0.043-0.0377zm0.7658 0.0205c-0.099 3e-3 -0.2129 0.062-0.3466 0.1759-0.103 0.0879-0.1052 0.0947-0.051 0.15479 0.1204 0.13303 0.3054 0.096 0.4962-0.0995 0.1232-0.12616 0.1253-0.13192 0.063-0.17893-0.049-0.037-0.1026-0.0545-0.1618-0.0523zm-5.1729 2e-3c-0.053 2e-3 -0.096 0.0212-0.1302 0.059-0.051 0.0561-0.047 0.0673 0.072 0.18273 0.1897 0.18522 0.3667 0.21568 0.4861 0.0837 0.032-0.0346 0.051-0.0681 0.043-0.0746-0.1974-0.17029-0.3558-0.25434-0.4711-0.25091zm1.3008 0.26527c-0.065-4e-3 -0.1016 0.0555-0.1016 0.17732 0 0.1002 0.1187 0.24621 0.2445 0.30101 0.1624 0.0707 0.1841 0.0602 0.1841-0.0889 0-0.11372-0.021-0.15649-0.128-0.26372-0.081-0.0809-0.1484-0.12258-0.199-0.12575zm2.6186 9e-3c-0.069-1e-3 -0.1833 0.0631-0.2649 0.16007-0.078 0.0926-0.1118 0.28184-0.06 0.33384 0.029 0.0291 0.029 0.029 0.1549-0.0235 0.1983-0.0829 0.3094-0.3068 0.2213-0.44607-0.011-0.0162-0.029-0.0239-0.051-0.0243zm-2.1239 0.12556c-0.034 1e-4 -0.036 0.0298-0.036 0.13379 0 0.20686 0.1205 0.31437 0.3587 0.31994 0.11 2e-3 0.1112 1e-3 0.092-0.11687-0.03-0.18233-0.1253-0.26753-0.3698-0.32888-0.019-5e-3 -0.034-8e-3 -0.045-8e-3zm1.5964 8e-3c-0.012 5.8e-4 -0.027 4e-3 -0.044 7e-3 -0.2234 0.0535-0.3687 0.20045-0.3687 0.37292 0 0.10355 0.2271 0.0941 0.3565-0.0147 0.105-0.0883 0.153-0.21419 0.1206-0.3162-0.012-0.0371-0.028-0.0515-0.064-0.0493zm1.2267 0.0568c-0.039 1e-4 -0.085 0.0133-0.1685 0.0395-0.2246 0.0708-0.2666 0.11687-0.1971 0.21615 0.091 0.13044 0.2403 0.15179 0.4241 0.0608v-7e-5c0.1017-0.0503 0.1813-0.12859 0.1813-0.17816 0-0.0247-0.052-0.0696-0.1153-0.0998-0.054-0.0257-0.085-0.0385-0.1245-0.0384zm-4.0417 9e-3c-0.037 1e-3 -0.072 7e-3 -0.1001 0.0184-0.053 0.022-0.1064 0.0647-0.118 0.0947-0.039 0.10238 0.2738 0.2824 0.4283 0.24627 0.036-9e-3 0.1008-0.0538 0.1434-0.10083l0.078-0.0854-0.077-0.0583c-0.098-0.0736-0.2408-0.11731-0.3538-0.11486zm0.7201 0.31736c-0.104 5.8e-4 -0.1946 0.0292-0.2601 0.0843-0.056 0.0469-0.1014 0.10627-0.1014 0.13186 0 0.0256 0.01 0.0467 0.01 0.047 0.01 2e-4 0.068 0.0218 0.14 0.0479 0.1882 0.0678 0.2973 0.0612 0.3936-0.0237 0.1169-0.10309 0.1257-0.22707 0.019-0.25806-0.069-0.02-0.1366-0.0297-0.1989-0.0293zm2.6948 1e-3c-0.031 4.1e-4 -0.069 3e-3 -0.1171 7e-3 -0.115 9e-3 -0.2238 0.0315-0.2418 0.0495-0.046 0.0457 0.056 0.23336 0.1477 0.27216 0.083 0.0353 0.2792 0.0159 0.401-0.0396 0.1069-0.0487 0.1053-0.0955-0.01-0.20804-0.063-0.0634-0.091-0.0821-0.1826-0.0809zm-0.8492 0.13528c-0.1171 3e-3 -0.248 0.0326-0.3811 0.0915-0.149 0.0659-0.1627 0.0667-0.2709 0.0154-0.063-0.0298-0.2064-0.0699-0.3195-0.0893-0.2738-0.0469-0.4277 8e-3 -0.5195 0.18453-0.036 0.0687-0.056 0.13381-0.045 0.14468 0.011 0.0109 0.092 0.0267 0.1798 0.0352 0.1765 0.017 0.343-0.0468 0.4-0.15331 0.043-0.0797 0.1715-0.11145 0.2821-0.0694l0.087 0.0331-0.066 0.0839c-0.073 0.093-0.1197 0.25858-0.087 0.31079 0.035 0.057 0.083 0.0375 0.083-0.0338 0-0.0372 0.023-0.11243 0.051-0.16721 0.042-0.0815 0.06-0.0924 0.099-0.06 0.026 0.0217 0.057 0.0976 0.068 0.16843 0.012 0.073 0.037 0.12365 0.057 0.1168 0.066-0.0217 0.06-0.15538-0.013-0.27867-0.068-0.11472-0.068-0.12277-0.013-0.16347 0.032-0.0236 0.072-0.0428 0.087-0.0428 0.052 0 0.1708 0.0721 0.2657 0.16064 0.078 0.0731 0.123 0.0866 0.2857 0.0866 0.106 0 0.2042-0.0113 0.218-0.0251 0.014-0.0138 1e-4 -0.0777-0.03-0.14197-0.067-0.13958-0.2239-0.21088-0.4193-0.20642z" fill="#fff"/><text x="623.8053" y="44.927311" fill="#ffffff" font-family="Caladea" font-size="4.6961px" font-weight="bold" stroke-linecap="round" stroke-linejoin="round" stroke-width=".042444" text-align="center" text-anchor="middle" style="font-variant-caps:normal;font-variant-east-asian:normal;font-variant-ligatures:normal;font-variant-numeric:normal;line-height:4.8747px" xml:space="preserve"><tspan x="623.8053" y="44.927311" fill="#ffffff" font-family="Caladea" font-size="4.6961px" font-weight="bold" stroke-width=".042444" text-align="center" text-anchor="middle" style="font-variant-caps:normal;font-variant-east-asian:normal;font-variant-ligatures:normal;font-variant-numeric:normal">1</tspan></text></g></g></svg>
