<?xml version="1.0" encoding="UTF-8" standalone="no"?>
<svg
   width="33.952mm"
   height="33.168mm"
   version="1.1"
   viewBox="0 0 33.952 33.168"
   xml:space="preserve"
   id="svg6"
   sodipodi:docname="forks_icon.svg"
   inkscape:version="1.2 (dc2aedaf03, 2022-05-15)"
   xmlns:inkscape="http://www.inkscape.org/namespaces/inkscape"
   xmlns:sodipodi="http://sodipodi.sourceforge.net/DTD/sodipodi-0.dtd"
   xmlns="http://www.w3.org/2000/svg"
   xmlns:svg="http://www.w3.org/2000/svg"><defs
     id="defs10" /><sodipodi:namedview
     id="namedview8"
     pagecolor="#ffffff"
     bordercolor="#000000"
     borderopacity="0.25"
     inkscape:showpageshadow="2"
     inkscape:pageopacity="0.0"
     inkscape:pagecheckerboard="0"
     inkscape:deskcolor="#d1d1d1"
     inkscape:document-units="mm"
     showgrid="false"
     inkscape:zoom="2.2675364"
     inkscape:cx="-2.6460435"
     inkscape:cy="56.669432"
     inkscape:window-width="1920"
     inkscape:window-height="991"
     inkscape:window-x="-9"
     inkscape:window-y="-9"
     inkscape:window-maximized="1"
     inkscape:current-layer="svg6" /><ellipse
     style="opacity:1;fill:#dadfe3;fill-opacity:1;stroke-width:0.421327;stroke-linecap:round;stroke-linejoin:round;stop-color:#000000"
     id="path578"
     cx="16.976"
     cy="16.584"
     rx="16.975691"
     ry="16.583939" /><path
     style="fill:#404852;fill-opacity:1;stroke-width:0.0334669;opacity:0.26752768"
     d="m 16.283966,27.664839 c -0.36228,-0.07867 -0.569855,-0.155689 -0.906248,-0.336266 -1.389051,-0.745645 -2.065259,-2.418156 -1.588671,-3.929373 0.177526,-0.562919 0.442109,-0.983837 0.884219,-1.406678 0.331803,-0.317341 0.512837,-0.442587 0.910721,-0.630068 l 0.295826,-0.139392 -0.01591,-0.819938 c -0.01385,-0.714178 -0.02534,-0.852283 -0.08903,-1.070702 -0.218582,-0.749589 -0.742408,-1.283832 -1.50818,-1.538171 -0.16129,-0.05357 -0.358225,-0.07998 -0.769016,-0.103146 -0.308593,-0.0174 -0.677699,-0.05967 -0.836672,-0.09582 C 11.81454,17.402804 11.104307,17.00869 10.485659,16.388168 9.949556,15.850441 9.593451,15.267602 9.380831,14.579893 9.211897,14.033486 9.180452,13.755396 9.180452,12.807813 V 11.948107 L 8.932294,11.83905 C 7.66363,11.281513 6.873104,9.9807541 6.947129,8.5725911 c 0.04447,-0.845885 0.435993,-1.662295 1.083999,-2.260356 0.895663,-0.82663 2.214215,-1.088579 3.388246,-0.673122 1.655936,0.585989 2.585357,2.454793 2.055857,4.133751 -0.305834,0.9697499 -1.123998,1.8327569 -2.031408,2.1427449 -0.05948,0.02032 -0.06179,0.06317 -0.04668,0.865928 0.01502,0.797716 0.02076,0.859398 0.103552,1.112285 0.2128,0.649978 0.625021,1.11184 1.239383,1.388632 0.278724,0.125575 0.48478,0.164498 1.067145,0.201576 1.171076,0.07456 2.094256,0.472439 2.946964,1.270105 l 0.224271,0.209795 0.237343,-0.223897 c 0.8292,-0.782226 1.757676,-1.180571 2.925971,-1.255333 0.636649,-0.04074 0.80572,-0.07612 1.136947,-0.237909 0.492731,-0.240678 0.837393,-0.583437 1.057608,-1.051767 0.181277,-0.385524 0.20486,-0.536602 0.222132,-1.423066 l 0.01599,-0.820662 -0.251786,-0.110652 c -1.891539,-0.831269 -2.586458,-3.2199569 -1.431526,-4.9206689 0.33451,-0.492588 0.786568,-0.882433 1.324653,-1.142352 0.447264,-0.216048 0.800964,-0.302881 1.321941,-0.324537 1.636702,-0.06803 3.055583,1.03347 3.396937,2.637099 0.25486,1.197296 -0.148602,2.3997879 -1.078175,3.2134309 -0.237083,0.207516 -0.61653,0.447209 -0.872575,0.551197 l -0.191179,0.07764 -0.01875,0.963949 c -0.02036,1.046463 -0.04454,1.22898 -0.238605,1.800621 -0.49766,1.465954 -1.802214,2.607597 -3.33013,2.914268 -0.14366,0.02883 -0.494632,0.06553 -0.779937,0.08154 -0.560707,0.03147 -0.790687,0.08647 -1.143525,0.273485 -0.422589,0.223982 -0.731491,0.542918 -0.950133,0.980996 -0.205451,0.41165 -0.222841,0.516532 -0.238608,1.439075 l -0.0143,0.836672 0.331398,0.158799 c 0.78385,0.375606 1.38912,1.033856 1.693,1.84119 0.153138,0.40685 0.203187,0.708813 0.201021,1.21283 -0.0017,0.392719 -0.01589,0.520481 -0.08777,0.789549 -0.161515,0.604634 -0.448852,1.093712 -0.912477,1.553131 -0.438598,0.434619 -0.897953,0.694835 -1.514389,0.857873 -0.390834,0.10337 -1.098844,0.116728 -1.505581,0.0284 z m 1.112507,-2.244193 c 0.262666,-0.09871 0.518203,-0.354274 0.616247,-0.616319 0.202197,-0.540422 -0.04264,-1.158953 -0.559166,-1.4126 -0.16454,-0.0808 -0.230062,-0.09355 -0.475317,-0.09252 -0.339395,0.0014 -0.516431,0.06906 -0.755561,0.288658 -0.229633,0.210875 -0.348785,0.480113 -0.348818,0.788198 -3.4e-5,0.423089 0.189909,0.772507 0.527521,0.970361 0.326088,0.1911 0.624792,0.213381 0.995094,0.07423 z M 10.675153,9.8226941 c 0.398997,-0.149284 0.678726,-0.525964 0.706646,-0.951561 0.029,-0.44203 -0.164254,-0.825302 -0.525258,-1.041737 -0.554814,-0.332631 -1.246926,-0.142096 -1.557654,0.428814 -0.07607,0.139775 -0.100048,0.233177 -0.111755,0.435414 -0.02155,0.372265 0.0536,0.587991 0.292626,0.840048 0.326552,0.34435 0.764506,0.450238 1.195395,0.289022 z m 13.386744,0 c 0.398998,-0.149284 0.678727,-0.525964 0.706646,-0.951561 0.029,-0.44203 -0.164253,-0.825302 -0.525258,-1.041737 -0.554814,-0.332631 -1.246925,-0.142096 -1.557653,0.428814 -0.07608,0.139775 -0.100048,0.233177 -0.111756,0.435414 -0.02155,0.372265 0.0536,0.587991 0.292627,0.840048 0.326551,0.34435 0.764506,0.450238 1.195394,0.289022 z"
     id="path305" /></svg>
