<?xml version="1.0" encoding="UTF-8"?>
<svg width="33.952mm" height="32.469mm" version="1.1" viewBox="0 0 33.952 32.469" xml:space="preserve" xmlns="http://www.w3.org/2000/svg"><g transform="translate(-251.05 -12.946)"><g transform="matrix(1.7204 0 0 1.7204 -3520.5 -704.44)"><path d="m2203 417.57 2.2257 4.51c0.1549 0.31367 0.4541 0.53102 0.8003 0.58124l4.9772 0.72327c0.8719 0.12679 1.2197 1.1979 0.5891 1.8125l-3.6015 3.5105c-0.2503 0.24411-0.3647 0.59607-0.3055 0.94062l0.8501 4.9571c0.1491 0.86816-0.7623 1.5301-1.542 1.1205l-4.4516-2.3402c-0.3095-0.1626-0.6796-0.1626-0.9892 0l-4.4516 2.3402c-0.7796 0.41-1.691-0.25235-1.5419-1.1205l0.85-4.9571c0.059-0.34455-0.055-0.69651-0.3055-0.94062l-3.6015-3.5105c-0.6306-0.615-0.2828-1.6861 0.5891-1.8125l4.9772-0.72327c0.3462-0.0503 0.6455-0.26757 0.8003-0.58124l2.2258-4.51c0.3894-0.78995 1.5157-0.78995 1.9055 0z" fill="#ffd42a" stroke-width=".41165"/></g></g></svg>
