<?xml version="1.0" encoding="UTF-8"?>
<svg width="33.952mm" height="33.168mm" version="1.1" viewBox="0 0 33.952 33.168" xml:space="preserve" xmlns="http://www.w3.org/2000/svg"><g transform="translate(-72.385 -12.784)"><path d="m84.045 45.936c-0.32299-0.06291-1.7052-0.63819-2.4835-1.0335-4.0827-2.0735-7.3079-6.0074-8.5696-10.453-0.4373-1.5411-0.60506-2.8367-0.60659-4.6864 0-1.5181 0.06265-2.1948 0.33283-3.5127 1.2573-6.1361 6.0194-11.208 12.084-12.87 3.466-0.94993 7.431-0.75744 10.696 0.51928 3.9766 1.5548 7.1759 4.4713 9.0898 8.2858 0.87447 1.743 1.4037 3.4905 1.6706 5.5168 0.10484 0.79559 0.10357 3.2869 0 4.1214-0.33245 2.6359-1.2038 5.0383-2.6 7.1683-2.0157 3.0752-4.7498 5.3179-8.0795 6.6275-1.0274 0.40405-1.3951 0.42781-1.7126 0.1106l-0.2152-0.21507-0.03961-3.0068c-0.04346-3.2182-0.06014-3.3867-0.41261-4.179-0.08695-0.19618-0.28105-0.51056-0.43052-0.69862l-0.27185-0.34194 0.54432-0.07621c1.7404-0.24358 3.096-0.72054 4.2657-1.5008 1.4224-0.94886 2.299-2.4214 2.7297-4.586 0.1418-0.7123 0.20292-2.7119 0.10229-3.3527-0.17108-1.0926-0.7117-2.3041-1.3893-3.1133l-0.26686-0.31882 0.16341-0.56276c0.29013-0.99914 0.21277-2.4002-0.19538-3.5382-0.1294-0.3611-0.17122-0.41341-0.37081-0.46488-0.61772-0.15924-2.3707 0.48324-3.8907 1.4259-0.37861 0.23482-0.58127 0.32178-0.70121 0.3009-0.09334-0.01611-0.47195-0.09334-0.84263-0.1714-2.1204-0.44688-4.4421-0.44688-6.5625 0-0.37068 0.07812-0.75172 0.15552-0.84659 0.17199-0.12403 0.02161-0.30432-0.05447-0.64431-0.27235-1.3555-0.86879-3.2745-1.5712-3.9799-1.4568-0.21417 0.03477-0.22952 0.05754-0.3882 0.57774-0.25713 0.84349-0.32234 1.2747-0.31736 2.0998 0.01275 0.61268 0.03704 0.87578 0.17134 1.3252l0.16648 0.56071-0.25586 0.30345c-0.67142 0.79623-1.2285 2.0439-1.399 3.1328-0.10101 0.64179-0.03836 2.6418 0.10229 3.352 0.34063 1.7035 1.0012 3.0586 1.9221 3.9429 0.69213 0.66463 1.8083 1.3097 2.9 1.6759 0.4745 0.15917 1.7433 0.42824 2.3412 0.49645l0.38001 0.04335-0.2588 0.32749c-0.33628 0.42546-0.57935 0.94602-0.70836 1.5174-0.10102 0.44731-0.11125 0.46146-0.38041 0.56142-0.59521 0.22041-0.9063 0.26924-1.7392 0.27295-0.8535 0.0038-0.86986 0.0013-1.3141-0.22188-0.57539-0.28869-1.0729-0.76875-1.5282-1.4746-0.65965-1.0225-1.6619-1.7428-2.5489-1.832-0.51031-0.05141-0.89071 0.05857-0.89071 0.25724 0 0.15137 0.53409 0.69202 1.0046 1.017 0.16034 0.11073 0.45021 0.40988 0.64406 0.66474 0.31608 0.41562 0.4754 0.70888 1.0587 1.9491 0.31978 0.67993 1.1236 1.3059 2.0122 1.5671 0.20113 0.05907 0.78445 0.14102 1.2963 0.18203 0.76029 0.06099 1.0493 0.05703 1.5788-0.0211l0.64815-0.09564 0.0166 1.1663c0.03328 2.3447 0.01788 2.4704-0.31263 2.6871-0.17492 0.1147-0.53077 0.17384-0.76745 0.12774z" fill="#404852" stroke-width=".066474"/></g></svg>
