<?xml version="1.0" encoding="UTF-8" standalone="no"?>
<!-- Created with Inkscape (http://www.inkscape.org/) -->

<svg
   width="33.951843mm"
   height="32.469429mm"
   viewBox="0 0 33.951843 32.469429"
   version="1.1"
   id="svg38064"
   inkscape:version="1.2 (dc2aedaf03, 2022-05-15)"
   sodipodi:docname="all.svg"
   xml:space="preserve"
   inkscape:export-filename="all.pdf"
   inkscape:export-xdpi="96"
   inkscape:export-ydpi="96"
   xmlns:inkscape="http://www.inkscape.org/namespaces/inkscape"
   xmlns:sodipodi="http://sodipodi.sourceforge.net/DTD/sodipodi-0.dtd"
   xmlns="http://www.w3.org/2000/svg"
   xmlns:svg="http://www.w3.org/2000/svg"><sodipodi:namedview
     id="namedview38066"
     pagecolor="#ffffff"
     bordercolor="#000000"
     borderopacity="0.25"
     inkscape:showpageshadow="2"
     inkscape:pageopacity="0.0"
     inkscape:pagecheckerboard="0"
     inkscape:deskcolor="#d1d1d1"
     inkscape:document-units="mm"
     showgrid="false"
     inkscape:zoom="0.73940798"
     inkscape:cx="510.54358"
     inkscape:cy="478.08518"
     inkscape:window-width="1920"
     inkscape:window-height="991"
     inkscape:window-x="-9"
     inkscape:window-y="-9"
     inkscape:window-maximized="1"
     inkscape:current-layer="layer1" /><defs
     id="defs38061" /><g
     inkscape:label="Layer 1"
     inkscape:groupmode="layer"
     id="layer1"
     transform="translate(-251.05486,-12.945901)"><g
       id="g2932"
       transform="matrix(1.720448,0,0,1.720448,-3520.5263,-704.44079)"><path
         style="fill:#ffd42a;stroke-width:0.411648"
         d="m 2203.0287,417.56914 2.2257,4.51002 c 0.1549,0.31367 0.4541,0.53102 0.8003,0.58124 l 4.9772,0.72327 c 0.8719,0.12679 1.2197,1.1979 0.5891,1.81248 l -3.6015,3.51054 c -0.2503,0.24411 -0.3647,0.59607 -0.3055,0.94062 l 0.8501,4.95706 c 0.1491,0.86816 -0.7623,1.53009 -1.542,1.12051 l -4.4516,-2.34023 c -0.3095,-0.1626 -0.6796,-0.1626 -0.9892,0 l -4.4516,2.34023 c -0.7796,0.41 -1.691,-0.25235 -1.5419,-1.12051 l 0.85,-4.95706 c 0.059,-0.34455 -0.055,-0.69651 -0.3055,-0.94062 l -3.6015,-3.51054 c -0.6306,-0.615 -0.2828,-1.6861 0.5891,-1.81248 l 4.9772,-0.72327 c 0.3462,-0.0503 0.6455,-0.26757 0.8003,-0.58124 l 2.2258,-4.51002 c 0.3894,-0.78995 1.5157,-0.78995 1.9055,0 z"
         id="path2920" /><g
         id="g2930"
         transform="translate(4.4716967,-0.56660261)" /></g></g></svg>
