<?xml version="1.0" encoding="UTF-8" standalone="no"?>
<!-- Created with Inkscape (http://www.inkscape.org/) -->

<svg
   width="33.951828mm"
   height="33.168007mm"
   viewBox="0 0 33.951828 33.168007"
   version="1.1"
   id="svg38064"
   inkscape:version="1.2 (dc2aedaf03, 2022-05-15)"
   sodipodi:docname="all.svg"
   xml:space="preserve"
   inkscape:export-filename="all.pdf"
   inkscape:export-xdpi="96"
   inkscape:export-ydpi="96"
   xmlns:inkscape="http://www.inkscape.org/namespaces/inkscape"
   xmlns:sodipodi="http://sodipodi.sourceforge.net/DTD/sodipodi-0.dtd"
   xmlns="http://www.w3.org/2000/svg"
   xmlns:svg="http://www.w3.org/2000/svg"><sodipodi:namedview
     id="namedview38066"
     pagecolor="#ffffff"
     bordercolor="#000000"
     borderopacity="0.25"
     inkscape:showpageshadow="2"
     inkscape:pageopacity="0.0"
     inkscape:pagecheckerboard="0"
     inkscape:deskcolor="#d1d1d1"
     inkscape:document-units="mm"
     showgrid="false"
     inkscape:zoom="0.73940798"
     inkscape:cx="510.54358"
     inkscape:cy="478.08518"
     inkscape:window-width="1920"
     inkscape:window-height="991"
     inkscape:window-x="-9"
     inkscape:window-y="-9"
     inkscape:window-maximized="1"
     inkscape:current-layer="layer1" /><defs
     id="defs38061" /><g
     inkscape:label="Layer 1"
     inkscape:groupmode="layer"
     id="layer1"
     transform="translate(-72.385168,-12.78361)"><path
       style="fill:#404852;fill-opacity:1;stroke-width:0.0664738"
       d="m 84.044891,45.935922 c -0.322986,-0.06291 -1.705201,-0.638186 -2.483516,-1.033454 -4.082721,-2.07348 -7.307853,-6.007443 -8.569622,-10.45316 -0.437297,-1.54109 -0.605056,-2.836692 -0.60659,-4.686422 0,-1.5181 0.06265,-2.194811 0.332832,-3.512674 1.257293,-6.136064 6.019359,-11.207704 12.084371,-12.869946 3.466026,-0.949933 7.430984,-0.757445 10.696143,0.519284 3.976592,1.554836 7.175901,4.471264 9.089771,8.285828 0.87447,1.743028 1.40371,3.490529 1.67056,5.516828 0.10484,0.795587 0.10357,3.286929 0,4.121387 -0.33245,2.635919 -1.20385,5.038305 -2.6,7.168328 -2.01566,3.075198 -4.749792,5.317894 -8.079523,6.627459 -1.027396,0.404053 -1.395132,0.42781 -1.712626,0.110604 l -0.215196,-0.21507 -0.03961,-3.00679 c -0.04346,-3.218241 -0.06014,-3.386714 -0.412614,-4.17899 -0.08695,-0.196184 -0.281051,-0.510565 -0.43052,-0.698615 l -0.271846,-0.341936 0.544325,-0.07621 c 1.740369,-0.243582 3.095987,-0.720544 4.265701,-1.500775 1.422362,-0.948858 2.299006,-2.421425 2.729659,-4.585983 0.1418,-0.712296 0.20292,-2.711871 0.10229,-3.352729 -0.171084,-1.092592 -0.711695,-2.304098 -1.389252,-3.113341 l -0.266858,-0.318817 0.163414,-0.562759 c 0.290127,-0.999136 0.212766,-2.400214 -0.195375,-3.538184 -0.129399,-0.361103 -0.171215,-0.413412 -0.370807,-0.464878 -0.617716,-0.159243 -2.370747,0.483239 -3.890677,1.425897 -0.378609,0.234823 -0.581272,0.321784 -0.70121,0.300903 -0.09334,-0.01611 -0.471951,-0.09334 -0.84263,-0.171402 -2.120382,-0.446875 -4.442144,-0.446875 -6.562526,0 -0.370679,0.07812 -0.751718,0.155522 -0.846591,0.171991 -0.124027,0.02161 -0.304321,-0.05447 -0.644314,-0.272352 -1.355498,-0.86879 -3.274492,-1.571228 -3.97992,-1.456763 -0.214169,0.03477 -0.229516,0.05754 -0.388199,0.577744 -0.257132,0.843486 -0.322345,1.274696 -0.317357,2.099833 0.01275,0.612677 0.03704,0.875785 0.171335,1.325165 l 0.166485,0.560713 -0.255857,0.303448 c -0.671418,0.796227 -1.228525,2.043867 -1.398969,3.132802 -0.101013,0.641791 -0.03836,2.641762 0.102292,3.352025 0.340631,1.703478 1.001178,3.058589 1.922058,3.942863 0.692134,0.664628 1.808269,1.309706 2.89998,1.67591 0.474501,0.159166 1.743305,0.428245 2.3412,0.496448 l 0.380012,0.04335 -0.258799,0.327488 c -0.336281,0.425457 -0.579348,0.94602 -0.708363,1.517422 -0.101015,0.447309 -0.111246,0.461464 -0.380407,0.561416 -0.595208,0.220413 -0.906303,0.269245 -1.739214,0.272952 -0.853495,0.0038 -0.86986,0.0013 -1.314068,-0.221883 -0.575387,-0.288693 -1.072908,-0.768749 -1.528236,-1.474639 -0.659653,-1.02247 -1.661857,-1.742821 -2.548854,-1.832045 -0.510308,-0.05141 -0.890706,0.05857 -0.890706,0.257238 0,0.151366 0.534091,0.692017 1.004633,1.017023 0.160343,0.110731 0.450212,0.409883 0.644055,0.664743 0.316081,0.415624 0.4754,0.708883 1.05872,1.949145 0.319785,0.679933 1.12355,1.305869 2.012205,1.567098 0.201132,0.05907 0.784449,0.141021 1.296291,0.182028 0.76029,0.06099 1.049262,0.05703 1.578752,-0.0211 l 0.648146,-0.09564 0.0166,1.166306 c 0.03328,2.344732 0.01788,2.470372 -0.312628,2.687128 -0.174919,0.114695 -0.530773,0.173845 -0.76745,0.127737 z"
       id="path2912" /></g></svg>
