<?xml version="1.0" encoding="UTF-8"?>
<svg width="33.952mm" height="19.201mm" version="1.1" viewBox="0 0 33.952 19.201" xml:space="preserve" xmlns="http://www.w3.org/2000/svg"><g transform="translate(-11.908 -82.444)"><path d="m24.66 101.13c-0.42033-0.34053-0.65693-0.84184-0.64976-1.3784 0.02163-0.83472 5.6936-15.857 6.2869-16.618 0.8679-1.114 2.8109-0.82193 3.3604 0.50517 0.29645 0.71543-3.31e-4 1.6494-2.8765 9.0495-1.7634 4.5384-3.4265 8.4149-3.6955 8.6144-0.69648 0.51699-1.6586 0.44862-2.4255-0.17252zm-9.2012-4.7649c-2.9088-2.9156-3.5506-3.7113-3.5506-4.4018 0-0.68789 0.63586-1.4846 3.4586-4.3341 3.1788-3.2089 3.5456-3.4913 4.5318-3.4913 1.2566 0 1.876 0.65375 1.876 1.9794 0 0.7207-0.46318 1.3471-2.5331 3.4268l-2.5332 2.5449 2.5332 2.5449c2.0832 2.0928 2.5331 2.7034 2.5331 3.4373 0 1.0983-0.77934 1.8529-1.9136 1.8529-0.70298 0-1.4719-0.62129-4.4022-3.559zm21.015 3.0283c-1.0359-1.1446-0.64633-2.0479 2.0528-4.7595l2.533-2.5449-2.533-2.5449c-2.0699-2.0797-2.5334-2.7061-2.5334-3.4268 0-1.3257 0.61966-1.9794 1.8762-1.9794 0.98642 0 1.3529 0.28239 4.5316 3.4913 2.8389 2.8656 3.4588 3.6438 3.4588 4.3426 0 0.70245-0.62274 1.4725-3.559 4.4018-3.0092 3.0019-3.6971 3.5504-4.453 3.5504-0.49772 0-1.1069-0.23535-1.3742-0.53069z" fill="#404852" stroke-width=".29018"/></g></svg>
