<?xml version="1.0" encoding="UTF-8" standalone="no"?>
<!-- Created with Inkscape (http://www.inkscape.org/) -->

<svg
   width="33.951813mm"
   height="41.954979mm"
   viewBox="0 0 33.951813 41.954979"
   version="1.1"
   id="svg38064"
   inkscape:version="1.2 (dc2aedaf03, 2022-05-15)"
   sodipodi:docname="all.svg"
   xml:space="preserve"
   inkscape:export-filename="all.pdf"
   inkscape:export-xdpi="96"
   inkscape:export-ydpi="96"
   xmlns:inkscape="http://www.inkscape.org/namespaces/inkscape"
   xmlns:sodipodi="http://sodipodi.sourceforge.net/DTD/sodipodi-0.dtd"
   xmlns="http://www.w3.org/2000/svg"
   xmlns:svg="http://www.w3.org/2000/svg"><sodipodi:namedview
     id="namedview38066"
     pagecolor="#ffffff"
     bordercolor="#000000"
     borderopacity="0.25"
     inkscape:showpageshadow="2"
     inkscape:pageopacity="0.0"
     inkscape:pagecheckerboard="0"
     inkscape:deskcolor="#d1d1d1"
     inkscape:document-units="mm"
     showgrid="false"
     inkscape:zoom="0.73940798"
     inkscape:cx="510.54358"
     inkscape:cy="478.08518"
     inkscape:window-width="1920"
     inkscape:window-height="991"
     inkscape:window-x="-9"
     inkscape:window-y="-9"
     inkscape:window-maximized="1"
     inkscape:current-layer="layer1" /><defs
     id="defs38061" /><g
     inkscape:label="Layer 1"
     inkscape:groupmode="layer"
     id="layer1"
     transform="translate(-186.20959,-72.076799)"><path
       style="fill:#404852;fill-opacity:1;stroke:#404852;stroke-width:0.715387;stroke-dasharray:none;stroke-opacity:1"
       d="m 188.36671,113.56771 c -0.89191,-0.31216 -1.55562,-1.08232 -1.72967,-2.00694 -0.093,-0.49448 -0.093,-36.549102 0,-37.043569 0.15115,-0.802688 0.7075,-1.534892 1.43925,-1.893988 l 0.3847,-0.188719 h 10.58573 10.58567 l 0.42996,0.215495 c 0.38068,0.190883 0.93748,0.719219 4.85949,4.611974 4.80216,4.766243 4.66394,4.608749 4.82898,5.501604 0.0439,0.23713 0.0608,5.265166 0.0495,14.625195 l -0.0162,14.264048 -0.14194,0.34633 c -0.30716,0.74849 -0.90587,1.32333 -1.63526,1.57019 -0.28879,0.0976 -1.62473,0.10712 -14.83133,0.10437 -12.92355,-0.003 -14.54591,-0.0135 -14.80712,-0.10575 z m 29.04537,-2.18412 0.14737,-0.10333 V 97.614001 83.947747 h -3.43862 c -2.94598,0 -3.49029,-0.01617 -3.79909,-0.105395 -0.9723,-0.284139 -1.68822,-1.094338 -1.85037,-2.093657 -0.0409,-0.250099 -0.0687,-1.793957 -0.0689,-3.789867 l -5.5e-4,-3.367748 h -9.64052 c -8.61799,0 -9.65615,0.01035 -9.78798,0.103334 l -0.14736,0.103324 v 18.241297 18.241255 l 0.14736,0.10333 c 0.13248,0.0928 1.59062,0.10333 14.21934,0.10333 12.62865,0 14.08693,-0.0103 14.21929,-0.10333 z m -22.36216,-7.79217 c -0.49545,-0.1506 -0.78245,-0.5591 -0.78245,-1.11303 0,-0.4202 0.19711,-0.72765 0.59521,-0.92882 l 0.29548,-0.14952 h 8.03456 8.03455 l 0.29548,0.14952 c 0.39819,0.20117 0.59522,0.50862 0.59522,0.92882 0,0.43388 -0.16007,0.75216 -0.48661,0.96835 l -0.26686,0.17629 -8.06756,0.0104 c -4.43711,0.006 -8.14838,-0.0135 -8.24723,-0.0433 z m -0.21631,-5.660515 c -0.37655,-0.213331 -0.56601,-0.523459 -0.56601,-0.926741 0,-0.433873 0.16006,-0.752146 0.4866,-0.968342 l 0.26687,-0.17628 h 8.1671 8.16699 l 0.24552,0.152754 c 0.35674,0.221715 0.51761,0.519267 0.51761,0.956888 0,0.45816 -0.18413,0.756585 -0.59526,0.96421 l -0.29546,0.149521 -8.06519,-8.56e-4 -8.06519,-8.55e-4 z m 0.0976,-5.496907 c -0.41056,-0.164663 -0.66364,-0.561699 -0.66364,-1.040862 0,-0.378541 0.17684,-0.688883 0.52681,-0.92473 l 0.22524,-0.151694 8.2342,0.01617 c 8.03756,0.01617 8.2383,0.01891 8.40388,0.146278 0.31548,0.239817 0.42201,0.445611 0.44778,0.864813 0.0189,0.335031 -5.2e-4,0.436397 -0.13033,0.625903 -0.0855,0.124378 -0.23956,0.288476 -0.34247,0.364998 l -0.18737,0.138708 -8.17394,0.01352 c -5.34032,0.01035 -8.23142,-0.01035 -8.33979,-0.0539 z m 18.51393,-13.49669 -2.75361,-2.754232 -0.0162,2.624447 c -0.0104,1.733663 0.006,2.668505 0.0519,2.754224 0.0671,0.125456 0.15764,0.129785 2.77099,0.129785 h 2.7015 z"
       id="path38059"
       sodipodi:nodetypes="sssscccsssscsscsccccscsscsscccssscssscccsssccsscsscccsssccccssscccssscsssccscscc" /></g></svg>
