<?xml version="1.0" encoding="UTF-8"?>
<svg width="33.952mm" height="41.955mm" version="1.1" viewBox="0 0 33.952 41.955" xml:space="preserve" xmlns="http://www.w3.org/2000/svg"><g transform="translate(-186.21 -72.077)"><path d="m188.37 113.57c-0.89191-0.31216-1.5556-1.0823-1.7297-2.0069-0.093-0.49448-0.093-36.549 0-37.044 0.15115-0.80269 0.7075-1.5349 1.4392-1.894l0.3847-0.18872h21.171l0.42996 0.2155c0.38068 0.19088 0.93748 0.71922 4.8595 4.612 4.8022 4.7662 4.6639 4.6087 4.829 5.5016 0.0439 0.23713 0.0608 5.2652 0.0495 14.625l-0.0162 14.264-0.14194 0.34633c-0.30716 0.74849-0.90587 1.3233-1.6353 1.5702-0.28879 0.0976-1.6247 0.10712-14.831 0.10437-12.924-3e-3 -14.546-0.0135-14.807-0.10575zm29.045-2.1841 0.14737-0.10333v-27.333h-3.4386c-2.946 0-3.4903-0.01617-3.7991-0.1054-0.9723-0.28414-1.6882-1.0943-1.8504-2.0937-0.0409-0.2501-0.0687-1.794-0.0689-3.7899l-5.5e-4 -3.3677h-9.6405c-8.618 0-9.6562 0.01035-9.788 0.10333l-0.14736 0.10332v36.483l0.14736 0.10333c0.13248 0.0928 1.5906 0.10333 14.219 0.10333 12.629 0 14.087-0.0103 14.219-0.10333zm-22.362-7.7922c-0.49545-0.1506-0.78245-0.5591-0.78245-1.113 0-0.4202 0.19711-0.72765 0.59521-0.92882l0.29548-0.14952h16.069l0.29548 0.14952c0.39819 0.20117 0.59522 0.50862 0.59522 0.92882 0 0.43388-0.16007 0.75216-0.48661 0.96835l-0.26686 0.17629-8.0676 0.0104c-4.4371 6e-3 -8.1484-0.0135-8.2472-0.0433zm-0.21631-5.6605c-0.37655-0.21333-0.56601-0.52346-0.56601-0.92674 0-0.43387 0.16006-0.75215 0.4866-0.96834l0.26687-0.17628h16.334l0.24552 0.15275c0.35674 0.22172 0.51761 0.51927 0.51761 0.95689 0 0.45816-0.18413 0.75658-0.59526 0.96421l-0.29546 0.14952-16.13-0.001711zm0.0976-5.4969c-0.41056-0.16466-0.66364-0.5617-0.66364-1.0409 0-0.37854 0.17684-0.68888 0.52681-0.92473l0.22524-0.15169 8.2342 0.01617c8.0376 0.01617 8.2383 0.01891 8.4039 0.14628 0.31548 0.23982 0.42201 0.44561 0.44778 0.86481 0.0189 0.33503-5.2e-4 0.4364-0.13033 0.6259-0.0855 0.12438-0.23956 0.28848-0.34247 0.365l-0.18737 0.13871-8.1739 0.01352c-5.3403 0.01035-8.2314-0.01035-8.3398-0.0539zm18.514-13.497-2.7536-2.7542-0.0162 2.6244c-0.0104 1.7337 6e-3 2.6685 0.0519 2.7542 0.0671 0.12546 0.15764 0.12978 2.771 0.12978h2.7015z" fill="#404852" stroke="#404852" stroke-width=".71539"/></g></svg>
