<?xml version="1.0" encoding="UTF-8" standalone="no"?>
<!-- Created with Inkscape (http://www.inkscape.org/) -->

<svg
   width="39.6875mm"
   height="39.686691mm"
   viewBox="0 0 39.6875 39.686691"
   version="1.1"
   id="svg38064"
   inkscape:version="1.2 (dc2aedaf03, 2022-05-15)"
   sodipodi:docname="simple_medal_icon_white.svg"
   xml:space="preserve"
   inkscape:export-filename="all.pdf"
   inkscape:export-xdpi="96"
   inkscape:export-ydpi="96"
   xmlns:inkscape="http://www.inkscape.org/namespaces/inkscape"
   xmlns:sodipodi="http://sodipodi.sourceforge.net/DTD/sodipodi-0.dtd"
   xmlns="http://www.w3.org/2000/svg"
   xmlns:svg="http://www.w3.org/2000/svg"><sodipodi:namedview
     id="namedview38066"
     pagecolor="#ffffff"
     bordercolor="#000000"
     borderopacity="0.25"
     inkscape:showpageshadow="2"
     inkscape:pageopacity="0.0"
     inkscape:pagecheckerboard="0"
     inkscape:deskcolor="#d1d1d1"
     inkscape:document-units="mm"
     showgrid="false"
     inkscape:zoom="0.73940798"
     inkscape:cx="269.13423"
     inkscape:cy="478.08518"
     inkscape:window-width="1920"
     inkscape:window-height="991"
     inkscape:window-x="-9"
     inkscape:window-y="-9"
     inkscape:window-maximized="1"
     inkscape:current-layer="layer1" /><defs
     id="defs38061" /><g
     inkscape:label="Layer 1"
     inkscape:groupmode="layer"
     id="layer1"
     transform="translate(-237.43005,-134.31859)"><path
       id="path2246"
       style="fill:#f9f9f9;fill-opacity:1;stroke:none;stroke-width:0.0747703;stroke-linecap:round;stroke-linejoin:round;stroke-dasharray:none;stroke-opacity:1"
       d="m 264.06515,134.31892 c -0.74829,0.0132 -0.25849,1.10403 1.34965,2.08693 0.7319,0.4481 1.00286,0.43459 1.09548,-0.0532 0.0948,-0.50651 -0.45965,-1.22311 -1.27857,-1.64987 -0.52986,-0.2758 -0.91714,-0.38929 -1.16656,-0.38401 z m -13.59606,0.0132 c -0.24986,-0.009 -0.65996,0.13108 -1.21051,0.41524 -0.89689,0.46261 -1.44658,1.22812 -1.25273,1.74383 0.15939,0.42492 0.25416,0.40732 1.3923,-0.25953 0.97142,-0.56875 1.36775,-1.03722 1.36775,-1.61538 0,-0.18387 -0.0991,-0.27844 -0.29725,-0.28416 z m 11.32753,0.37433 c -1.01794,0.009 -1.7826,0.40072 -1.40523,0.72059 0.61861,0.52407 1.57195,0.80959 2.37923,0.71277 0.45664,-0.055 0.87925,-0.14955 0.93912,-0.21025 0.0603,-0.0611 -0.168,-0.36246 -0.50488,-0.67006 -0.47688,-0.43548 -0.78963,-0.55811 -1.40825,-0.55283 z m -8.85266,0.002 c -0.51349,-0.009 -1.01493,0.13416 -1.43108,0.42227 -0.78273,0.54144 -0.89215,0.85727 -0.336,0.96596 0.88742,0.17331 1.3923,0.11877 2.14704,-0.23093 1.00631,-0.46657 1.15494,-0.73568 0.53891,-0.97493 -0.30155,-0.11656 -0.61216,-0.17682 -0.92017,-0.1821 z m -5.91642,1.0626 c -0.33601,-0.0352 -1.70979,1.06084 -1.99325,1.62027 -0.28001,0.55459 -0.21539,1.52662 0.10339,1.52662 0.0862,0 0.58329,-0.4258 1.10669,-0.94648 0.71123,-0.70758 0.95117,-1.08635 0.95117,-1.5019 0,-0.30571 -0.0517,-0.60988 -0.11631,-0.67604 -0.0431,-0.0132 -0.0431,-0.022 -0.0517,-0.022 z m 20.50242,0.0132 c -0.17231,0.009 -0.23693,0.17726 -0.23693,0.50638 0.001,0.54192 0.57811,1.43161 1.35655,2.09291 0.75689,0.64353 0.85985,0.6511 1.00157,0.0735 0.1594,-0.64714 -0.35755,-1.55583 -1.26263,-2.22624 -0.41356,-0.30659 -0.68926,-0.45606 -0.85942,-0.44677 z m -17.31201,0.65321 c -0.37048,-0.0132 -0.78834,0.0849 -1.19845,0.29779 -0.81031,0.42052 -0.8004,0.4016 -0.41356,0.83747 0.39202,0.44098 0.72157,0.47049 1.89288,0.16935 1.02743,-0.26436 1.14158,-0.42667 0.65049,-0.92808 -0.23263,-0.23665 -0.55916,-0.3629 -0.93093,-0.37653 z m 14.01305,0.0396 c -0.58285,0.003 -0.97444,0.23225 -1.03346,0.64793 -0.0431,0.32682 0.0818,0.44383 0.65738,0.59963 1.027,0.278 1.62665,0.27008 2.02427,-0.0264 0.52254,-0.39017 0.23693,-0.80074 -0.74785,-1.08279 -0.3317,-0.0946 -0.63541,-0.13944 -0.90034,-0.13768 z m -16.76362,1.52622 c -0.44285,-0.002 -0.98134,0.21642 -1.52499,0.63971 -0.66212,0.51566 -0.66039,0.77505 0,1.02961 0.42217,0.16143 0.93739,0.0264 1.95233,-0.51725 0.71381,-0.38137 0.73232,-0.4503 0.23693,-0.90526 -0.18093,-0.16407 -0.40925,-0.24545 -0.67418,-0.24676 z m 19.67574,0.0176 c -0.24987,-0.004 -0.48076,0.0651 -0.69659,0.20938 -0.25847,0.17243 -0.46869,0.37785 -0.46869,0.45694 0,0.20498 1.75287,1.10843 2.28058,1.1749 0.0646,0.009 0.31017,-0.14296 0.54452,-0.3365 l 0.42647,-0.35146 -0.63929,-0.49627 c -0.55529,-0.43195 -1.02871,-0.64916 -1.44572,-0.65734 z m -23.37792,0.16011 c -0.0431,-6.1e-4 -0.0646,0.001 -0.0948,0.009 -0.43294,0.084 -1.54264,1.80634 -1.54264,2.39445 0,0.25865 0.0948,0.64859 0.21108,0.86664 0.20247,0.3884 0.2154,0.38489 0.65264,-0.1566 0.24555,-0.30395 0.62507,-0.92166 0.84435,-1.37266 0.43078,-0.88133 0.3834,-1.72364 -0.0689,-1.73974 z m 26.90606,0.0132 c -0.51652,0.0176 -0.39633,1.32015 0.62248,2.78356 0.66945,0.95958 1.06965,0.83158 1.06965,-0.34178 0,-0.52877 -0.17232,-0.95615 -0.61905,-1.55772 -0.47215,-0.63183 -0.8383,-0.89096 -1.07308,-0.88392 z m -1.23205,2.05285 c -0.25417,-0.003 -0.46956,0.0871 -0.62292,0.27536 -0.16801,0.20586 -0.0431,0.43063 0.63024,1.05468 0.89733,0.84438 1.56979,1.00797 1.99497,0.485 0.2154,-0.267 0.14647,-0.4082 -0.53331,-1.05472 -0.51738,-0.4931 -1.04595,-0.75549 -1.46898,-0.76028 z m -24.37088,0.004 c -0.42648,-0.0132 -0.95204,0.24589 -1.48579,0.75429 -0.67892,0.64661 -0.75,0.78768 -0.53288,1.05473 0.28863,0.35409 0.56519,0.38357 1.1782,0.12448 0.23693,-0.10117 0.72717,-0.43723 1.08472,-0.74721 0.56089,-0.48632 0.61516,-0.60505 0.40063,-0.87082 -0.168,-0.20454 -0.38771,-0.30879 -0.64359,-0.31583 z m -3.94558,0.99776 c -0.18524,0.003 -0.38771,0.267 -0.65178,0.80303 -0.6031,1.23363 -0.69873,1.95203 -0.33601,2.51956 0.17231,0.2648 0.3834,0.48161 0.46956,0.48161 0.0862,0 0.32739,-0.40996 0.53546,-0.91088 0.54926,-1.33569 0.63843,-1.88544 0.39202,-2.43414 -0.13785,-0.30659 -0.26709,-0.46173 -0.41356,-0.45918 z m 32.3301,0.009 c -0.26278,0.004 -0.526,0.48122 -0.526,1.1083 0,0.74736 0.6884,2.68658 0.95377,2.68658 0.0818,0 0.28432,-0.19179 0.44414,-0.42624 0.15938,-0.23445 0.28862,-0.64432 0.28862,-0.91089 0,-0.45337 -0.48549,-1.67091 -0.90723,-2.29407 -0.0775,-0.11481 -0.16802,-0.1654 -0.25417,-0.16364 z m -30.4747,1.7068 c -0.22832,-0.0132 -0.43639,0.13152 -0.84348,0.48092 -0.65695,0.56457 -1.20749,1.52266 -1.0369,1.80453 0.20247,0.33562 0.99038,0.19486 1.53144,-0.27404 0.29294,-0.25293 0.68108,-0.72302 0.86459,-1.04496 0.32309,-0.5674 0.32309,-0.59137 -0.0431,-0.7865 -0.19816,-0.10864 -0.34463,-0.17287 -0.48119,-0.18034 z m 28.54133,0.0176 c -0.11201,0.009 -0.22832,0.0479 -0.3834,0.11965 l -0.48507,0.22565 0.34032,0.59405 c 0.50833,0.89162 1.3475,1.54347 1.89976,1.47604 0.26279,-0.0308 0.50532,-0.15044 0.54151,-0.26305 0.0948,-0.28679 -0.68711,-1.40944 -1.29925,-1.87231 -0.2714,-0.20455 -0.43122,-0.29076 -0.61431,-0.2802 z m -32.39601,1.91802 c -0.15077,0.0264 -0.26278,0.29208 -0.45275,0.85692 -0.44113,1.32274 -0.38771,2.0981 0.18523,2.68287 0.65609,0.66984 0.83314,0.42228 0.96454,-1.35098 0.0948,-1.24299 0.0603,-1.52412 -0.22832,-1.84764 -0.2111,-0.23885 -0.34894,-0.36202 -0.46654,-0.34134 z m 36.25887,0.022 c -0.12493,0.002 -0.26709,0.11789 -0.44156,0.3387 -0.30586,0.38577 -0.35324,0.6709 -0.28001,1.72998 0.0474,0.69755 0.14647,1.36633 0.22401,1.48615 0.21108,0.34618 0.62722,0.25425 0.94428,-0.20806 0.34463,-0.50449 0.37048,-1.19874 0.0819,-2.36854 -0.168,-0.66926 -0.31878,-0.98148 -0.52641,-0.97792 z m -33.7896,1.31345 c -0.49799,-0.009 -1.01967,0.42448 -1.34879,1.16522 -0.51867,1.1661 -0.48291,1.4858 0.1637,1.4858 0.29293,0 0.66901,-0.15263 0.83443,-0.33914 0.16801,-0.1865 0.47128,-0.72583 0.67978,-1.19852 0.37478,-0.8541 0.37478,-0.86061 0,-1.03339 -0.112,-0.0519 -0.22401,-0.0779 -0.34032,-0.0801 z m 31.24623,0.022 c -0.0732,0.003 -0.14216,0.0132 -0.20247,0.0264 l -0.44457,0.11393 0.3834,0.90939 c 0.50488,1.20301 0.86588,1.5802 1.51077,1.5802 0.41356,0 0.53375,-0.0888 0.53375,-0.39105 0,-0.58226 -0.69616,-1.86651 -1.1446,-2.11169 -0.1594,-0.0884 -0.41356,-0.13637 -0.63326,-0.12801 z m 3.81203,2.72255 c -0.12923,-0.009 -0.40063,0.14208 -0.65393,0.36421 -0.47343,0.41568 -0.53288,0.60584 -0.59793,1.92062 -0.0689,1.364 -0.0474,1.45888 0.31016,1.45888 0.21109,0 0.55787,-0.22742 0.77197,-0.50528 0.30586,-0.39853 0.38771,-0.78051 0.38771,-1.81052 0,-0.71783 -0.0775,-1.35459 -0.17231,-1.41502 0,-0.009 -0.0431,-0.0132 -0.0474,-0.0132 z m -38.68462,0.0999 c -0.30586,0 -0.34894,0.16495 -0.34894,1.31654 0,1.45426 0.43553,2.32701 1.1614,2.32701 0.35756,0 0.37909,-0.0959 0.31017,-1.4214 -0.0732,-1.51246 -0.4351,-2.22215 -1.12694,-2.22215 z m 35.60148,0.57531 c -0.51651,0 -0.56088,0.25952 -0.24554,1.4382 0.25847,0.96363 0.84822,1.63004 1.44572,1.63004 0.41355,0 0.44801,-0.0585 0.34463,-0.59928 -0.0646,-0.32947 -0.11632,-0.75456 -0.11632,-0.94423 0,-0.54698 -0.91413,-1.52473 -1.42547,-1.52473 z m -32.55884,0.001 c -0.2757,-0.004 -0.65522,0.16011 -0.94643,0.47647 -0.31878,0.34442 -0.46353,0.7725 -0.52513,1.5341 -0.0775,0.94915 -0.0474,1.05617 0.28001,1.05617 0.20247,0 0.5415,-0.19398 0.75646,-0.43151 0.37909,-0.41964 0.79868,-1.62375 0.80083,-2.30115 8.6e-4,-0.2217 -0.15077,-0.32991 -0.36617,-0.3343 z m -0.056,3.51994 c -0.0603,-0.001 -0.12492,0.0132 -0.21109,0.0352 -0.74225,0.2195 -1.058,0.81351 -1.058,1.99184 0,1.44049 0.18092,1.63689 0.92748,1.0176 0.48291,-0.39941 0.79739,-1.62173 0.6423,-2.49857 -0.0689,-0.39896 -0.13354,-0.54302 -0.30155,-0.54795 z m 32.55281,0.0449 c -0.19816,0.022 -0.20248,0.25909 -0.20248,1.16707 0,1.04875 0.0689,1.2975 0.46051,1.69928 0.79482,0.81116 1.04166,0.63733 1.04166,-0.73292 0,-1.35626 -0.29294,-1.95893 -1.02743,-2.10198 -0.12063,-0.022 -0.20679,-0.0396 -0.27139,-0.0308 z m -35.77853,0.0889 c -0.20678,6.2e-4 -0.29725,0.21026 -0.29725,0.63562 0,1.65282 0.66083,2.80458 1.60856,2.80458 0.47343,0 0.49282,-0.0352 0.37478,-0.71914 -0.22401,-1.29741 -0.50143,-1.9537 -0.98994,-2.34615 -0.31017,-0.24941 -0.53935,-0.37521 -0.69874,-0.37477 z m 39.01245,0.022 c -0.53805,0.009 -1.19974,0.83941 -1.46985,1.88433 -0.15077,0.5801 -0.27139,1.16258 -0.2757,1.29441 0,0.33079 0.7668,0.30088 1.25574,-0.0488 0.72157,-0.51592 1.19414,-2.99812 0.59406,-3.12028 -0.0431,-0.009 -0.0689,-0.009 -0.1077,-0.009 z m -3.78532,3.22669 c -0.25847,0 -0.65049,1.84122 -0.51178,2.40527 0.12493,0.50831 0.73708,1.23824 1.03863,1.23824 0.0991,0 0.26709,-0.32375 0.37478,-0.71911 0.32309,-1.19421 0.24555,-1.93425 -0.26278,-2.4536 -0.25416,-0.25909 -0.54063,-0.4708 -0.63842,-0.4708 z m -31.42631,0.009 c -0.15077,0.009 -0.34893,0.17111 -0.63024,0.45958 -0.51651,0.52705 -0.58888,1.2539 -0.24554,2.43148 0.12062,0.40776 0.23693,0.74123 0.26708,0.74123 0.0431,0 0.18523,-0.0537 0.35325,-0.1192 0.55184,-0.21642 0.90034,-1.1932 0.76163,-2.13598 -0.14216,-0.97599 -0.25847,-1.39101 -0.50704,-1.3772 z m 34.58397,0.97718 c -0.72501,0.0352 -1.88254,1.34209 -2.15738,2.49592 -0.10339,0.43328 -0.056,0.52297 0.31448,0.58508 0.70734,0.11788 1.40565,-0.35498 1.82265,-1.23565 0.53073,-1.11948 0.58415,-1.74427 0.15509,-1.83484 -0.0431,-0.009 -0.0905,-0.0132 -0.13785,-0.009 z m -37.63093,0.009 c -0.12493,-0.004 -0.24124,0.022 -0.34463,0.0814 -0.25416,0.14955 -0.25416,0.26612 0,1.08169 0.37479,1.19579 0.99253,1.86633 1.71368,1.86633 0.31017,0 0.61602,-0.0906 0.68323,-0.2019 h 4.3e-4 c 0.0689,-0.11129 -0.10339,-0.67762 -0.3834,-1.25922 -0.44156,-0.92259 -1.13168,-1.54299 -1.67102,-1.56819 z m 33.2214,2.26222 c -0.28864,0 -0.84176,1.45905 -0.84176,2.21691 0,0.63966 0.48938,1.48365 0.79868,1.37825 0.11201,-0.0352 0.35756,-0.36377 0.54624,-0.72583 0.61042,-1.16263 0.31017,-2.86933 -0.50316,-2.86933 z m -28.95703,0.0264 c -0.15939,-0.009 -0.32741,0.12624 -0.51393,0.39984 -0.40063,0.5842 -0.36617,1.54989 0.0905,2.45775 0.43552,0.87116 0.61042,0.92848 1.01881,0.33342 h -4.3e-4 c 0.37478,-0.54773 0.37047,-1.47225 0,-2.44648 -0.18955,-0.48831 -0.3791,-0.73415 -0.58156,-0.74462 z m 31.85622,1.68128 c -0.40924,-0.004 -0.98822,0.25205 -1.49612,0.72104 -0.41786,0.38621 -0.84778,0.86663 -0.9529,1.06704 -0.44715,0.8534 0.87278,1.24783 1.76838,0.52846 0.64489,-0.51773 1.32122,-1.66452 1.1894,-2.01536 -0.0732,-0.20146 -0.26278,-0.29823 -0.50876,-0.30131 z m -34.48661,0.0176 c -0.21539,-2.7e-4 -0.42217,0.0625 -0.61689,0.1887 -0.24555,0.1588 -0.23693,0.26965 0.0862,0.87531 0.72846,1.38102 2.13498,2.06911 2.73118,1.33562 0.18955,-0.23049 0.17663,-0.37081 -0.0646,-0.7191 -0.76507,-1.11195 -1.48966,-1.6793 -2.13454,-1.68022 z m 29.70359,1.0476 c -0.14216,-0.004 -0.28001,0.21334 -0.63412,0.78429 -0.62076,0.99961 -0.70218,1.51501 -0.35755,2.2832 0.31878,0.71334 0.65781,0.60307 1.29967,-0.42227 h -4.3e-4 c 0.63499,-1.01435 0.63326,-1.77282 0,-2.4252 -0.12923,-0.1346 -0.21539,-0.21685 -0.30154,-0.21993 z m -25.18421,0.009 c -0.0818,0.004 -0.1637,0.0831 -0.29294,0.23533 -0.68624,0.79806 -0.55313,1.79406 0.37478,2.7851 0.61474,0.65756 0.8409,0.59383 1.06146,-0.29868 0.18955,-0.76027 -0.20247,-1.95224 -0.82538,-2.52887 -0.14215,-0.13328 -0.23263,-0.19838 -0.31448,-0.1931 z m 2.35252,2.23042 c -0.0905,0.002 -0.15939,0.0902 -0.2714,0.24852 -0.51392,0.7144 -0.33601,1.61469 0.47861,2.44838 0.83185,0.84966 1.13771,0.86408 1.3475,0.0633 0.18524,-0.69737 -0.17232,-1.55834 -0.95764,-2.30863 -0.3274,-0.31451 -0.47947,-0.45395 -0.59578,-0.45135 z m 20.55153,0.0352 c -0.13784,-0.0132 -0.33171,0.16935 -0.79006,0.63931 -0.77197,0.78803 -0.98349,1.57641 -0.65652,2.44613 0.17231,0.46274 0.42648,0.37125 1.223,-0.44119 0.7961,-0.81302 0.97099,-1.72096 0.46655,-2.42515 -0.0948,-0.13152 -0.1594,-0.2107 -0.24554,-0.21906 z m 4.36257,0.1192 c -0.56217,0.022 -1.21308,0.3607 -1.97429,1.02328 -0.58716,0.51139 -0.59965,0.55054 -0.28863,0.90037 0.68582,0.77387 1.73952,0.55811 2.82639,-0.57865 0.70218,-0.73388 0.71339,-0.7674 0.35757,-1.04087 -0.28003,-0.2151 -0.58416,-0.31671 -0.9219,-0.30395 z m -29.4701,0.0132 c -0.29724,0.009 -0.54623,0.12361 -0.74138,0.34354 -0.28863,0.32595 -0.26278,0.39149 0.40925,1.06295 1.08041,1.07743 2.08888,1.25461 2.76952,0.4869 0.18093,-0.20102 0.28863,-0.39633 0.24555,-0.43372 -1.12478,-0.99059 -2.02685,-1.47946 -2.68423,-1.45954 z m 7.41125,1.54312 c -0.37047,-0.022 -0.57897,0.32286 -0.57897,1.0315 0,0.58283 0.6759,1.43218 1.39273,1.75096 0.92533,0.41128 1.04896,0.35057 1.04896,-0.51685 0,-0.66157 -0.11631,-0.91036 -0.72889,-1.5341 -0.46051,-0.4704 -0.84606,-0.71308 -1.13383,-0.73151 z m 14.91771,0.0546 c -0.39633,-0.009 -1.04423,0.36729 -1.50862,0.93108 -0.44371,0.53844 -0.6367,1.63953 -0.34032,1.94203 0.16801,0.16935 0.16801,0.16891 0.88225,-0.1368 1.12996,-0.48219 1.76278,-1.78469 1.26048,-2.59485 -0.0603,-0.0946 -0.15939,-0.139 -0.29293,-0.14164 z m -12.0995,0.73032 c -0.18955,6.1e-4 -0.20247,0.17287 -0.20247,0.77831 0,1.20331 0.68667,1.82872 2.04365,1.8611 0.62636,0.0176 0.63326,0.009 0.52427,-0.67978 -0.16801,-1.06068 -0.71382,-1.55632 -2.10655,-1.9131 -0.11201,-0.0264 -0.19386,-0.0466 -0.25847,-0.0466 z m 9.09476,0.0493 c -0.0689,0.004 -0.15077,0.0176 -0.25416,0.044 -1.27255,0.31099 -2.10052,1.16606 -2.10052,2.16936 0,0.60232 1.29365,0.54769 2.03116,-0.0858 0.59793,-0.51386 0.87148,-1.24598 0.68711,-1.83937 -0.0689,-0.21598 -0.1594,-0.29955 -0.36617,-0.28724 z m 6.98779,0.33034 c -0.2197,6.2e-4 -0.48593,0.077 -0.95979,0.22961 -1.27901,0.41173 -1.51853,0.67983 -1.1222,1.25734 0.52039,0.75882 1.36861,0.88304 2.41542,0.35365 v -3.5e-4 c 0.57941,-0.29295 1.03345,-0.74805 1.03345,-1.03638 0,-0.1434 -0.29723,-0.40468 -0.65695,-0.5805 -0.30585,-0.14956 -0.48721,-0.2239 -0.70993,-0.22302 z m -23.02511,0.0519 c -0.21539,0.004 -0.40924,0.0396 -0.56993,0.10689 -0.30586,0.12844 -0.60654,0.37609 -0.67159,0.55059 -0.22401,0.59559 1.55901,1.64275 2.43954,1.43258 0.20678,-0.0493 0.57381,-0.31319 0.81677,-0.58649 l 0.44113,-0.49666 -0.44027,-0.33914 c -0.55571,-0.42843 -1.37205,-0.68242 -2.01565,-0.66821 z m 4.10281,1.84615 c -0.59233,0.003 -1.10841,0.16979 -1.48147,0.49028 -0.31878,0.27316 -0.57812,0.6182 -0.57812,0.76705 0,0.14911 0.0431,0.27184 0.0474,0.2736 0.0431,10e-4 0.3834,0.12712 0.79782,0.27888 1.07223,0.39412 1.69385,0.35585 2.24267,-0.13856 0.66557,-0.59968 0.71597,-1.32081 0.10339,-1.50115 -0.39632,-0.11657 -0.77757,-0.17287 -1.13297,-0.17068 z m 15.35194,0.009 c -0.17231,0.002 -0.39202,0.0176 -0.66772,0.0396 -0.65479,0.0537 -1.27426,0.18298 -1.37679,0.28767 -0.26278,0.26613 0.31878,1.35749 0.84089,1.58315 0.4743,0.20498 1.5909,0.0928 2.28446,-0.23006 0.60914,-0.28327 0.60009,-0.55542 -0.0431,-1.21013 -0.36186,-0.36905 -0.51651,-0.47788 -1.04035,-0.47079 z m -4.83773,0.78688 c -0.66729,0.0132 -1.41255,0.18959 -2.17117,0.53225 -0.84907,0.38357 -0.92705,0.38797 -1.5435,0.0893 -0.35755,-0.17287 -1.17562,-0.40688 -1.82008,-0.51953 -1.55986,-0.27272 -2.43695,0.0453 -2.95949,1.07346 -0.20248,0.39985 -0.31878,0.77836 -0.25847,0.84157 0.0646,0.0629 0.52297,0.15527 1.02484,0.20454 1.00503,0.0985 1.95405,-0.27272 2.27843,-0.8918 0.24555,-0.46376 0.97659,-0.64833 1.60683,-0.4038 l 0.49584,0.19222 -0.37479,0.48804 c -0.41786,0.54122 -0.68236,1.50414 -0.49842,1.80792 0.20247,0.33122 0.47215,0.21818 0.47215,-0.19662 0,-0.21598 0.12923,-0.65405 0.29293,-0.97269 0.23693,-0.47383 0.34463,-0.5374 0.56562,-0.34926 0.15078,0.12668 0.32309,0.56752 0.38771,0.97977 0.0646,0.42448 0.21109,0.71928 0.3274,0.67943 0.37478,-0.12625 0.34032,-0.90385 -0.0732,-1.62102 -0.38771,-0.66729 -0.38771,-0.71422 -0.0732,-0.95096 0.18524,-0.13724 0.40925,-0.24897 0.49799,-0.24897 0.29293,0 0.97271,0.4192 1.51335,0.93451 0.44587,0.42492 0.70046,0.50374 1.62751,0.50374 0.6044,0 1.16356,-0.066 1.24196,-0.14604 0.0775,-0.0801 4.3e-4,-0.45219 -0.17231,-0.82581 -0.3791,-0.81196 -1.27556,-1.22676 -2.38829,-1.20081 z" /></g></svg>
