<?xml version="1.0" encoding="UTF-8"?>
<svg width="39.688mm" height="39.687mm" version="1.1" viewBox="0 0 39.688 39.687" xml:space="preserve" xmlns="http://www.w3.org/2000/svg"><g transform="translate(-237.43 -134.32)"><path d="m264.07 134.32c-0.74829 0.0132-0.25849 1.104 1.3496 2.0869 0.7319 0.4481 1.0029 0.43459 1.0955-0.0532 0.0948-0.50651-0.45965-1.2231-1.2786-1.6499-0.52986-0.2758-0.91714-0.38929-1.1666-0.38401zm-13.596 0.0132c-0.24986-9e-3 -0.65996 0.13108-1.2105 0.41524-0.89689 0.46261-1.4466 1.2281-1.2527 1.7438 0.15939 0.42492 0.25416 0.40732 1.3923-0.25953 0.97142-0.56875 1.3678-1.0372 1.3678-1.6154 0-0.18387-0.0991-0.27844-0.29725-0.28416zm11.328 0.37433c-1.0179 9e-3 -1.7826 0.40072-1.4052 0.72059 0.61861 0.52407 1.572 0.80959 2.3792 0.71277 0.45664-0.055 0.87925-0.14955 0.93912-0.21025 0.0603-0.0611-0.168-0.36246-0.50488-0.67006-0.47688-0.43548-0.78963-0.55811-1.4082-0.55283zm-8.8527 2e-3c-0.51349-9e-3 -1.0149 0.13416-1.4311 0.42227-0.78273 0.54144-0.89215 0.85727-0.336 0.96596 0.88742 0.17331 1.3923 0.11877 2.147-0.23093 1.0063-0.46657 1.1549-0.73568 0.53891-0.97493-0.30155-0.11656-0.61216-0.17682-0.92017-0.1821zm-5.9164 1.0626c-0.33601-0.0352-1.7098 1.0608-1.9932 1.6203-0.28001 0.55459-0.21539 1.5266 0.10339 1.5266 0.0862 0 0.58329-0.4258 1.1067-0.94648 0.71123-0.70758 0.95117-1.0864 0.95117-1.5019 0-0.30571-0.0517-0.60988-0.11631-0.67604-0.0431-0.0132-0.0431-0.022-0.0517-0.022zm20.502 0.0132c-0.17231 9e-3 -0.23693 0.17726-0.23693 0.50638 1e-3 0.54192 0.57811 1.4316 1.3566 2.0929 0.75689 0.64353 0.85985 0.6511 1.0016 0.0735 0.1594-0.64714-0.35755-1.5558-1.2626-2.2262-0.41356-0.30659-0.68926-0.45606-0.85942-0.44677zm-17.312 0.65321c-0.37048-0.0132-0.78834 0.0849-1.1984 0.29779-0.81031 0.42052-0.8004 0.4016-0.41356 0.83747 0.39202 0.44098 0.72157 0.47049 1.8929 0.16935 1.0274-0.26436 1.1416-0.42667 0.65049-0.92808-0.23263-0.23665-0.55916-0.3629-0.93093-0.37653zm14.013 0.0396c-0.58285 3e-3 -0.97444 0.23225-1.0335 0.64793-0.0431 0.32682 0.0818 0.44383 0.65738 0.59963 1.027 0.278 1.6266 0.27008 2.0243-0.0264 0.52254-0.39017 0.23693-0.80074-0.74785-1.0828-0.3317-0.0946-0.63541-0.13944-0.90034-0.13768zm-16.764 1.5262c-0.44285-2e-3 -0.98134 0.21642-1.525 0.63971-0.66212 0.51566-0.66039 0.77505 0 1.0296 0.42217 0.16143 0.93739 0.0264 1.9523-0.51725 0.71381-0.38137 0.73232-0.4503 0.23693-0.90526-0.18093-0.16407-0.40925-0.24545-0.67418-0.24676zm19.676 0.0176c-0.24987-4e-3 -0.48076 0.0651-0.69659 0.20938-0.25847 0.17243-0.46869 0.37785-0.46869 0.45694 0 0.20498 1.7529 1.1084 2.2806 1.1749 0.0646 9e-3 0.31017-0.14296 0.54452-0.3365l0.42647-0.35146-0.63929-0.49627c-0.55529-0.43195-1.0287-0.64916-1.4457-0.65734zm-23.378 0.16011c-0.0431-6.1e-4 -0.0646 1e-3 -0.0948 9e-3 -0.43294 0.084-1.5426 1.8063-1.5426 2.3944 0 0.25865 0.0948 0.64859 0.21108 0.86664 0.20247 0.3884 0.2154 0.38489 0.65264-0.1566 0.24555-0.30395 0.62507-0.92166 0.84435-1.3727 0.43078-0.88133 0.3834-1.7236-0.0689-1.7397zm26.906 0.0132c-0.51652 0.0176-0.39633 1.3202 0.62248 2.7836 0.66945 0.95958 1.0696 0.83158 1.0696-0.34178 0-0.52877-0.17232-0.95615-0.61905-1.5577-0.47215-0.63183-0.8383-0.89096-1.0731-0.88392zm-1.232 2.0528c-0.25417-3e-3 -0.46956 0.0871-0.62292 0.27536-0.16801 0.20586-0.0431 0.43063 0.63024 1.0547 0.89733 0.84438 1.5698 1.008 1.995 0.485 0.2154-0.267 0.14647-0.4082-0.53331-1.0547-0.51738-0.4931-1.046-0.75549-1.469-0.76028zm-24.371 4e-3c-0.42648-0.0132-0.95204 0.24589-1.4858 0.75429-0.67892 0.64661-0.75 0.78768-0.53288 1.0547 0.28863 0.35409 0.56519 0.38357 1.1782 0.12448 0.23693-0.10117 0.72717-0.43723 1.0847-0.74721 0.56089-0.48632 0.61516-0.60505 0.40063-0.87082-0.168-0.20454-0.38771-0.30879-0.64359-0.31583zm-3.9456 0.99776c-0.18524 3e-3 -0.38771 0.267-0.65178 0.80303-0.6031 1.2336-0.69873 1.952-0.33601 2.5196 0.17231 0.2648 0.3834 0.48161 0.46956 0.48161 0.0862 0 0.32739-0.40996 0.53546-0.91088 0.54926-1.3357 0.63843-1.8854 0.39202-2.4341-0.13785-0.30659-0.26709-0.46173-0.41356-0.45918zm32.33 9e-3c-0.26278 4e-3 -0.526 0.48122-0.526 1.1083 0 0.74736 0.6884 2.6866 0.95377 2.6866 0.0818 0 0.28432-0.19179 0.44414-0.42624 0.15938-0.23445 0.28862-0.64432 0.28862-0.91089 0-0.45337-0.48549-1.6709-0.90723-2.2941-0.0775-0.11481-0.16802-0.1654-0.25417-0.16364zm-30.475 1.7068c-0.22832-0.0132-0.43639 0.13152-0.84348 0.48092-0.65695 0.56457-1.2075 1.5227-1.0369 1.8045 0.20247 0.33562 0.99038 0.19486 1.5314-0.27404 0.29294-0.25293 0.68108-0.72302 0.86459-1.045 0.32309-0.5674 0.32309-0.59137-0.0431-0.7865-0.19816-0.10864-0.34463-0.17287-0.48119-0.18034zm28.541 0.0176c-0.11201 9e-3 -0.22832 0.0479-0.3834 0.11965l-0.48507 0.22565 0.34032 0.59405c0.50833 0.89162 1.3475 1.5435 1.8998 1.476 0.26279-0.0308 0.50532-0.15044 0.54151-0.26305 0.0948-0.28679-0.68711-1.4094-1.2992-1.8723-0.2714-0.20455-0.43122-0.29076-0.61431-0.2802zm-32.396 1.918c-0.15077 0.0264-0.26278 0.29208-0.45275 0.85692-0.44113 1.3227-0.38771 2.0981 0.18523 2.6829 0.65609 0.66984 0.83314 0.42228 0.96454-1.351 0.0948-1.243 0.0603-1.5241-0.22832-1.8476-0.2111-0.23885-0.34894-0.36202-0.46654-0.34134zm36.259 0.022c-0.12493 2e-3 -0.26709 0.11789-0.44156 0.3387-0.30586 0.38577-0.35324 0.6709-0.28001 1.73 0.0474 0.69755 0.14647 1.3663 0.22401 1.4862 0.21108 0.34618 0.62722 0.25425 0.94428-0.20806 0.34463-0.50449 0.37048-1.1987 0.0819-2.3685-0.168-0.66926-0.31878-0.98148-0.52641-0.97792zm-33.79 1.3134c-0.49799-9e-3 -1.0197 0.42448-1.3488 1.1652-0.51867 1.1661-0.48291 1.4858 0.1637 1.4858 0.29293 0 0.66901-0.15263 0.83443-0.33914 0.16801-0.1865 0.47128-0.72583 0.67978-1.1985 0.37478-0.8541 0.37478-0.86061 0-1.0334-0.112-0.0519-0.22401-0.0779-0.34032-0.0801zm31.246 0.022c-0.0732 3e-3 -0.14216 0.0132-0.20247 0.0264l-0.44457 0.11393 0.3834 0.90939c0.50488 1.203 0.86588 1.5802 1.5108 1.5802 0.41356 0 0.53375-0.0888 0.53375-0.39105 0-0.58226-0.69616-1.8665-1.1446-2.1117-0.1594-0.0884-0.41356-0.13637-0.63326-0.12801zm3.812 2.7226c-0.12923-9e-3 -0.40063 0.14208-0.65393 0.36421-0.47343 0.41568-0.53288 0.60584-0.59793 1.9206-0.0689 1.364-0.0474 1.4589 0.31016 1.4589 0.21109 0 0.55787-0.22742 0.77197-0.50528 0.30586-0.39853 0.38771-0.78051 0.38771-1.8105 0-0.71783-0.0775-1.3546-0.17231-1.415 0-9e-3 -0.0431-0.0132-0.0474-0.0132zm-38.685 0.0999c-0.30586 0-0.34894 0.16495-0.34894 1.3165 0 1.4543 0.43553 2.327 1.1614 2.327 0.35756 0 0.37909-0.0959 0.31017-1.4214-0.0732-1.5125-0.4351-2.2222-1.1269-2.2222zm35.601 0.57531c-0.51651 0-0.56088 0.25952-0.24554 1.4382 0.25847 0.96363 0.84822 1.63 1.4457 1.63 0.41355 0 0.44801-0.0585 0.34463-0.59928-0.0646-0.32947-0.11632-0.75456-0.11632-0.94423 0-0.54698-0.91413-1.5247-1.4255-1.5247zm-32.559 1e-3c-0.2757-4e-3 -0.65522 0.16011-0.94643 0.47647-0.31878 0.34442-0.46353 0.7725-0.52513 1.5341-0.0775 0.94915-0.0474 1.0562 0.28001 1.0562 0.20247 0 0.5415-0.19398 0.75646-0.43151 0.37909-0.41964 0.79868-1.6238 0.80083-2.3012 8.6e-4 -0.2217-0.15077-0.32991-0.36617-0.3343zm-0.056 3.5199c-0.0603-1e-3 -0.12492 0.0132-0.21109 0.0352-0.74225 0.2195-1.058 0.81351-1.058 1.9918 0 1.4405 0.18092 1.6369 0.92748 1.0176 0.48291-0.39941 0.79739-1.6217 0.6423-2.4986-0.0689-0.39896-0.13354-0.54302-0.30155-0.54795zm32.553 0.0449c-0.19816 0.022-0.20248 0.25909-0.20248 1.1671 0 1.0488 0.0689 1.2975 0.46051 1.6993 0.79482 0.81116 1.0417 0.63733 1.0417-0.73292 0-1.3563-0.29294-1.9589-1.0274-2.102-0.12063-0.022-0.20679-0.0396-0.27139-0.0308zm-35.779 0.0889c-0.20678 6.2e-4 -0.29725 0.21026-0.29725 0.63562 0 1.6528 0.66083 2.8046 1.6086 2.8046 0.47343 0 0.49282-0.0352 0.37478-0.71914-0.22401-1.2974-0.50143-1.9537-0.98994-2.3462-0.31017-0.24941-0.53935-0.37521-0.69874-0.37477zm39.012 0.022c-0.53805 9e-3 -1.1997 0.83941-1.4698 1.8843-0.15077 0.5801-0.27139 1.1626-0.2757 1.2944 0 0.33079 0.7668 0.30088 1.2557-0.0488 0.72157-0.51592 1.1941-2.9981 0.59406-3.1203-0.0431-9e-3 -0.0689-9e-3 -0.1077-9e-3zm-3.7853 3.2267c-0.25847 0-0.65049 1.8412-0.51178 2.4053 0.12493 0.50831 0.73708 1.2382 1.0386 1.2382 0.0991 0 0.26709-0.32375 0.37478-0.71911 0.32309-1.1942 0.24555-1.9342-0.26278-2.4536-0.25416-0.25909-0.54063-0.4708-0.63842-0.4708zm-31.426 9e-3c-0.15077 9e-3 -0.34893 0.17111-0.63024 0.45958-0.51651 0.52705-0.58888 1.2539-0.24554 2.4315 0.12062 0.40776 0.23693 0.74123 0.26708 0.74123 0.0431 0 0.18523-0.0537 0.35325-0.1192 0.55184-0.21642 0.90034-1.1932 0.76163-2.136-0.14216-0.97599-0.25847-1.391-0.50704-1.3772zm34.584 0.97718c-0.72501 0.0352-1.8825 1.3421-2.1574 2.4959-0.10339 0.43328-0.056 0.52297 0.31448 0.58508 0.70734 0.11788 1.4056-0.35498 1.8226-1.2356 0.53073-1.1195 0.58415-1.7443 0.15509-1.8348-0.0431-9e-3 -0.0905-0.0132-0.13785-9e-3zm-37.631 9e-3c-0.12493-4e-3 -0.24124 0.022-0.34463 0.0814-0.25416 0.14955-0.25416 0.26612 0 1.0817 0.37479 1.1958 0.99253 1.8663 1.7137 1.8663 0.31017 0 0.61602-0.0906 0.68323-0.2019h4.3e-4c0.0689-0.11129-0.10339-0.67762-0.3834-1.2592-0.44156-0.92259-1.1317-1.543-1.671-1.5682zm33.221 2.2622c-0.28864 0-0.84176 1.459-0.84176 2.2169 0 0.63966 0.48938 1.4836 0.79868 1.3782 0.11201-0.0352 0.35756-0.36377 0.54624-0.72583 0.61042-1.1626 0.31017-2.8693-0.50316-2.8693zm-28.957 0.0264c-0.15939-9e-3 -0.32741 0.12624-0.51393 0.39984-0.40063 0.5842-0.36617 1.5499 0.0905 2.4578 0.43552 0.87116 0.61042 0.92848 1.0188 0.33342h-4.3e-4c0.37478-0.54773 0.37047-1.4722 0-2.4465-0.18955-0.48831-0.3791-0.73415-0.58156-0.74462zm31.856 1.6813c-0.40924-4e-3 -0.98822 0.25205-1.4961 0.72104-0.41786 0.38621-0.84778 0.86663-0.9529 1.067-0.44715 0.8534 0.87278 1.2478 1.7684 0.52846 0.64489-0.51773 1.3212-1.6645 1.1894-2.0154-0.0732-0.20146-0.26278-0.29823-0.50876-0.30131zm-34.487 0.0176c-0.21539-2.7e-4 -0.42217 0.0625-0.61689 0.1887-0.24555 0.1588-0.23693 0.26965 0.0862 0.87531 0.72846 1.381 2.135 2.0691 2.7312 1.3356 0.18955-0.23049 0.17663-0.37081-0.0646-0.7191-0.76507-1.112-1.4897-1.6793-2.1345-1.6802zm29.704 1.0476c-0.14216-4e-3 -0.28001 0.21334-0.63412 0.78429-0.62076 0.99961-0.70218 1.515-0.35755 2.2832 0.31878 0.71334 0.65781 0.60307 1.2997-0.42227h-4.3e-4c0.63499-1.0144 0.63326-1.7728 0-2.4252-0.12923-0.1346-0.21539-0.21685-0.30154-0.21993zm-25.184 9e-3c-0.0818 4e-3 -0.1637 0.0831-0.29294 0.23533-0.68624 0.79806-0.55313 1.7941 0.37478 2.7851 0.61474 0.65756 0.8409 0.59383 1.0615-0.29868 0.18955-0.76027-0.20247-1.9522-0.82538-2.5289-0.14215-0.13328-0.23263-0.19838-0.31448-0.1931zm2.3525 2.2304c-0.0905 2e-3 -0.15939 0.0902-0.2714 0.24852-0.51392 0.7144-0.33601 1.6147 0.47861 2.4484 0.83185 0.84966 1.1377 0.86408 1.3475 0.0633 0.18524-0.69737-0.17232-1.5583-0.95764-2.3086-0.3274-0.31451-0.47947-0.45395-0.59578-0.45135zm20.552 0.0352c-0.13784-0.0132-0.33171 0.16935-0.79006 0.63931-0.77197 0.78803-0.98349 1.5764-0.65652 2.4461 0.17231 0.46274 0.42648 0.37125 1.223-0.44119 0.7961-0.81302 0.97099-1.721 0.46655-2.4252-0.0948-0.13152-0.1594-0.2107-0.24554-0.21906zm4.3626 0.1192c-0.56217 0.022-1.2131 0.3607-1.9743 1.0233-0.58716 0.51139-0.59965 0.55054-0.28863 0.90037 0.68582 0.77387 1.7395 0.55811 2.8264-0.57865 0.70218-0.73388 0.71339-0.7674 0.35757-1.0409-0.28003-0.2151-0.58416-0.31671-0.9219-0.30395zm-29.47 0.0132c-0.29724 9e-3 -0.54623 0.12361-0.74138 0.34354-0.28863 0.32595-0.26278 0.39149 0.40925 1.063 1.0804 1.0774 2.0889 1.2546 2.7695 0.4869 0.18093-0.20102 0.28863-0.39633 0.24555-0.43372-1.1248-0.99059-2.0268-1.4795-2.6842-1.4595zm7.4112 1.5431c-0.37047-0.022-0.57897 0.32286-0.57897 1.0315 0 0.58283 0.6759 1.4322 1.3927 1.751 0.92533 0.41128 1.049 0.35057 1.049-0.51685 0-0.66157-0.11631-0.91036-0.72889-1.5341-0.46051-0.4704-0.84606-0.71308-1.1338-0.73151zm14.918 0.0546c-0.39633-9e-3 -1.0442 0.36729-1.5086 0.93108-0.44371 0.53844-0.6367 1.6395-0.34032 1.942 0.16801 0.16935 0.16801 0.16891 0.88225-0.1368 1.13-0.48219 1.7628-1.7847 1.2605-2.5948-0.0603-0.0946-0.15939-0.139-0.29293-0.14164zm-12.1 0.73032c-0.18955 6.1e-4 -0.20247 0.17287-0.20247 0.77831 0 1.2033 0.68667 1.8287 2.0436 1.8611 0.62636 0.0176 0.63326 9e-3 0.52427-0.67978-0.16801-1.0607-0.71382-1.5563-2.1066-1.9131-0.11201-0.0264-0.19386-0.0466-0.25847-0.0466zm9.0948 0.0493c-0.0689 4e-3 -0.15077 0.0176-0.25416 0.044-1.2726 0.31099-2.1005 1.1661-2.1005 2.1694 0 0.60232 1.2936 0.54769 2.0312-0.0858 0.59793-0.51386 0.87148-1.246 0.68711-1.8394-0.0689-0.21598-0.1594-0.29955-0.36617-0.28724zm6.9878 0.33034c-0.2197 6.2e-4 -0.48593 0.077-0.95979 0.22961-1.279 0.41173-1.5185 0.67983-1.1222 1.2573 0.52039 0.75882 1.3686 0.88304 2.4154 0.35365v-3.5e-4c0.57941-0.29295 1.0334-0.74805 1.0334-1.0364 0-0.1434-0.29723-0.40468-0.65695-0.5805-0.30585-0.14956-0.48721-0.2239-0.70993-0.22302zm-23.025 0.0519c-0.21539 4e-3 -0.40924 0.0396-0.56993 0.10689-0.30586 0.12844-0.60654 0.37609-0.67159 0.55059-0.22401 0.59559 1.559 1.6428 2.4395 1.4326 0.20678-0.0493 0.57381-0.31319 0.81677-0.58649l0.44113-0.49666-0.44027-0.33914c-0.55571-0.42843-1.372-0.68242-2.0156-0.66821zm4.1028 1.8462c-0.59233 3e-3 -1.1084 0.16979-1.4815 0.49028-0.31878 0.27316-0.57812 0.6182-0.57812 0.76705 0 0.14911 0.0431 0.27184 0.0474 0.2736 0.0431 1e-3 0.3834 0.12712 0.79782 0.27888 1.0722 0.39412 1.6938 0.35585 2.2427-0.13856 0.66557-0.59968 0.71597-1.3208 0.10339-1.5012-0.39632-0.11657-0.77757-0.17287-1.133-0.17068zm15.352 9e-3c-0.17231 2e-3 -0.39202 0.0176-0.66772 0.0396-0.65479 0.0537-1.2743 0.18298-1.3768 0.28767-0.26278 0.26613 0.31878 1.3575 0.84089 1.5832 0.4743 0.20498 1.5909 0.0928 2.2845-0.23006 0.60914-0.28327 0.60009-0.55542-0.0431-1.2101-0.36186-0.36905-0.51651-0.47788-1.0404-0.47079zm-4.8377 0.78688c-0.66729 0.0132-1.4126 0.18959-2.1712 0.53225-0.84907 0.38357-0.92705 0.38797-1.5435 0.0893-0.35755-0.17287-1.1756-0.40688-1.8201-0.51953-1.5599-0.27272-2.437 0.0453-2.9595 1.0735-0.20248 0.39985-0.31878 0.77836-0.25847 0.84157 0.0646 0.0629 0.52297 0.15527 1.0248 0.20454 1.005 0.0985 1.954-0.27272 2.2784-0.8918 0.24555-0.46376 0.97659-0.64833 1.6068-0.4038l0.49584 0.19222-0.37479 0.48804c-0.41786 0.54122-0.68236 1.5041-0.49842 1.8079 0.20247 0.33122 0.47215 0.21818 0.47215-0.19662 0-0.21598 0.12923-0.65405 0.29293-0.97269 0.23693-0.47383 0.34463-0.5374 0.56562-0.34926 0.15078 0.12668 0.32309 0.56752 0.38771 0.97977 0.0646 0.42448 0.21109 0.71928 0.3274 0.67943 0.37478-0.12625 0.34032-0.90385-0.0732-1.621-0.38771-0.66729-0.38771-0.71422-0.0732-0.95096 0.18524-0.13724 0.40925-0.24897 0.49799-0.24897 0.29293 0 0.97271 0.4192 1.5134 0.93451 0.44587 0.42492 0.70046 0.50374 1.6275 0.50374 0.6044 0 1.1636-0.066 1.242-0.14604 0.0775-0.0801 4.3e-4 -0.45219-0.17231-0.82581-0.3791-0.81196-1.2756-1.2268-2.3883-1.2008z" fill="#f9f9f9"/></g></svg>
