<?xml version="1.0" encoding="UTF-8"?>
<svg width="39.688mm" height="39.686mm" version="1.1" viewBox="0 0 39.688 39.686" xml:space="preserve" xmlns="http://www.w3.org/2000/svg"><g transform="translate(-160.92 -135.15)"><g transform="matrix(5.173 0 0 5.1729 -3046.5 -192.37)"><path d="m623.3 70.955c-0.7568-0.10907-1.5149-0.48269-2.0799-1.0251-0.762-0.73154-1.148-1.5856-1.1892-2.6306-0.029-0.73732 0.092-1.2739 0.4386-1.945 0.4971-0.96268 1.4129-1.6788 2.4901-1.9472 0.3566-0.0889 1.1119-0.1221 1.4694-0.0646 1.5495 0.24917 2.7656 1.3489 3.162 2.8593 0.1151 0.43888 0.1418 1.1131 0.062 1.5792-0.2777 1.6312-1.5511 2.8948-3.1842 3.1596-0.3348 0.0543-0.8484 0.0606-1.1693 0.0143zm0.445-0.2618c0-0.0372 0.023-0.11238 0.052-0.16716 0.042-0.0815 0.06-0.0924 0.099-0.06 0.026 0.0218 0.057 0.0976 0.068 0.16844 0.012 0.073 0.037 0.12361 0.057 0.11676 0.066-0.0217 0.06-0.15535-0.013-0.27864-0.068-0.11472-0.068-0.12279-0.013-0.16349 0.032-0.0236 0.072-0.0428 0.087-0.0428 0.051 0 0.1708 0.0721 0.2657 0.16062 0.078 0.0731 0.123 0.0866 0.2857 0.0866 0.106 0 0.2042-0.0113 0.218-0.0251 0.014-0.0138 1e-4 -0.0777-0.03-0.14194-0.1065-0.22332-0.4454-0.27197-0.8005-0.11492-0.1489 0.0659-0.1626 0.0667-0.2708 0.0153-0.063-0.0298-0.2064-0.0699-0.3195-0.0893-0.2738-0.0469-0.4277 8e-3 -0.5194 0.18449-0.036 0.0687-0.056 0.13383-0.045 0.1447 0.011 0.0109 0.092 0.0267 0.1799 0.0351 0.1764 0.017 0.3429-0.0469 0.3999-0.15333 0.043-0.0797 0.1715-0.11141 0.2821-0.0694l0.087 0.0331-0.066 0.0839c-0.073 0.093-0.1198 0.25853-0.088 0.31075 0.035 0.057 0.083 0.0375 0.083-0.0338zm-1.0074-0.40219c0.1169-0.10309 0.1258-0.22707 0.019-0.25807-0.185-0.0534-0.3543-0.0331-0.459 0.055-0.056 0.0469-0.1015 0.10627-0.1015 0.13186 0 0.0256 0.01 0.0467 0.01 0.047 0.01 2e-4 0.068 0.0219 0.1401 0.048 0.1882 0.0678 0.2972 0.0612 0.3936-0.0238zm2.7041 3e-3c0.1069-0.0487 0.1053-0.0955-0.01-0.20808-0.084-0.0846-0.1047-0.0896-0.2996-0.074-0.115 9e-3 -0.2239 0.0315-0.2419 0.0495-0.046 0.0457 0.056 0.23338 0.1477 0.27217 0.083 0.0352 0.2792 0.0159 0.401-0.0396zm-3.251-0.34893 0.077-0.0854-0.077-0.0583c-0.1302-0.0982-0.3414-0.14306-0.454-0.0965-0.053 0.0221-0.1063 0.0647-0.1178 0.0946-0.039 0.10238 0.2737 0.28239 0.4282 0.24626 0.036-9e-3 0.1008-0.0538 0.1434-0.10081zm1.2799 4e-3c-0.03-0.18234-0.1254-0.26753-0.3698-0.32888-0.077-0.0193-0.081-0.0129-0.081 0.12585 0 0.20687 0.1205 0.31434 0.3587 0.3199 0.11 2e-3 0.1112 1e-3 0.092-0.11687zm1.1254 0.0372c0.105-0.0883 0.153-0.21413 0.1206-0.31614-0.016-0.0495-0.039-0.0586-0.1084-0.042-0.2234 0.0535-0.3686 0.20044-0.3686 0.37291 0 0.10354 0.227 0.0941 0.3564-0.0148zm1.3413 8e-3c0.1017-0.0503 0.1813-0.12859 0.1813-0.17816 0-0.0247-0.052-0.0696-0.1153-0.0998-0.1078-0.0514-0.1267-0.0513-0.2931 1e-3 -0.2246 0.0708-0.2665 0.11686-0.197 0.21614 0.091 0.13045 0.2402 0.15178 0.4241 0.0608zm-3.0494-0.12701c0-0.11372-0.021-0.1565-0.1279-0.26373-0.1848-0.18481-0.3006-0.16495-0.3006 0.0516 0 0.10019 0.1186 0.24624 0.2444 0.30103 0.1624 0.0707 0.1841 0.0602 0.1841-0.0889zm2.1218 0.0903c0.1984-0.0829 0.3095-0.30679 0.2213-0.44606-0.041-0.065-0.2076 7e-3 -0.3164 0.13569-0.078 0.0926-0.1117 0.28185-0.06 0.33384 0.029 0.029 0.029 0.029 0.1549-0.0234zm-2.6773-0.2994c0.032-0.11989-0.03-0.26789-0.1681-0.39688-0.1024-0.0961-0.1067-0.0971-0.1524-0.0349-0.09 0.12281-0.059 0.2776 0.084 0.42093 0.1461 0.14606 0.1997 0.14852 0.2365 0.0109zm3.2956-0.0139c0.1397-0.13976 0.1704-0.29585 0.082-0.4169-0.044-0.0602-0.052-0.057-0.1813 0.0722-0.1355 0.13546-0.1726 0.271-0.1152 0.42051 0.03 0.0795 0.075 0.0639 0.2146-0.0758zm-3.9402-0.10626c0.032-0.0346 0.051-0.0681 0.043-0.0745-0.2871-0.24771-0.4917-0.31301-0.6012-0.19192-0.051 0.0561-0.046 0.0673 0.072 0.18271 0.1896 0.18522 0.3666 0.21571 0.486 0.0837zm4.8441-0.0966c0.1231-0.12616 0.1251-0.13191 0.063-0.17891-0.1304-0.0986-0.2947-0.0586-0.5084 0.12363-0.1031 0.0879-0.1053 0.0946-0.051 0.15475 0.1203 0.13303 0.3053 0.096 0.4962-0.0995zm-4.6851-0.17323c0.033-0.1307-0.036-0.33561-0.1448-0.43475-0.051-0.0457-0.061-0.045-0.1069 7e-3 -0.1205 0.1372-0.097 0.30843 0.065 0.4788 0.1078 0.11304 0.1476 0.10208 0.1863-0.0513zm4.2744-0.0152c0.1115-0.17437 0.1111-0.30474 0-0.41688-0.062-0.0617-0.064-0.06-0.164 0.097-0.1089 0.17184-0.1232 0.26045-0.063 0.39251 0.056 0.12264 0.1154 0.10367 0.2281-0.0726zm-4.8817-0.22235c0.033-0.0397 0.031-0.0638-0.011-0.12362-0.1791-0.25488-0.3455-0.34326-0.4829-0.2564-0.043 0.0272-0.042 0.0464 0.015 0.15048 0.1279 0.2374 0.3748 0.35563 0.4795 0.22954zm5.5481-0.0172c0.1132-0.089 0.232-0.28613 0.2089-0.34644-0.036-0.0924-0.2094-0.0568-0.3521 0.0722-0.073 0.0664-0.1488 0.14897-0.1672 0.18343-0.079 0.1467 0.1532 0.21451 0.3104 0.0909zm-5.3685-0.13866c0.066-0.0942 0.065-0.25307 0-0.42056-0.06-0.14923-0.1169-0.16687-0.1924-0.0593-0.07 0.10043-0.064 0.26647 0.015 0.42254 0.076 0.14976 0.1071 0.15959 0.1788 0.0573zm5.0674-0.0598c0.1072-0.19987 0.055-0.49325-0.088-0.49325-0.051 0-0.1477 0.25085-0.1477 0.38112 0 0.10997 0.086 0.25508 0.1402 0.23696 0.019-6e-3 0.062-0.0626 0.096-0.12483zm0.6825-0.5665c0.093-0.19246 0.1026-0.29988 0.027-0.31546-0.1239-0.0257-0.3517 0.21568-0.4031 0.42726-0.018 0.0745-0.01 0.0899 0.055 0.1006 0.1241 0.0203 0.2466-0.061 0.3199-0.2124zm-6.2414 0.17043c0.012-0.0191-0.019-0.1165-0.067-0.21649-0.096-0.1952-0.2568-0.31165-0.354-0.25559-0.044 0.0257-0.044 0.0457 0 0.18593 0.066 0.20556 0.1743 0.32085 0.3009 0.32085 0.054 0 0.1081-0.0156 0.12-0.0347zm0.1293-0.0517c0.097-0.0372 0.1581-0.20511 0.1337-0.36718-0.04-0.26845-0.067-0.28998-0.1997-0.15777-0.091 0.0906-0.1033 0.21555-0.043 0.41798 0.021 0.0701 0.042 0.12745 0.047 0.12745 0.01 0 0.033-9e-3 0.062-0.0205zm5.7193-0.10314c0.057-0.2053 0.043-0.33252-0.046-0.42181-0.044-0.0445-0.095-0.0809-0.1122-0.0809-0.046 0-0.1141 0.31652-0.09 0.41349 0.022 0.0874 0.1295 0.21285 0.1824 0.21285 0.018 0 0.047-0.0556 0.066-0.12361zm-6.0454-0.59339c-0.039-0.22303-0.088-0.33586-0.1737-0.40331-0.1247-0.098-0.1745-0.0852-0.1745 0.0448 0 0.28413 0.1159 0.48213 0.2823 0.48213 0.083 0 0.087-6e-3 0.066-0.12363zm6.4658 0.0741c0.1266-0.0887 0.2096-0.51545 0.1043-0.53645-0.097-0.0193-0.2259 0.13067-0.2765 0.32228-0.026 0.0997-0.048 0.19985-0.049 0.22252-5e-4 0.0569 0.1347 0.0517 0.2205-8e-3zm-6.2557-0.0412c0.085-0.0687 0.1399-0.27881 0.1127-0.42954-0.016-0.0914-0.03-0.105-0.09-0.0878-0.1302 0.0377-0.1856 0.13987-0.1856 0.34243 0 0.24764 0.032 0.28136 0.1628 0.17491zm6.0018-0.14924c0-0.23315-0.052-0.33678-0.1803-0.36137-0.082-0.0157-0.083-0.0129-0.083 0.19527 0 0.18029 0.012 0.22306 0.081 0.29212 0.1394 0.13944 0.1828 0.10954 0.1828-0.12602zm-6.2687-0.6967c-0.013-0.26001-0.076-0.38203-0.1977-0.38203-0.053 0-0.061 0.0283-0.061 0.22631 0 0.25001 0.076 0.40005 0.2038 0.40005 0.063 0 0.066-0.0164 0.055-0.24433zm0.26 0.17015c0.067-0.0722 0.1403-0.27913 0.1406-0.39559 2e-4 -0.0871-0.1395-0.0722-0.2303 0.0244-0.055 0.0592-0.081 0.13281-0.092 0.26373-0.014 0.16317-0.01 0.18157 0.049 0.18157 0.036 0 0.095-0.0334 0.1328-0.0742zm6.0623-0.0288c-0.011-0.0566-0.021-0.1297-0.021-0.1623 0-0.094-0.1604-0.26214-0.2501-0.26214-0.091 0-0.098 0.0446-0.043 0.24725 0.045 0.16565 0.1489 0.28021 0.2538 0.28021 0.073 0 0.079-0.0101 0.06-0.10302zm0.2407 0.0161c0.054-0.0685 0.068-0.13416 0.068-0.31123 0-0.12341-0.014-0.23287-0.03-0.24327-0.017-0.0104-0.072 0.0168-0.1228 0.0604-0.083 0.0715-0.093 0.1041-0.1049 0.33013-0.012 0.23448-0.01 0.25081 0.054 0.25081 0.037 0 0.098-0.0391 0.1355-0.0869zm-6.4354-0.88161c0.016-0.21367 0.01-0.26195-0.04-0.31756-0.085-0.0938-0.1025-0.084-0.1614 0.0886-0.077 0.22739-0.068 0.36067 0.033 0.46119 0.1151 0.11517 0.1462 0.0725 0.1693-0.23228zm0.2498 0.25086c0.029-0.032 0.083-0.12476 0.1193-0.20603 0.066-0.14682 0.066-0.14794 0-0.17764-0.1027-0.0472-0.225 0.0298-0.2962 0.18651-0.091 0.20046-0.085 0.25545 0.029 0.25545 0.051 0 0.1176-0.0263 0.1466-0.0583zm5.8584-9e-3c0-0.10009-0.1222-0.32086-0.201-0.36301-0.038-0.0203-0.104-0.0281-0.147-0.0172l-0.078 0.0196 0.067 0.15629c0.089 0.2068 0.152 0.27166 0.2652 0.27166 0.072 0 0.094-0.0154 0.094-0.0672zm0.2123-0.039c0.061-0.0867 0.065-0.20607 0.015-0.40718-0.046-0.18407-0.088-0.211-0.1699-0.10993-0.054 0.0663-0.062 0.11538-0.049 0.29744 0.01 0.11992 0.026 0.23488 0.039 0.25548 0.037 0.0595 0.11 0.0437 0.1657-0.0358zm-5.8272-0.56619c0.051-0.0435 0.1195-0.12433 0.1517-0.17967 0.057-0.0975 0.057-0.10168-0.01-0.13523-0.093-0.0499-0.1183-0.0444-0.2325 0.0517-0.1154 0.0971-0.2121 0.26176-0.1821 0.31022 0.036 0.0577 0.1738 0.0336 0.2689-0.047zm5.4071 0.0274c0.016-0.0493-0.1206-0.24229-0.2281-0.32186-0.076-0.0562-0.1028-0.0605-0.1748-0.0276l-0.085 0.0388 0.06 0.10215c0.089 0.15328 0.2366 0.26535 0.3334 0.25375 0.046-5e-3 0.089-0.0258 0.095-0.0452zm-5.6684-0.17083c0.097-0.22961 0.1121-0.32409 0.069-0.41841-0.055-0.12055-0.1049-0.10475-0.1867 0.0591-0.1059 0.21207-0.1227 0.33558-0.059 0.43314 0.03 0.0455 0.067 0.0828 0.082 0.0828 0.016 0 0.058-0.0705 0.094-0.1566zm5.8248 0.0833c0.028-0.0403 0.051-0.11076 0.051-0.15659 0-0.0779-0.085-0.28725-0.1593-0.39437-0.055-0.0789-0.1367 0.0186-0.1367 0.16235 0 0.12848 0.1209 0.46188 0.1674 0.46188 0.015 0 0.05-0.033 0.078-0.0733zm-5.283-0.41984c0.042-0.0174 0.1277-0.0752 0.1904-0.1284 0.099-0.0836 0.1081-0.10405 0.07-0.14973-0.078-0.0939-0.2238-0.0644-0.3738 0.0754-0.1192 0.11115-0.1316 0.1354-0.094 0.18131 0.051 0.0609 0.099 0.0659 0.2069 0.0214zm4.7769-0.0214c0.038-0.0459 0.026-0.0701-0.094-0.18131-0.1454-0.13563-0.2954-0.1697-0.3672-0.0834-0.029 0.0354-0.01 0.074 0.1106 0.18132 0.1575 0.14516 0.2756 0.17326 0.3502 0.0833zm-4.8463-0.36818c0.08-0.16161 0.066-0.31559-0.029-0.2977-0.076 0.0144-0.2708 0.3105-0.2708 0.4116 0 0.0445 0.016 0.11152 0.036 0.149 0.036 0.0668 0.038 0.0662 0.1147-0.0269 0.043-0.0523 0.1096-0.15848 0.1481-0.23601zm5.0081 0.12301c0-0.0909-0.03-0.16435-0.1086-0.26778-0.2652-0.34758-0.3398-0.0394-0.079 0.32657 0.1175 0.16496 0.1877 0.14296 0.1877-0.0588zm-4.2937-0.25414c0.1253-0.0656 0.1285-0.0774 0.042-0.15565-0.083-0.0752-0.2335-0.0489-0.3862 0.0675-0.1161 0.0886-0.1158 0.13323 0 0.17699 0.074 0.0278 0.1647 4e-3 0.3428-0.0889zm3.6688 0.0633 0.075-0.0604-0.1122-0.0854c-0.1561-0.1188-0.2751-0.14311-0.3761-0.0769-0.045 0.0296-0.082 0.0649-0.082 0.0785 0 0.0353 0.3076 0.19056 0.4001 0.20199 0.012 1e-3 0.055-0.0245 0.096-0.0578zm-3.9595-0.26711c0.1249-0.12163 0.1671-0.18679 0.1671-0.25823 0-0.0526-0.01-0.10484-0.021-0.11621-0.035-0.0351-0.3061 0.1721-0.3591 0.27468-0.049 0.0953-0.037 0.26245 0.019 0.26245 0.015 0 0.1024-0.0732 0.1943-0.16269zm4.1085 0.0838c0.028-0.11125-0.062-0.26746-0.2216-0.3827-0.1455-0.10543-0.1927-0.10291-0.1923 0.0103 2e-4 0.0932 0.1015 0.2461 0.2381 0.35979 0.1329 0.11062 0.1509 0.11192 0.1758 0.0127zm-3.3621-0.12298c0.1804-0.0454 0.2004-0.0734 0.1142-0.15957-0.081-0.0813-0.2298-0.0867-0.3737-0.0135-0.1423 0.0723-0.1406 0.069-0.073 0.14395 0.069 0.0758 0.1266 0.0809 0.3323 0.0291zm2.6998-8e-3c0.092-0.0671 0.042-0.13767-0.1312-0.18616-0.1859-0.052-0.3245-0.0163-0.3394 0.0877-0.01 0.0562 0.015 0.0763 0.1154 0.10307 0.1802 0.0478 0.2854 0.0464 0.3552-5e-3zm-2.893-0.25233c0.1705-0.0978 0.2402-0.17834 0.2402-0.27772 0-0.0722-0.093-0.0643-0.2647 0.0226-0.1573 0.0795-0.2538 0.21111-0.2198 0.29976 0.028 0.073 0.044 0.07 0.2443-0.0445zm3.0038 0.0207c0.017-0.0871-0.081-0.21031-0.2244-0.28367-0.3719-0.18975-0.3437 0.0675 0.032 0.29277 0.1286 0.077 0.176 0.0748 0.1923-9e-3zm-2.3144-0.0836c0.1767-0.0802 0.2027-0.12647 0.095-0.1676-0.1406-0.0535-0.2958-0.0379-0.4127 0.0413-0.1374 0.0931-0.1566 0.14734-0.059 0.16604 0.1558 0.0298 0.2444 0.0204 0.3769-0.0397zm1.8228 0.0109c0.01-0.0105-0.029-0.0623-0.089-0.11524-0.084-0.0749-0.1386-0.0959-0.2473-0.095-0.1787 2e-3 -0.3129 0.0689-0.2466 0.12389 0.1085 0.0901 0.2759 0.13919 0.4176 0.12254 0.08-9e-3 0.1544-0.0257 0.1648-0.0362z" fill="#a77044" stroke-width=".032966"/><path d="m625.06 63.937c-0.1313 3e-3 -0.045 0.18979 0.2369 0.35876 0.1286 0.077 0.1761 0.0747 0.1923-9e-3 0.017-0.0871-0.081-0.21027-0.2244-0.28363-0.093-0.0474-0.1609-0.067-0.2048-0.066zm-2.3865 2e-3c-0.044-1e-3 -0.1158 0.0225-0.2125 0.0714-0.1574 0.0795-0.2539 0.21113-0.2199 0.29978 0.028 0.073 0.044 0.07 0.2444-0.0446 0.1704-0.0978 0.2401-0.17832 0.2401-0.27771 0-0.0316-0.017-0.0478-0.052-0.0489zm1.9883 0.0643c-0.1787 2e-3 -0.3129 0.0689-0.2466 0.12388 0.1085 0.0901 0.2759 0.13917 0.4176 0.12253 0.08-0.01 0.1544-0.0257 0.1648-0.0362 0.01-0.0105-0.029-0.0623-0.089-0.11519-0.084-0.0748-0.1386-0.0959-0.2473-0.095zm-1.5539 5.1e-4c-0.09-2e-3 -0.1781 0.023-0.2513 0.0726-0.1373 0.0931-0.1565 0.14736-0.059 0.16605 0.1559 0.0298 0.2445 0.0204 0.3769-0.0398 0.1767-0.0802 0.2028-0.12647 0.095-0.1676-0.053-0.02-0.1074-0.0304-0.1615-0.0313zm-1.0385 0.18266c-0.059-6e-3 -0.3002 0.18237-0.3499 0.27854-0.049 0.0953-0.037 0.26244 0.019 0.26244 0.015 0 0.1024-0.0732 0.1943-0.16271 0.1248-0.12163 0.167-0.18675 0.167-0.25819 0-0.0526-0.01-0.10484-0.021-0.11621 0-2e-3 -0.01-3e-3 -0.01-4e-3zm3.5988 2e-3c-0.03 2e-3 -0.042 0.0305-0.042 0.0871 3e-4 0.0932 0.1015 0.2461 0.2381 0.35979 0.1329 0.11063 0.151 0.11193 0.1759 0.0127 0.028-0.11126-0.063-0.26747-0.2217-0.38271-0.073-0.0527-0.1209-0.0784-0.1508-0.0768zm-3.0388 0.11229c-0.065-2e-3 -0.1384 0.0146-0.2103 0.0512-0.1423 0.0723-0.1406 0.069-0.073 0.14397 0.069 0.0758 0.1266 0.0809 0.3323 0.0291 0.1802-0.0454 0.2003-0.0733 0.1141-0.15955-0.041-0.0407-0.098-0.0624-0.1634-0.0647zm2.4597 7e-3c-0.1023 5.8e-4 -0.171 0.0399-0.1813 0.11139-0.01 0.0562 0.015 0.0763 0.1154 0.10308 0.1802 0.0478 0.2854 0.0464 0.3552-5e-3 0.092-0.0671 0.042-0.13766-0.1312-0.18615-0.058-0.0163-0.1115-0.024-0.1581-0.0237zm-2.9425 0.26237c-0.078-4e-4 -0.1723 0.0372-0.2677 0.10998-0.1162 0.0886-0.1159 0.13323 0 0.17699 0.074 0.0278 0.1647 4e-3 0.3427-0.0889 0.1253-0.0656 0.1286-0.0774 0.042-0.15562-0.031-0.0282-0.072-0.0421-0.1184-0.0424zm3.4537 3e-3c-0.044-1e-3 -0.084 0.0112-0.1222 0.0361-0.045 0.0296-0.082 0.065-0.082 0.0786 0 0.0353 0.3077 0.19055 0.4002 0.20198 0.012 1e-3 0.055-0.0245 0.096-0.0578l0.075-0.0605-0.1121-0.0853c-0.098-0.0743-0.1807-0.1116-0.254-0.113zm-4.1036 0.0275c-0.01-1e-4 -0.011 2e-4 -0.017 1e-3 -0.076 0.0144-0.2707 0.31053-0.2707 0.41162 0 0.0444 0.016 0.11151 0.036 0.14899 0.036 0.0668 0.038 0.0662 0.1146-0.0269 0.043-0.0523 0.1097-0.15845 0.1482-0.23598 0.075-0.1515 0.067-0.2963-0.012-0.29907zm4.723 2e-3c-0.091 3e-3 -0.07 0.22694 0.1092 0.47852 0.1175 0.16496 0.1877 0.14296 0.1877-0.0588 0-0.0909-0.03-0.16436-0.1086-0.26778-0.083-0.10861-0.1472-0.15317-0.1883-0.15195zm-0.2163 0.3529c-0.044-5e-4 -0.082 0.015-0.1094 0.0473-0.029 0.0354-0.01 0.074 0.1106 0.18131 0.1575 0.14516 0.2756 0.17328 0.3502 0.0834 0.038-0.0459 0.026-0.0702-0.093-0.18131-0.091-0.0848-0.1836-0.12988-0.2579-0.1307zm-4.2779 1e-3c-0.075-2e-3 -0.1671 0.0422-0.2608 0.12967-0.1192 0.11116-0.1317 0.13541-0.094 0.18132 0.051 0.0609 0.099 0.066 0.2068 0.0214 0.042-0.0174 0.1277-0.0752 0.1904-0.12845 0.099-0.0836 0.1081-0.10402 0.07-0.1497-0.029-0.0352-0.068-0.0531-0.113-0.0543zm-0.6926 0.17153c-0.032 5e-4 -0.068 0.0459-0.1144 0.13804-0.1059 0.21208-0.1227 0.33557-0.059 0.43312 0.03 0.0456 0.067 0.0828 0.082 0.0828 0.016 0 0.058-0.0705 0.094-0.15659 0.097-0.22962 0.1121-0.32413 0.069-0.41844-0.024-0.0527-0.047-0.0794-0.072-0.0789zm5.675 2e-3c-0.046 1e-3 -0.092 0.0827-0.092 0.19052 0 0.12848 0.1208 0.46184 0.1673 0.46184 0.015 0 0.05-0.033 0.078-0.0733s0.051-0.11076 0.051-0.15659c0-0.0779-0.085-0.28724-0.1593-0.39436-0.013-0.0197-0.029-0.0284-0.044-0.0281zm-5.3493 0.2934c-0.04-2e-3 -0.077 0.0226-0.1481 0.0827-0.1153 0.0971-0.2119 0.26177-0.182 0.31022 0.036 0.0577 0.1738 0.0335 0.2688-0.0471 0.052-0.0434 0.1195-0.12429 0.1518-0.17963 0.057-0.0976 0.057-0.10167-0.01-0.13521-0.035-0.0187-0.06-0.0297-0.084-0.031zm5.01 3e-3c-0.019 1e-3 -0.04 8e-3 -0.067 0.0205l-0.085 0.0389 0.059 0.10212c0.089 0.15328 0.2366 0.26534 0.3335 0.25374 0.046-5e-3 0.089-0.0258 0.095-0.0452 0.016-0.0493-0.1207-0.24229-0.2281-0.32186-0.047-0.0351-0.076-0.05-0.1078-0.0481zm-5.6867 0.32973c-0.026 5e-3 -0.046 0.0502-0.08 0.14731-0.077 0.22739-0.068 0.36067 0.033 0.4612 0.1151 0.11516 0.1462 0.0726 0.1693-0.23225 0.016-0.21367 0.01-0.26201-0.04-0.31761-0.037-0.041-0.061-0.0622-0.082-0.0587zm6.3647 4e-3c-0.022 4e-4 -0.047 0.0203-0.078 0.0582-0.054 0.0663-0.062 0.11534-0.049 0.29739 0.01 0.11992 0.026 0.23488 0.039 0.25549 0.037 0.0595 0.11 0.0437 0.1657-0.0358 0.061-0.0867 0.065-0.20607 0.015-0.40718-0.029-0.11504-0.056-0.16872-0.092-0.16811zm-5.9312 0.2258c-0.087-2e-3 -0.179 0.073-0.2368 0.20031-0.091 0.20046-0.085 0.25542 0.029 0.25542 0.051 0 0.1176-0.0262 0.1466-0.0583s0.083-0.12478 0.1193-0.20604c0.066-0.14682 0.066-0.14794 0-0.17764-0.019-9e-3 -0.039-0.0134-0.059-0.0138zm5.4847 4e-3c-0.013 5.1e-4 -0.025 2e-3 -0.036 5e-3l-0.078 0.0195 0.067 0.15633c0.089 0.2068 0.152 0.27164 0.2652 0.27164 0.072 0 0.094-0.0153 0.094-0.0672 0-0.1001-0.1222-0.32087-0.201-0.36302-0.029-0.0152-0.073-0.0234-0.1112-0.022zm0.6692 0.46803c-0.023-1e-3 -0.07 0.0244-0.1148 0.0626-0.083 0.0715-0.093 0.10413-0.1049 0.33017-0.012 0.23447-0.01 0.25078 0.054 0.25078 0.037 0 0.098-0.0391 0.1354-0.0869 0.054-0.0686 0.068-0.13417 0.068-0.31123 0-0.12341-0.014-0.23286-0.03-0.24326 0-1e-3 -0.01-2e-3 -0.01-2e-3zm-6.7905 0.0172c-0.053 0-0.061 0.0283-0.061 0.22631 0 0.25001 0.076 0.40004 0.2038 0.40004 0.063 0 0.066-0.0165 0.055-0.24435-0.013-0.26-0.076-0.382-0.1978-0.382zm6.2492 0.0989c-0.091 0-0.098 0.0446-0.043 0.24724 0.045 0.16565 0.149 0.28021 0.2539 0.28021 0.073 0 0.079-0.01 0.06-0.10301-0.011-0.0566-0.021-0.12973-0.021-0.16233 0-0.094-0.1604-0.26211-0.2501-0.26211zm-5.7151 2e-4c-0.048-1e-3 -0.115 0.0275-0.1661 0.0819-0.055 0.0593-0.081 0.13282-0.092 0.26373-0.014 0.16317-0.01 0.18157 0.049 0.18157 0.036 0 0.095-0.0334 0.1328-0.0742 0.067-0.0722 0.1403-0.27913 0.1406-0.39558 1e-4 -0.0381-0.027-0.0567-0.064-0.0574zm-0.01 0.6051c-0.01-2.1e-4 -0.022 2e-3 -0.037 6e-3 -0.1302 0.0377-0.1857 0.13984-0.1857 0.3424 0 0.24765 0.032 0.2814 0.1628 0.17494 0.085-0.0687 0.1399-0.27878 0.1127-0.42952-0.012-0.0686-0.023-0.0933-0.053-0.0942zm5.7141 8e-3c-0.035 4e-3 -0.036 0.0445-0.036 0.20063 0 0.18029 0.012 0.22305 0.081 0.29211 0.1394 0.13945 0.1827 0.10956 0.1827-0.126 0-0.23314-0.052-0.33675-0.1803-0.36133-0.02-4e-3 -0.036-7e-3 -0.048-5e-3zm-6.2803 0.0153c-0.036 1e-4 -0.052 0.0361-0.052 0.10926 0 0.28414 0.116 0.48213 0.2823 0.48213 0.083 0 0.086-6e-3 0.066-0.12362-0.039-0.22304-0.088-0.33586-0.1737-0.40332-0.054-0.0429-0.095-0.0645-0.1227-0.0644zm6.848 3e-3c-0.094 1e-3 -0.2106 0.1443-0.258 0.32393-0.026 0.0997-0.048 0.19985-0.049 0.22252-6e-4 0.0569 0.1347 0.0517 0.2205-8e-3 0.1265-0.0887 0.2095-0.5154 0.1042-0.5364-0.01-1e-3 -0.012-2e-3 -0.019-2e-3zm-0.6645 0.55469c-0.046 0-0.1141 0.31652-0.09 0.41349 0.022 0.0874 0.1293 0.21286 0.1823 0.21286 0.017 0 0.047-0.0556 0.066-0.12363 0.057-0.20528 0.043-0.3325-0.046-0.42179-0.044-0.0446-0.095-0.0809-0.1121-0.0809zm-5.5163 2e-3c-0.026 1e-3 -0.061 0.0294-0.1107 0.079-0.091 0.0906-0.1033 0.21556-0.043 0.418 0.021 0.0701 0.042 0.12741 0.047 0.12741 0.01 0 0.033-9e-3 0.062-0.0205 0.097-0.0372 0.1581-0.20512 0.1337-0.3672-0.025-0.16778-0.046-0.23912-0.089-0.23674zm6.0706 0.16798c-0.1272 6e-3 -0.3304 0.23072-0.3786 0.42907-0.018 0.0745-0.01 0.0899 0.055 0.10057 0.124 0.0203 0.2465-0.061 0.3198-0.21241 0.093-0.19245 0.1025-0.29985 0.028-0.31543-0.01-2e-3 -0.016-2e-3 -0.024-2e-3zm-6.6055 2e-3c-0.022-1e-3 -0.042 4e-3 -0.061 0.0139-0.044 0.0257-0.044 0.0457 0 0.18595 0.066 0.20557 0.1742 0.32084 0.3008 0.32084 0.054 0 0.1082-0.0156 0.12-0.0347 0.012-0.0191-0.019-0.11648-0.067-0.21647-0.078-0.1586-0.1986-0.26524-0.2934-0.26958zm5.8315 0.3889c-0.05 0-0.1478 0.25082-0.1478 0.3811 0 0.10997 0.086 0.25505 0.1403 0.23694 0.019-6e-3 0.062-0.0626 0.096-0.12478 0.1072-0.19987 0.055-0.49326-0.088-0.49326zm-5.0829 5e-3c-0.028-1e-3 -0.057 0.0217-0.09 0.0688-0.07 0.10043-0.064 0.26644 0.015 0.4225 0.076 0.14976 0.1071 0.15962 0.1787 0.0573h-1e-4c0.066-0.0942 0.065-0.25309 0-0.42057-0.034-0.0839-0.066-0.1262-0.1021-0.128zm5.5918 0.28903c-0.072-5.9e-4 -0.1735 0.0433-0.2627 0.12393-0.074 0.0664-0.1488 0.14899-0.1672 0.18345-0.079 0.1467 0.1532 0.21451 0.3105 0.0909 0.1131-0.089 0.2319-0.28615 0.2087-0.34647-0.013-0.0347-0.046-0.0513-0.089-0.0517zm-6.0536 3e-3c-0.038-6e-5 -0.074 0.0107-0.1082 0.0324-0.043 0.0272-0.042 0.0464 0.015 0.15047 0.1278 0.2374 0.3748 0.35569 0.4794 0.2296 0.033-0.0397 0.031-0.0638-0.011-0.12362-0.1343-0.19116-0.2615-0.28868-0.3747-0.28884zm5.214 0.18008c-0.025-5.8e-4 -0.049 0.0367-0.1113 0.13483-0.109 0.17184-0.1232 0.26044-0.063 0.39249 0.056 0.12264 0.1155 0.10367 0.2281-0.0726 0.1114-0.17437 0.1111-0.30475 0-0.4169-0.023-0.0231-0.038-0.0374-0.053-0.0378zm-4.4207 2e-3c-0.015 1e-3 -0.029 0.0143-0.052 0.0405-0.1204 0.1372-0.097 0.30841 0.066 0.47878 0.1078 0.11304 0.1476 0.10209 0.1863-0.0513 0.033-0.1307-0.035-0.33561-0.1448-0.43474-0.025-0.0229-0.04-0.0341-0.056-0.0331zm0.413 0.38342c-0.016 4.1e-4 -0.028 0.0155-0.048 0.0427-0.09 0.12281-0.059 0.27757 0.084 0.42089 0.1461 0.14606 0.1997 0.14854 0.2365 0.0109 0.032-0.11989-0.03-0.26789-0.1681-0.39688-0.058-0.0541-0.084-0.078-0.1045-0.0776zm3.6075 6e-3c-0.025-2e-3 -0.058 0.0291-0.1387 0.10992-0.1354 0.13546-0.1726 0.27099-0.1153 0.4205 0.03 0.0795 0.075 0.0638 0.2147-0.0759 0.1397-0.13976 0.1704-0.29585 0.082-0.4169-0.016-0.0226-0.028-0.0362-0.043-0.0377zm0.7658 0.0205c-0.099 3e-3 -0.213 0.062-0.3466 0.1759-0.1031 0.0879-0.1053 0.0946-0.051 0.15479 0.1204 0.13303 0.3053 0.096 0.4962-0.0995 0.1231-0.12616 0.1252-0.13193 0.063-0.17893-0.049-0.037-0.1026-0.0545-0.1618-0.0523zm-5.173 2e-3c-0.053 2e-3 -0.096 0.0212-0.1301 0.059-0.051 0.0561-0.046 0.0673 0.072 0.18273 0.1897 0.18522 0.3667 0.21568 0.4861 0.0837 0.032-0.0345 0.051-0.0681 0.043-0.0746-0.1974-0.1703-0.3558-0.25434-0.4711-0.25091zm1.3009 0.26527c-0.065-4e-3 -0.1016 0.0555-0.1016 0.17732 0 0.10019 0.1186 0.24621 0.2445 0.30101 0.1624 0.0707 0.184 0.0602 0.184-0.0889 0-0.11372-0.021-0.1565-0.1279-0.26373-0.081-0.0808-0.1485-0.12257-0.199-0.12574zm2.6185 9e-3c-0.069-1e-3 -0.1833 0.0631-0.2648 0.16007-0.078 0.0926-0.1118 0.28185-0.06 0.33384 0.029 0.0291 0.029 0.029 0.1548-0.0235 0.1984-0.0829 0.3095-0.3068 0.2213-0.44607-0.011-0.0163-0.029-0.0239-0.051-0.0243zm-2.1238 0.12556c-0.033 1e-4 -0.036 0.0298-0.036 0.13379 0 0.20686 0.1205 0.31437 0.3587 0.31994 0.11 2e-3 0.1112 1e-3 0.092-0.11687-0.03-0.18233-0.1254-0.26753-0.3698-0.32888-0.019-5e-3 -0.034-8e-3 -0.045-8e-3zm1.5964 8e-3c-0.012 5.8e-4 -0.027 4e-3 -0.044 7e-3 -0.2233 0.0535-0.3687 0.20046-0.3687 0.37292 0 0.10355 0.2271 0.0941 0.3565-0.0148 0.105-0.0883 0.153-0.21419 0.1207-0.3162-0.012-0.0371-0.028-0.0515-0.064-0.0494zm1.2266 0.0568c-0.039 1e-4 -0.085 0.0133-0.1685 0.0395-0.2246 0.0708-0.2665 0.11686-0.197 0.21614 0.091 0.13045 0.2402 0.1518 0.4241 0.0608v-7e-5c0.1016-0.0503 0.1813-0.12859 0.1813-0.17816 0-0.0247-0.052-0.0696-0.1153-0.0998-0.054-0.0257-0.086-0.0385-0.1246-0.0384zm-4.0416 9e-3c-0.038 1e-3 -0.072 7e-3 -0.1001 0.0184-0.053 0.022-0.1064 0.0647-0.118 0.0946-0.039 0.10238 0.2738 0.2824 0.4283 0.24627 0.036-8e-3 0.1008-0.0538 0.1434-0.10083l0.078-0.0854-0.077-0.0583c-0.098-0.0736-0.2409-0.1173-0.3538-0.11486zm0.7201 0.31736c-0.104 5.8e-4 -0.1946 0.0292-0.2601 0.0843-0.056 0.0469-0.1014 0.10627-0.1014 0.13186 0 0.0256 0.01 0.0467 0.01 0.047 0.01 2.1e-4 0.068 0.0218 0.14 0.0479 0.1882 0.0678 0.2973 0.0612 0.3936-0.0237 0.1169-0.10308 0.1258-0.22706 0.019-0.25805-0.069-0.0201-0.1365-0.0297-0.1988-0.0293zm2.6948 1e-3c-0.031 4e-4 -0.068 3e-3 -0.1172 7e-3 -0.115 9e-3 -0.2238 0.0315-0.2418 0.0494-0.046 0.0457 0.056 0.23337 0.1477 0.27216 0.083 0.0352 0.2792 0.0159 0.401-0.0396 0.107-0.0487 0.1053-0.0955-0.01-0.20803-0.063-0.0634-0.091-0.0822-0.1826-0.0809zm-0.8492 0.13527c-0.1172 3e-3 -0.248 0.0326-0.3812 0.0915-0.149 0.0659-0.1626 0.0667-0.2708 0.0154-0.063-0.0298-0.2064-0.0699-0.3195-0.0893-0.2738-0.0469-0.4278 8e-3 -0.5195 0.18454-0.036 0.0687-0.056 0.1338-0.045 0.14467 0.011 0.0109 0.092 0.0267 0.1799 0.0352 0.1764 0.0169 0.343-0.0468 0.3999-0.1533 0.043-0.0797 0.1715-0.11146 0.2821-0.0694l0.087 0.0331-0.066 0.0839c-0.073 0.093-0.1198 0.25858-0.087 0.31079 0.035 0.0569 0.083 0.0375 0.083-0.0338 0-0.0372 0.023-0.11243 0.051-0.16721 0.042-0.0814 0.06-0.0924 0.099-0.06 0.026 0.0217 0.057 0.0976 0.068 0.16843 0.012 0.073 0.037 0.12365 0.057 0.1168 0.066-0.0217 0.06-0.15539-0.013-0.27867-0.068-0.11472-0.068-0.12278-0.013-0.16347 0.032-0.0236 0.072-0.0428 0.087-0.0428 0.052 0 0.1708 0.0721 0.2657 0.16064 0.078 0.0731 0.123 0.0866 0.2857 0.0866 0.1061 0 0.2042-0.0113 0.218-0.0251 0.014-0.0138 1e-4 -0.0777-0.03-0.14198-0.067-0.13957-0.2239-0.21088-0.4192-0.20641z" fill="#fff"/><text x="623.80579" y="68.630318" fill="#ffffff" font-family="Caladea" font-size="4.6961px" font-weight="bold" stroke-linecap="round" stroke-linejoin="round" stroke-width=".042444" text-align="center" text-anchor="middle" style="font-variant-caps:normal;font-variant-east-asian:normal;font-variant-ligatures:normal;font-variant-numeric:normal;line-height:4.87469px" xml:space="preserve"><tspan x="623.80579" y="68.630318" fill="#ffffff" font-family="Caladea" font-size="4.6961px" font-weight="bold" stroke-width=".042444" text-align="center" text-anchor="middle" style="font-variant-caps:normal;font-variant-east-asian:normal;font-variant-ligatures:normal;font-variant-numeric:normal">3</tspan></text><path d="m623.3 70.955c-0.7568-0.10907-1.5149-0.48269-2.0799-1.0251-0.762-0.73154-1.148-1.5856-1.1892-2.6306-0.029-0.73732 0.092-1.2739 0.4386-1.945 0.4971-0.96268 1.4129-1.6788 2.4901-1.9472 0.3566-0.0889 1.1119-0.1221 1.4694-0.0646 1.5495 0.24917 2.7656 1.3489 3.162 2.8593 0.1151 0.43888 0.1418 1.1131 0.062 1.5792-0.2777 1.6312-1.5511 2.8948-3.1842 3.1596-0.3348 0.0543-0.8484 0.0606-1.1693 0.0143zm0.445-0.2618c0-0.0372 0.023-0.11238 0.052-0.16716 0.042-0.0815 0.06-0.0924 0.099-0.06 0.026 0.0218 0.057 0.0976 0.068 0.16844 0.012 0.073 0.037 0.12361 0.057 0.11676 0.066-0.0217 0.06-0.15535-0.013-0.27864-0.068-0.11472-0.068-0.12279-0.013-0.16349 0.032-0.0236 0.072-0.0428 0.087-0.0428 0.051 0 0.1708 0.0721 0.2657 0.16062 0.078 0.0731 0.123 0.0866 0.2857 0.0866 0.106 0 0.2042-0.0113 0.218-0.0251 0.014-0.0138 1e-4 -0.0777-0.03-0.14194-0.1065-0.22332-0.4454-0.27197-0.8005-0.11492-0.1489 0.0659-0.1626 0.0667-0.2708 0.0153-0.063-0.0298-0.2064-0.0699-0.3195-0.0893-0.2738-0.0469-0.4277 8e-3 -0.5194 0.18449-0.036 0.0687-0.056 0.13383-0.045 0.1447 0.011 0.0109 0.092 0.0267 0.1799 0.0351 0.1764 0.017 0.3429-0.0469 0.3999-0.15333 0.043-0.0797 0.1715-0.11141 0.2821-0.0694l0.087 0.0331-0.066 0.0839c-0.073 0.093-0.1198 0.25853-0.088 0.31075 0.035 0.057 0.083 0.0375 0.083-0.0338zm-1.0074-0.40219c0.1169-0.10309 0.1258-0.22707 0.019-0.25807-0.185-0.0534-0.3543-0.0331-0.459 0.055-0.056 0.0469-0.1015 0.10627-0.1015 0.13186 0 0.0256 0.01 0.0467 0.01 0.047 0.01 2e-4 0.068 0.0219 0.1401 0.048 0.1882 0.0678 0.2972 0.0612 0.3936-0.0238zm2.7041 3e-3c0.1069-0.0487 0.1053-0.0955-0.01-0.20808-0.084-0.0846-0.1047-0.0896-0.2996-0.074-0.115 9e-3 -0.2239 0.0315-0.2419 0.0495-0.046 0.0457 0.056 0.23338 0.1477 0.27217 0.083 0.0352 0.2792 0.0159 0.401-0.0396zm-3.251-0.34893 0.077-0.0854-0.077-0.0583c-0.1302-0.0982-0.3414-0.14306-0.454-0.0965-0.053 0.0221-0.1063 0.0647-0.1178 0.0946-0.039 0.10238 0.2737 0.28239 0.4282 0.24626 0.036-9e-3 0.1008-0.0538 0.1434-0.10081zm1.2799 4e-3c-0.03-0.18234-0.1254-0.26753-0.3698-0.32888-0.077-0.0193-0.081-0.0129-0.081 0.12585 0 0.20687 0.1205 0.31434 0.3587 0.3199 0.11 2e-3 0.1112 1e-3 0.092-0.11687zm1.1254 0.0372c0.105-0.0883 0.153-0.21413 0.1206-0.31614-0.016-0.0495-0.039-0.0586-0.1084-0.042-0.2234 0.0535-0.3686 0.20044-0.3686 0.37291 0 0.10354 0.227 0.0941 0.3564-0.0148zm1.3413 8e-3c0.1017-0.0503 0.1813-0.12859 0.1813-0.17816 0-0.0247-0.052-0.0696-0.1153-0.0998-0.1078-0.0514-0.1267-0.0513-0.2931 1e-3 -0.2246 0.0708-0.2665 0.11686-0.197 0.21614 0.091 0.13045 0.2402 0.15178 0.4241 0.0608zm-3.0494-0.12701c0-0.11372-0.021-0.1565-0.1279-0.26373-0.1848-0.18481-0.3006-0.16495-0.3006 0.0516 0 0.10019 0.1186 0.24624 0.2444 0.30103 0.1624 0.0707 0.1841 0.0602 0.1841-0.0889zm2.1218 0.0903c0.1984-0.0829 0.3095-0.30679 0.2213-0.44606-0.041-0.065-0.2076 7e-3 -0.3164 0.13569-0.078 0.0926-0.1117 0.28185-0.06 0.33384 0.029 0.029 0.029 0.029 0.1549-0.0234zm-2.6773-0.2994c0.032-0.11989-0.03-0.26789-0.1681-0.39688-0.1024-0.0961-0.1067-0.0971-0.1524-0.0349-0.09 0.12281-0.059 0.2776 0.084 0.42093 0.1461 0.14606 0.1997 0.14852 0.2365 0.0109zm3.2956-0.0139c0.1397-0.13976 0.1704-0.29585 0.082-0.4169-0.044-0.0602-0.052-0.057-0.1813 0.0722-0.1355 0.13546-0.1726 0.271-0.1152 0.42051 0.03 0.0795 0.075 0.0639 0.2146-0.0758zm-3.9402-0.10626c0.032-0.0346 0.051-0.0681 0.043-0.0745-0.2871-0.24771-0.4917-0.31301-0.6012-0.19192-0.051 0.0561-0.046 0.0673 0.072 0.18271 0.1896 0.18522 0.3666 0.21571 0.486 0.0837zm4.8441-0.0966c0.1231-0.12616 0.1251-0.13191 0.063-0.17891-0.1304-0.0986-0.2947-0.0586-0.5084 0.12363-0.1031 0.0879-0.1053 0.0946-0.051 0.15475 0.1203 0.13303 0.3053 0.096 0.4962-0.0995zm-4.6851-0.17323c0.033-0.1307-0.036-0.33561-0.1448-0.43475-0.051-0.0457-0.061-0.045-0.1069 7e-3 -0.1205 0.1372-0.097 0.30843 0.065 0.4788 0.1078 0.11304 0.1476 0.10208 0.1863-0.0513zm4.2744-0.0152c0.1115-0.17437 0.1111-0.30474 0-0.41688-0.062-0.0617-0.064-0.06-0.164 0.097-0.1089 0.17184-0.1232 0.26045-0.063 0.39251 0.056 0.12264 0.1154 0.10367 0.2281-0.0726zm-4.8817-0.22235c0.033-0.0397 0.031-0.0638-0.011-0.12362-0.1791-0.25488-0.3455-0.34326-0.4829-0.2564-0.043 0.0272-0.042 0.0464 0.015 0.15048 0.1279 0.2374 0.3748 0.35563 0.4795 0.22954zm5.5481-0.0172c0.1132-0.089 0.232-0.28613 0.2089-0.34644-0.036-0.0924-0.2094-0.0568-0.3521 0.0722-0.073 0.0664-0.1488 0.14897-0.1672 0.18343-0.079 0.1467 0.1532 0.21451 0.3104 0.0909zm-5.3685-0.13866c0.066-0.0942 0.065-0.25307 0-0.42056-0.06-0.14923-0.1169-0.16687-0.1924-0.0593-0.07 0.10043-0.064 0.26647 0.015 0.42254 0.076 0.14976 0.1071 0.15959 0.1788 0.0573zm5.0674-0.0598c0.1072-0.19987 0.055-0.49325-0.088-0.49325-0.051 0-0.1477 0.25085-0.1477 0.38112 0 0.10997 0.086 0.25508 0.1402 0.23696 0.019-6e-3 0.062-0.0626 0.096-0.12483zm0.6825-0.5665c0.093-0.19246 0.1026-0.29988 0.027-0.31546-0.1239-0.0257-0.3517 0.21568-0.4031 0.42726-0.018 0.0745-0.01 0.0899 0.055 0.1006 0.1241 0.0203 0.2466-0.061 0.3199-0.2124zm-6.2414 0.17043c0.012-0.0191-0.019-0.1165-0.067-0.21649-0.096-0.1952-0.2568-0.31165-0.354-0.25559-0.044 0.0257-0.044 0.0457 0 0.18593 0.066 0.20556 0.1743 0.32085 0.3009 0.32085 0.054 0 0.1081-0.0156 0.12-0.0347zm0.1293-0.0517c0.097-0.0372 0.1581-0.20511 0.1337-0.36718-0.04-0.26845-0.067-0.28998-0.1997-0.15777-0.091 0.0906-0.1033 0.21555-0.043 0.41798 0.021 0.0701 0.042 0.12745 0.047 0.12745 0.01 0 0.033-9e-3 0.062-0.0205zm5.7193-0.10314c0.057-0.2053 0.043-0.33252-0.046-0.42181-0.044-0.0445-0.095-0.0809-0.1122-0.0809-0.046 0-0.1141 0.31652-0.09 0.41349 0.022 0.0874 0.1295 0.21285 0.1824 0.21285 0.018 0 0.047-0.0556 0.066-0.12361zm-6.0454-0.59339c-0.039-0.22303-0.088-0.33586-0.1737-0.40331-0.1247-0.098-0.1745-0.0852-0.1745 0.0448 0 0.28413 0.1159 0.48213 0.2823 0.48213 0.083 0 0.087-6e-3 0.066-0.12363zm6.4658 0.0741c0.1266-0.0887 0.2096-0.51545 0.1043-0.53645-0.097-0.0193-0.2259 0.13067-0.2765 0.32228-0.026 0.0997-0.048 0.19985-0.049 0.22252-5e-4 0.0569 0.1347 0.0517 0.2205-8e-3zm-6.2557-0.0412c0.085-0.0687 0.1399-0.27881 0.1127-0.42954-0.016-0.0914-0.03-0.105-0.09-0.0878-0.1302 0.0377-0.1856 0.13987-0.1856 0.34243 0 0.24764 0.032 0.28136 0.1628 0.17491zm6.0018-0.14924c0-0.23315-0.052-0.33678-0.1803-0.36137-0.082-0.0157-0.083-0.0129-0.083 0.19527 0 0.18029 0.012 0.22306 0.081 0.29212 0.1394 0.13944 0.1828 0.10954 0.1828-0.12602zm-6.2687-0.6967c-0.013-0.26001-0.076-0.38203-0.1977-0.38203-0.053 0-0.061 0.0283-0.061 0.22631 0 0.25001 0.076 0.40005 0.2038 0.40005 0.063 0 0.066-0.0164 0.055-0.24433zm0.26 0.17015c0.067-0.0722 0.1403-0.27913 0.1406-0.39559 2e-4 -0.0871-0.1395-0.0722-0.2303 0.0244-0.055 0.0592-0.081 0.13281-0.092 0.26373-0.014 0.16317-0.01 0.18157 0.049 0.18157 0.036 0 0.095-0.0334 0.1328-0.0742zm6.0623-0.0288c-0.011-0.0566-0.021-0.1297-0.021-0.1623 0-0.094-0.1604-0.26214-0.2501-0.26214-0.091 0-0.098 0.0446-0.043 0.24725 0.045 0.16565 0.1489 0.28021 0.2538 0.28021 0.073 0 0.079-0.0101 0.06-0.10302zm0.2407 0.0161c0.054-0.0685 0.068-0.13416 0.068-0.31123 0-0.12341-0.014-0.23287-0.03-0.24327-0.017-0.0104-0.072 0.0168-0.1228 0.0604-0.083 0.0715-0.093 0.1041-0.1049 0.33013-0.012 0.23448-0.01 0.25081 0.054 0.25081 0.037 0 0.098-0.0391 0.1355-0.0869zm-6.4354-0.88161c0.016-0.21367 0.01-0.26195-0.04-0.31756-0.085-0.0938-0.1025-0.084-0.1614 0.0886-0.077 0.22739-0.068 0.36067 0.033 0.46119 0.1151 0.11517 0.1462 0.0725 0.1693-0.23228zm0.2498 0.25086c0.029-0.032 0.083-0.12476 0.1193-0.20603 0.066-0.14682 0.066-0.14794 0-0.17764-0.1027-0.0472-0.225 0.0298-0.2962 0.18651-0.091 0.20046-0.085 0.25545 0.029 0.25545 0.051 0 0.1176-0.0263 0.1466-0.0583zm5.8584-9e-3c0-0.10009-0.1222-0.32086-0.201-0.36301-0.038-0.0203-0.104-0.0281-0.147-0.0172l-0.078 0.0196 0.067 0.15629c0.089 0.2068 0.152 0.27166 0.2652 0.27166 0.072 0 0.094-0.0154 0.094-0.0672zm0.2123-0.039c0.061-0.0867 0.065-0.20607 0.015-0.40718-0.046-0.18407-0.088-0.211-0.1699-0.10993-0.054 0.0663-0.062 0.11538-0.049 0.29744 0.01 0.11992 0.026 0.23488 0.039 0.25548 0.037 0.0595 0.11 0.0437 0.1657-0.0358zm-5.8272-0.56619c0.051-0.0435 0.1195-0.12433 0.1517-0.17967 0.057-0.0975 0.057-0.10168-0.01-0.13523-0.093-0.0499-0.1183-0.0444-0.2325 0.0517-0.1154 0.0971-0.2121 0.26176-0.1821 0.31022 0.036 0.0577 0.1738 0.0336 0.2689-0.047zm5.4071 0.0274c0.016-0.0493-0.1206-0.24229-0.2281-0.32186-0.076-0.0562-0.1028-0.0605-0.1748-0.0276l-0.085 0.0388 0.06 0.10215c0.089 0.15328 0.2366 0.26535 0.3334 0.25375 0.046-5e-3 0.089-0.0258 0.095-0.0452zm-5.6684-0.17083c0.097-0.22961 0.1121-0.32409 0.069-0.41841-0.055-0.12055-0.1049-0.10475-0.1867 0.0591-0.1059 0.21207-0.1227 0.33558-0.059 0.43314 0.03 0.0455 0.067 0.0828 0.082 0.0828 0.016 0 0.058-0.0705 0.094-0.1566zm5.8248 0.0833c0.028-0.0403 0.051-0.11076 0.051-0.15659 0-0.0779-0.085-0.28725-0.1593-0.39437-0.055-0.0789-0.1367 0.0186-0.1367 0.16235 0 0.12848 0.1209 0.46188 0.1674 0.46188 0.015 0 0.05-0.033 0.078-0.0733zm-5.283-0.41984c0.042-0.0174 0.1277-0.0752 0.1904-0.1284 0.099-0.0836 0.1081-0.10405 0.07-0.14973-0.078-0.0939-0.2238-0.0644-0.3738 0.0754-0.1192 0.11115-0.1316 0.1354-0.094 0.18131 0.051 0.0609 0.099 0.0659 0.2069 0.0214zm4.7769-0.0214c0.038-0.0459 0.026-0.0701-0.094-0.18131-0.1454-0.13563-0.2954-0.1697-0.3672-0.0834-0.029 0.0354-0.01 0.074 0.1106 0.18132 0.1575 0.14516 0.2756 0.17326 0.3502 0.0833zm-4.8463-0.36818c0.08-0.16161 0.066-0.31559-0.029-0.2977-0.076 0.0144-0.2708 0.3105-0.2708 0.4116 0 0.0445 0.016 0.11152 0.036 0.149 0.036 0.0668 0.038 0.0662 0.1147-0.0269 0.043-0.0523 0.1096-0.15848 0.1481-0.23601zm5.0081 0.12301c0-0.0909-0.03-0.16435-0.1086-0.26778-0.2652-0.34758-0.3398-0.0394-0.079 0.32657 0.1175 0.16496 0.1877 0.14296 0.1877-0.0588zm-4.2937-0.25414c0.1253-0.0656 0.1285-0.0774 0.042-0.15565-0.083-0.0752-0.2335-0.0489-0.3862 0.0675-0.1161 0.0886-0.1158 0.13323 0 0.17699 0.074 0.0278 0.1647 4e-3 0.3428-0.0889zm3.6688 0.0633 0.075-0.0604-0.1122-0.0854c-0.1561-0.1188-0.2751-0.14311-0.3761-0.0769-0.045 0.0296-0.082 0.0649-0.082 0.0785 0 0.0353 0.3076 0.19056 0.4001 0.20199 0.012 1e-3 0.055-0.0245 0.096-0.0578zm-3.9595-0.26711c0.1249-0.12163 0.1671-0.18679 0.1671-0.25823 0-0.0526-0.01-0.10484-0.021-0.11621-0.035-0.0351-0.3061 0.1721-0.3591 0.27468-0.049 0.0953-0.037 0.26245 0.019 0.26245 0.015 0 0.1024-0.0732 0.1943-0.16269zm4.1085 0.0838c0.028-0.11125-0.062-0.26746-0.2216-0.3827-0.1455-0.10543-0.1927-0.10291-0.1923 0.0103 2e-4 0.0932 0.1015 0.2461 0.2381 0.35979 0.1329 0.11062 0.1509 0.11192 0.1758 0.0127zm-3.3621-0.12298c0.1804-0.0454 0.2004-0.0734 0.1142-0.15957-0.081-0.0813-0.2298-0.0867-0.3737-0.0135-0.1423 0.0723-0.1406 0.069-0.073 0.14395 0.069 0.0758 0.1266 0.0809 0.3323 0.0291zm2.6998-8e-3c0.092-0.0671 0.042-0.13767-0.1312-0.18616-0.1859-0.052-0.3245-0.0163-0.3394 0.0877-0.01 0.0562 0.015 0.0763 0.1154 0.10307 0.1802 0.0478 0.2854 0.0464 0.3552-5e-3zm-2.893-0.25233c0.1705-0.0978 0.2402-0.17834 0.2402-0.27772 0-0.0722-0.093-0.0643-0.2647 0.0226-0.1573 0.0795-0.2538 0.21111-0.2198 0.29976 0.028 0.073 0.044 0.07 0.2443-0.0445zm3.0038 0.0207c0.017-0.0871-0.081-0.21031-0.2244-0.28367-0.3719-0.18975-0.3437 0.0675 0.032 0.29277 0.1286 0.077 0.176 0.0748 0.1923-9e-3zm-2.3144-0.0836c0.1767-0.0802 0.2027-0.12647 0.095-0.1676-0.1406-0.0535-0.2958-0.0379-0.4127 0.0413-0.1374 0.0931-0.1566 0.14734-0.059 0.16604 0.1558 0.0298 0.2444 0.0204 0.3769-0.0397zm1.8228 0.0109c0.01-0.0105-0.029-0.0623-0.089-0.11524-0.084-0.0749-0.1386-0.0959-0.2473-0.095-0.1787 2e-3 -0.3129 0.0689-0.2466 0.12389 0.1085 0.0901 0.2759 0.13919 0.4176 0.12254 0.08-9e-3 0.1544-0.0257 0.1648-0.0362z" fill="#a77044" stroke-width=".032966"/><path d="m625.06 63.937c-0.1313 3e-3 -0.045 0.18979 0.2369 0.35876 0.1286 0.077 0.1761 0.0747 0.1923-9e-3 0.017-0.0871-0.081-0.21027-0.2244-0.28363-0.093-0.0474-0.1609-0.067-0.2048-0.066zm-2.3865 2e-3c-0.044-1e-3 -0.1158 0.0225-0.2125 0.0714-0.1574 0.0795-0.2539 0.21113-0.2199 0.29978 0.028 0.073 0.044 0.07 0.2444-0.0446 0.1704-0.0978 0.2401-0.17832 0.2401-0.27771 0-0.0316-0.017-0.0478-0.052-0.0489zm1.9883 0.0643c-0.1787 2e-3 -0.3129 0.0689-0.2466 0.12388 0.1085 0.0901 0.2759 0.13917 0.4176 0.12253 0.08-0.01 0.1544-0.0257 0.1648-0.0362 0.01-0.0105-0.029-0.0623-0.089-0.11519-0.084-0.0748-0.1386-0.0959-0.2473-0.095zm-1.5539 5.1e-4c-0.09-2e-3 -0.1781 0.023-0.2513 0.0726-0.1373 0.0931-0.1565 0.14736-0.059 0.16605 0.1559 0.0298 0.2445 0.0204 0.3769-0.0398 0.1767-0.0802 0.2028-0.12647 0.095-0.1676-0.053-0.02-0.1074-0.0304-0.1615-0.0313zm-1.0385 0.18266c-0.059-6e-3 -0.3002 0.18237-0.3499 0.27854-0.049 0.0953-0.037 0.26244 0.019 0.26244 0.015 0 0.1024-0.0732 0.1943-0.16271 0.1248-0.12163 0.167-0.18675 0.167-0.25819 0-0.0526-0.01-0.10484-0.021-0.11621 0-2e-3 -0.01-3e-3 -0.01-4e-3zm3.5988 2e-3c-0.03 2e-3 -0.042 0.0305-0.042 0.0871 3e-4 0.0932 0.1015 0.2461 0.2381 0.35979 0.1329 0.11063 0.151 0.11193 0.1759 0.0127 0.028-0.11126-0.063-0.26747-0.2217-0.38271-0.073-0.0527-0.1209-0.0784-0.1508-0.0768zm-3.0388 0.11229c-0.065-2e-3 -0.1384 0.0146-0.2103 0.0512-0.1423 0.0723-0.1406 0.069-0.073 0.14397 0.069 0.0758 0.1266 0.0809 0.3323 0.0291 0.1802-0.0454 0.2003-0.0733 0.1141-0.15955-0.041-0.0407-0.098-0.0624-0.1634-0.0647zm2.4597 7e-3c-0.1023 5.8e-4 -0.171 0.0399-0.1813 0.11139-0.01 0.0562 0.015 0.0763 0.1154 0.10308 0.1802 0.0478 0.2854 0.0464 0.3552-5e-3 0.092-0.0671 0.042-0.13766-0.1312-0.18615-0.058-0.0163-0.1115-0.024-0.1581-0.0237zm-2.9425 0.26237c-0.078-4e-4 -0.1723 0.0372-0.2677 0.10998-0.1162 0.0886-0.1159 0.13323 0 0.17699 0.074 0.0278 0.1647 4e-3 0.3427-0.0889 0.1253-0.0656 0.1286-0.0774 0.042-0.15562-0.031-0.0282-0.072-0.0421-0.1184-0.0424zm3.4537 3e-3c-0.044-1e-3 -0.084 0.0112-0.1222 0.0361-0.045 0.0296-0.082 0.065-0.082 0.0786 0 0.0353 0.3077 0.19055 0.4002 0.20198 0.012 1e-3 0.055-0.0245 0.096-0.0578l0.075-0.0605-0.1121-0.0853c-0.098-0.0743-0.1807-0.1116-0.254-0.113zm-4.1036 0.0275c-0.01-1e-4 -0.011 2e-4 -0.017 1e-3 -0.076 0.0144-0.2707 0.31053-0.2707 0.41162 0 0.0444 0.016 0.11151 0.036 0.14899 0.036 0.0668 0.038 0.0662 0.1146-0.0269 0.043-0.0523 0.1097-0.15845 0.1482-0.23598 0.075-0.1515 0.067-0.2963-0.012-0.29907zm4.723 2e-3c-0.091 3e-3 -0.07 0.22694 0.1092 0.47852 0.1175 0.16496 0.1877 0.14296 0.1877-0.0588 0-0.0909-0.03-0.16436-0.1086-0.26778-0.083-0.10861-0.1472-0.15317-0.1883-0.15195zm-0.2163 0.3529c-0.044-5e-4 -0.082 0.015-0.1094 0.0473-0.029 0.0354-0.01 0.074 0.1106 0.18131 0.1575 0.14516 0.2756 0.17328 0.3502 0.0834 0.038-0.0459 0.026-0.0702-0.093-0.18131-0.091-0.0848-0.1836-0.12988-0.2579-0.1307zm-4.2779 1e-3c-0.075-2e-3 -0.1671 0.0422-0.2608 0.12967-0.1192 0.11116-0.1317 0.13541-0.094 0.18132 0.051 0.0609 0.099 0.066 0.2068 0.0214 0.042-0.0174 0.1277-0.0752 0.1904-0.12845 0.099-0.0836 0.1081-0.10402 0.07-0.1497-0.029-0.0352-0.068-0.0531-0.113-0.0543zm-0.6926 0.17153c-0.032 5e-4 -0.068 0.0459-0.1144 0.13804-0.1059 0.21208-0.1227 0.33557-0.059 0.43312 0.03 0.0456 0.067 0.0828 0.082 0.0828 0.016 0 0.058-0.0705 0.094-0.15659 0.097-0.22962 0.1121-0.32413 0.069-0.41844-0.024-0.0527-0.047-0.0794-0.072-0.0789zm5.675 2e-3c-0.046 1e-3 -0.092 0.0827-0.092 0.19052 0 0.12848 0.1208 0.46184 0.1673 0.46184 0.015 0 0.05-0.033 0.078-0.0733s0.051-0.11076 0.051-0.15659c0-0.0779-0.085-0.28724-0.1593-0.39436-0.013-0.0197-0.029-0.0284-0.044-0.0281zm-5.3493 0.2934c-0.04-2e-3 -0.077 0.0226-0.1481 0.0827-0.1153 0.0971-0.2119 0.26177-0.182 0.31022 0.036 0.0577 0.1738 0.0335 0.2688-0.0471 0.052-0.0434 0.1195-0.12429 0.1518-0.17963 0.057-0.0976 0.057-0.10167-0.01-0.13521-0.035-0.0187-0.06-0.0297-0.084-0.031zm5.01 3e-3c-0.019 1e-3 -0.04 8e-3 -0.067 0.0205l-0.085 0.0389 0.059 0.10212c0.089 0.15328 0.2366 0.26534 0.3335 0.25374 0.046-5e-3 0.089-0.0258 0.095-0.0452 0.016-0.0493-0.1207-0.24229-0.2281-0.32186-0.047-0.0351-0.076-0.05-0.1078-0.0481zm-5.6867 0.32973c-0.026 5e-3 -0.046 0.0502-0.08 0.14731-0.077 0.22739-0.068 0.36067 0.033 0.4612 0.1151 0.11516 0.1462 0.0726 0.1693-0.23225 0.016-0.21367 0.01-0.26201-0.04-0.31761-0.037-0.041-0.061-0.0622-0.082-0.0587zm6.3647 4e-3c-0.022 4e-4 -0.047 0.0203-0.078 0.0582-0.054 0.0663-0.062 0.11534-0.049 0.29739 0.01 0.11992 0.026 0.23488 0.039 0.25549 0.037 0.0595 0.11 0.0437 0.1657-0.0358 0.061-0.0867 0.065-0.20607 0.015-0.40718-0.029-0.11504-0.056-0.16872-0.092-0.16811zm-5.9312 0.2258c-0.087-2e-3 -0.179 0.073-0.2368 0.20031-0.091 0.20046-0.085 0.25542 0.029 0.25542 0.051 0 0.1176-0.0262 0.1466-0.0583s0.083-0.12478 0.1193-0.20604c0.066-0.14682 0.066-0.14794 0-0.17764-0.019-9e-3 -0.039-0.0134-0.059-0.0138zm5.4847 4e-3c-0.013 5.1e-4 -0.025 2e-3 -0.036 5e-3l-0.078 0.0195 0.067 0.15633c0.089 0.2068 0.152 0.27164 0.2652 0.27164 0.072 0 0.094-0.0153 0.094-0.0672 0-0.1001-0.1222-0.32087-0.201-0.36302-0.029-0.0152-0.073-0.0234-0.1112-0.022zm0.6692 0.46803c-0.023-1e-3 -0.07 0.0244-0.1148 0.0626-0.083 0.0715-0.093 0.10413-0.1049 0.33017-0.012 0.23447-0.01 0.25078 0.054 0.25078 0.037 0 0.098-0.0391 0.1354-0.0869 0.054-0.0686 0.068-0.13417 0.068-0.31123 0-0.12341-0.014-0.23286-0.03-0.24326 0-1e-3 -0.01-2e-3 -0.01-2e-3zm-6.7905 0.0172c-0.053 0-0.061 0.0283-0.061 0.22631 0 0.25001 0.076 0.40004 0.2038 0.40004 0.063 0 0.066-0.0165 0.055-0.24435-0.013-0.26-0.076-0.382-0.1978-0.382zm6.2492 0.0989c-0.091 0-0.098 0.0446-0.043 0.24724 0.045 0.16565 0.149 0.28021 0.2539 0.28021 0.073 0 0.079-0.01 0.06-0.10301-0.011-0.0566-0.021-0.12973-0.021-0.16233 0-0.094-0.1604-0.26211-0.2501-0.26211zm-5.7151 2e-4c-0.048-1e-3 -0.115 0.0275-0.1661 0.0819-0.055 0.0593-0.081 0.13282-0.092 0.26373-0.014 0.16317-0.01 0.18157 0.049 0.18157 0.036 0 0.095-0.0334 0.1328-0.0742 0.067-0.0722 0.1403-0.27913 0.1406-0.39558 1e-4 -0.0381-0.027-0.0567-0.064-0.0574zm-0.01 0.6051c-0.01-2.1e-4 -0.022 2e-3 -0.037 6e-3 -0.1302 0.0377-0.1857 0.13984-0.1857 0.3424 0 0.24765 0.032 0.2814 0.1628 0.17494 0.085-0.0687 0.1399-0.27878 0.1127-0.42952-0.012-0.0686-0.023-0.0933-0.053-0.0942zm5.7141 8e-3c-0.035 4e-3 -0.036 0.0445-0.036 0.20063 0 0.18029 0.012 0.22305 0.081 0.29211 0.1394 0.13945 0.1827 0.10956 0.1827-0.126 0-0.23314-0.052-0.33675-0.1803-0.36133-0.02-4e-3 -0.036-7e-3 -0.048-5e-3zm-6.2803 0.0153c-0.036 1e-4 -0.052 0.0361-0.052 0.10926 0 0.28414 0.116 0.48213 0.2823 0.48213 0.083 0 0.086-6e-3 0.066-0.12362-0.039-0.22304-0.088-0.33586-0.1737-0.40332-0.054-0.0429-0.095-0.0645-0.1227-0.0644zm6.848 3e-3c-0.094 1e-3 -0.2106 0.1443-0.258 0.32393-0.026 0.0997-0.048 0.19985-0.049 0.22252-6e-4 0.0569 0.1347 0.0517 0.2205-8e-3 0.1265-0.0887 0.2095-0.5154 0.1042-0.5364-0.01-1e-3 -0.012-2e-3 -0.019-2e-3zm-0.6645 0.55469c-0.046 0-0.1141 0.31652-0.09 0.41349 0.022 0.0874 0.1293 0.21286 0.1823 0.21286 0.017 0 0.047-0.0556 0.066-0.12363 0.057-0.20528 0.043-0.3325-0.046-0.42179-0.044-0.0446-0.095-0.0809-0.1121-0.0809zm-5.5163 2e-3c-0.026 1e-3 -0.061 0.0294-0.1107 0.079-0.091 0.0906-0.1033 0.21556-0.043 0.418 0.021 0.0701 0.042 0.12741 0.047 0.12741 0.01 0 0.033-9e-3 0.062-0.0205 0.097-0.0372 0.1581-0.20512 0.1337-0.3672-0.025-0.16778-0.046-0.23912-0.089-0.23674zm6.0706 0.16798c-0.1272 6e-3 -0.3304 0.23072-0.3786 0.42907-0.018 0.0745-0.01 0.0899 0.055 0.10057 0.124 0.0203 0.2465-0.061 0.3198-0.21241 0.093-0.19245 0.1025-0.29985 0.028-0.31543-0.01-2e-3 -0.016-2e-3 -0.024-2e-3zm-6.6055 2e-3c-0.022-1e-3 -0.042 4e-3 -0.061 0.0139-0.044 0.0257-0.044 0.0457 0 0.18595 0.066 0.20557 0.1742 0.32084 0.3008 0.32084 0.054 0 0.1082-0.0156 0.12-0.0347 0.012-0.0191-0.019-0.11648-0.067-0.21647-0.078-0.1586-0.1986-0.26524-0.2934-0.26958zm5.8315 0.3889c-0.05 0-0.1478 0.25082-0.1478 0.3811 0 0.10997 0.086 0.25505 0.1403 0.23694 0.019-6e-3 0.062-0.0626 0.096-0.12478 0.1072-0.19987 0.055-0.49326-0.088-0.49326zm-5.0829 5e-3c-0.028-1e-3 -0.057 0.0217-0.09 0.0688-0.07 0.10043-0.064 0.26644 0.015 0.4225 0.076 0.14976 0.1071 0.15962 0.1787 0.0573h-1e-4c0.066-0.0942 0.065-0.25309 0-0.42057-0.034-0.0839-0.066-0.1262-0.1021-0.128zm5.5918 0.28903c-0.072-5.9e-4 -0.1735 0.0433-0.2627 0.12393-0.074 0.0664-0.1488 0.14899-0.1672 0.18345-0.079 0.1467 0.1532 0.21451 0.3105 0.0909 0.1131-0.089 0.2319-0.28615 0.2087-0.34647-0.013-0.0347-0.046-0.0513-0.089-0.0517zm-6.0536 3e-3c-0.038-6e-5 -0.074 0.0107-0.1082 0.0324-0.043 0.0272-0.042 0.0464 0.015 0.15047 0.1278 0.2374 0.3748 0.35569 0.4794 0.2296 0.033-0.0397 0.031-0.0638-0.011-0.12362-0.1343-0.19116-0.2615-0.28868-0.3747-0.28884zm5.214 0.18008c-0.025-5.8e-4 -0.049 0.0367-0.1113 0.13483-0.109 0.17184-0.1232 0.26044-0.063 0.39249 0.056 0.12264 0.1155 0.10367 0.2281-0.0726 0.1114-0.17437 0.1111-0.30475 0-0.4169-0.023-0.0231-0.038-0.0374-0.053-0.0378zm-4.4207 2e-3c-0.015 1e-3 -0.029 0.0143-0.052 0.0405-0.1204 0.1372-0.097 0.30841 0.066 0.47878 0.1078 0.11304 0.1476 0.10209 0.1863-0.0513 0.033-0.1307-0.035-0.33561-0.1448-0.43474-0.025-0.0229-0.04-0.0341-0.056-0.0331zm0.413 0.38342c-0.016 4.1e-4 -0.028 0.0155-0.048 0.0427-0.09 0.12281-0.059 0.27757 0.084 0.42089 0.1461 0.14606 0.1997 0.14854 0.2365 0.0109 0.032-0.11989-0.03-0.26789-0.1681-0.39688-0.058-0.0541-0.084-0.078-0.1045-0.0776zm3.6075 6e-3c-0.025-2e-3 -0.058 0.0291-0.1387 0.10992-0.1354 0.13546-0.1726 0.27099-0.1153 0.4205 0.03 0.0795 0.075 0.0638 0.2147-0.0759 0.1397-0.13976 0.1704-0.29585 0.082-0.4169-0.016-0.0226-0.028-0.0362-0.043-0.0377zm0.7658 0.0205c-0.099 3e-3 -0.213 0.062-0.3466 0.1759-0.1031 0.0879-0.1053 0.0946-0.051 0.15479 0.1204 0.13303 0.3053 0.096 0.4962-0.0995 0.1231-0.12616 0.1252-0.13193 0.063-0.17893-0.049-0.037-0.1026-0.0545-0.1618-0.0523zm-5.173 2e-3c-0.053 2e-3 -0.096 0.0212-0.1301 0.059-0.051 0.0561-0.046 0.0673 0.072 0.18273 0.1897 0.18522 0.3667 0.21568 0.4861 0.0837 0.032-0.0345 0.051-0.0681 0.043-0.0746-0.1974-0.1703-0.3558-0.25434-0.4711-0.25091zm1.3009 0.26527c-0.065-4e-3 -0.1016 0.0555-0.1016 0.17732 0 0.10019 0.1186 0.24621 0.2445 0.30101 0.1624 0.0707 0.184 0.0602 0.184-0.0889 0-0.11372-0.021-0.1565-0.1279-0.26373-0.081-0.0808-0.1485-0.12257-0.199-0.12574zm2.6185 9e-3c-0.069-1e-3 -0.1833 0.0631-0.2648 0.16007-0.078 0.0926-0.1118 0.28185-0.06 0.33384 0.029 0.0291 0.029 0.029 0.1548-0.0235 0.1984-0.0829 0.3095-0.3068 0.2213-0.44607-0.011-0.0163-0.029-0.0239-0.051-0.0243zm-2.1238 0.12556c-0.033 1e-4 -0.036 0.0298-0.036 0.13379 0 0.20686 0.1205 0.31437 0.3587 0.31994 0.11 2e-3 0.1112 1e-3 0.092-0.11687-0.03-0.18233-0.1254-0.26753-0.3698-0.32888-0.019-5e-3 -0.034-8e-3 -0.045-8e-3zm1.5964 8e-3c-0.012 5.8e-4 -0.027 4e-3 -0.044 7e-3 -0.2233 0.0535-0.3687 0.20046-0.3687 0.37292 0 0.10355 0.2271 0.0941 0.3565-0.0148 0.105-0.0883 0.153-0.21419 0.1207-0.3162-0.012-0.0371-0.028-0.0515-0.064-0.0494zm1.2266 0.0568c-0.039 1e-4 -0.085 0.0133-0.1685 0.0395-0.2246 0.0708-0.2665 0.11686-0.197 0.21614 0.091 0.13045 0.2402 0.1518 0.4241 0.0608v-7e-5c0.1016-0.0503 0.1813-0.12859 0.1813-0.17816 0-0.0247-0.052-0.0696-0.1153-0.0998-0.054-0.0257-0.086-0.0385-0.1246-0.0384zm-4.0416 9e-3c-0.038 1e-3 -0.072 7e-3 -0.1001 0.0184-0.053 0.022-0.1064 0.0647-0.118 0.0946-0.039 0.10238 0.2738 0.2824 0.4283 0.24627 0.036-8e-3 0.1008-0.0538 0.1434-0.10083l0.078-0.0854-0.077-0.0583c-0.098-0.0736-0.2409-0.1173-0.3538-0.11486zm0.7201 0.31736c-0.104 5.8e-4 -0.1946 0.0292-0.2601 0.0843-0.056 0.0469-0.1014 0.10627-0.1014 0.13186 0 0.0256 0.01 0.0467 0.01 0.047 0.01 2.1e-4 0.068 0.0218 0.14 0.0479 0.1882 0.0678 0.2973 0.0612 0.3936-0.0237 0.1169-0.10308 0.1258-0.22706 0.019-0.25805-0.069-0.0201-0.1365-0.0297-0.1988-0.0293zm2.6948 1e-3c-0.031 4e-4 -0.068 3e-3 -0.1172 7e-3 -0.115 9e-3 -0.2238 0.0315-0.2418 0.0494-0.046 0.0457 0.056 0.23337 0.1477 0.27216 0.083 0.0352 0.2792 0.0159 0.401-0.0396 0.107-0.0487 0.1053-0.0955-0.01-0.20803-0.063-0.0634-0.091-0.0822-0.1826-0.0809zm-0.8492 0.13527c-0.1172 3e-3 -0.248 0.0326-0.3812 0.0915-0.149 0.0659-0.1626 0.0667-0.2708 0.0154-0.063-0.0298-0.2064-0.0699-0.3195-0.0893-0.2738-0.0469-0.4278 8e-3 -0.5195 0.18454-0.036 0.0687-0.056 0.1338-0.045 0.14467 0.011 0.0109 0.092 0.0267 0.1799 0.0352 0.1764 0.0169 0.343-0.0468 0.3999-0.1533 0.043-0.0797 0.1715-0.11146 0.2821-0.0694l0.087 0.0331-0.066 0.0839c-0.073 0.093-0.1198 0.25858-0.087 0.31079 0.035 0.0569 0.083 0.0375 0.083-0.0338 0-0.0372 0.023-0.11243 0.051-0.16721 0.042-0.0814 0.06-0.0924 0.099-0.06 0.026 0.0217 0.057 0.0976 0.068 0.16843 0.012 0.073 0.037 0.12365 0.057 0.1168 0.066-0.0217 0.06-0.15539-0.013-0.27867-0.068-0.11472-0.068-0.12278-0.013-0.16347 0.032-0.0236 0.072-0.0428 0.087-0.0428 0.052 0 0.1708 0.0721 0.2657 0.16064 0.078 0.0731 0.123 0.0866 0.2857 0.0866 0.1061 0 0.2042-0.0113 0.218-0.0251 0.014-0.0138 1e-4 -0.0777-0.03-0.14198-0.067-0.13957-0.2239-0.21088-0.4192-0.20641z" fill="#fff"/><text x="623.80579" y="68.630318" fill="#ffffff" font-family="Caladea" font-size="4.6961px" font-weight="bold" stroke-linecap="round" stroke-linejoin="round" stroke-width=".042444" text-align="center" text-anchor="middle" style="font-variant-caps:normal;font-variant-east-asian:normal;font-variant-ligatures:normal;font-variant-numeric:normal;line-height:4.87469px" xml:space="preserve"><tspan x="623.80579" y="68.630318" fill="#ffffff" font-family="Caladea" font-size="4.6961px" font-weight="bold" stroke-width=".042444" text-align="center" text-anchor="middle" style="font-variant-caps:normal;font-variant-east-asian:normal;font-variant-ligatures:normal;font-variant-numeric:normal">3</tspan></text></g></g></svg>
