<?xml version="1.0" encoding="UTF-8"?>
<svg width="33.952mm" height="39.696mm" version="1.1" viewBox="0 0 33.952 39.696" xml:space="preserve" xmlns="http://www.w3.org/2000/svg"><g transform="translate(-69.431 -73.341)"><path d="m84.841 113.03c-1.3241-0.12644-2.0493-0.24442-2.9905-0.48604-2.4447-0.62766-4.5786-1.7269-6.5722-3.3853-0.59614-0.49606-1.6678-1.5946-2.1807-2.2354-1.9616-2.4513-3.1312-5.1879-3.5467-8.2977-0.11264-0.84399-0.15538-2.4805-0.08726-3.3448 0.23463-2.9726 1.2423-5.8164 2.9088-8.2062 0.82498-1.1832 2.1571-2.6089 3.2492-3.4769 2.4251-1.9278 5.1525-3.0798 8.2974-3.5048 0.72214-0.0975 3.137-0.11175 3.8596-0.02226 2.5653 0.3161 4.9183 1.1441 6.9876 2.4594 7.0108 4.456 9.6407 13.326 6.1951 20.894-1.5119 3.3204-4.2504 6.174-7.5281 7.8444-1.7457 0.8895-3.624 1.4506-5.6974 1.7019-0.39624 0.0481-2.5515 0.0926-2.8948 0.0596zm1.743-2.6326c2.6188-0.13935 4.8933-0.88322 7.0268-2.2984 5.0002-3.3174 7.3064-9.4713 5.7192-15.263-0.4363-1.5902-1.186-3.1522-2.1468-4.4706-2.3009-3.1566-5.7784-5.2-9.6175-5.6509-2.0137-0.23641-4.0212-0.03561-5.9409 0.59984-2.1406 0.70686-3.8907 1.7867-5.4904 3.3874-2.0742 2.0762-3.3961 4.6273-3.8778 7.485-0.14692 0.86305-0.18699 1.3697-0.18254 2.3371 0.0022 1.7386 0.27603 3.2794 0.87217 4.8886 0.23151 0.62268 0.86238 1.8999 1.2257 2.4765 1.9999 3.1761 5.168 5.4084 8.8054 6.2045 0.75374 0.16473 1.4647 0.26178 2.2087 0.30096 0.32945 0.0178 0.60994 0.0356 0.62151 0.0356 0 3e-3 0.36062-0.0134 0.77823-0.0356zm-0.82097-1.3391c-0.16918-0.0463-0.325-0.17364-0.4096-0.34237-0.0935-0.17942-0.08461-1.7043 0-1.9048 0.15582-0.32768 0.62374-0.46427 0.91446-0.26668 0.29829 0.20346 0.325 0.29829 0.325 1.2365 0 0.76016 0 0.84911-0.08461 0.97854-0.15138 0.25466-0.46168 0.37754-0.75063 0.29874zm-6.1346-1.6778c-0.19589-0.1349-0.3161-0.39891-0.28494-0.61658 0-0.15448 0.56409-1.157 0.78981-1.4595 0.37398-0.50354 1.1718-0.24932 1.1718 0.37442 0 0.17541-0.05342 0.29028-0.40069 0.90191-0.22706 0.39313-0.45456 0.73896-0.52134 0.78745-0.07569 0.0547-0.2048 0.0922-0.36062 0.10239-0.20035 0.0134-0.26268-2e-3 -0.39179-0.0899zm11.941 0.0178c-0.16473-0.10062-0.2226-0.18164-0.63755-0.90463-0.18254-0.31833-0.34282-0.64992-0.35617-0.73678-0.04448-0.19189 0.10685-0.48889 0.27603-0.61021 0.16028-0.11576 0.4795-0.13846 0.67094-0.0477 0.16919 0.0806 0.24487 0.18699 0.7119 1.0056 0.34282 0.59725 0.38289 0.79711 0.21816 1.0648-0.17808 0.29517-0.59792 0.40336-0.88374 0.22884zm-16.106-4.2902c-0.47771-0.14959-0.63576-0.71496-0.29829-1.0732 0.06233-0.0677 0.4096-0.29161 0.77111-0.49802 0.54672-0.31298 0.68607-0.37487 0.84145-0.37487 0.50843 0 0.82765 0.54227 0.57388 0.97533-0.08014 0.13891-0.21815 0.23596-0.7858 0.56448-0.69275 0.39981-0.88909 0.47238-1.1001 0.40648zm20.527-0.04c-0.29829-0.1349-1.2381-0.69494-1.357-0.80713-0.20034-0.18788-0.23597-0.60477-0.07571-0.81883 0.17363-0.22706 0.44521-0.3348 0.67805-0.26758 0.20035 0.0574 1.3463 0.71244 1.4794 0.8456 0.2226 0.22127 0.24932 0.60954 0.05792 0.85022-0.09795 0.1251-0.38734 0.27603-0.52758 0.27603-0.04893 0-0.16472-0.0356-0.25822-0.0779zm-10.463-4.3816c-1.0218-0.20925-1.7795-1.1271-1.7795-2.1555 0-0.23106 1.5912-8.2757 1.6798-8.4935 0.04448-0.06767 0.1113-0.15894 0.18253-0.20347 0.27158-0.16428 0.68296-0.05792 0.78936 0.20347 0.04449 0.06767 0.4185 1.8983 0.87173 4.0682 0.85303 4.0964 0.91046 4.4439 0.80895 4.9085-0.24931 1.1334-1.4229 1.9037-2.5524 1.6723zm-11.771-1.5936c-0.38734-0.19901-0.48884-0.68016-0.2048-1.002 0.18699-0.21415 0.33391-0.24087 1.243-0.22528 0.7297 0.01335 0.81162 0.02224 0.91936 0.1024 0.21816 0.16383 0.29384 0.30675 0.29384 0.55482 0 0.24799-0.07568 0.39135-0.29384 0.55483-0.10685 0.08101-0.18699 0.08948-0.94074 0.10106-0.78669 0.01335-0.83077 0.0089-1.0155-0.08546zm22.482 0.0089c-0.47548-0.21949-0.48216-0.93446 0-1.1714 0.12466-0.06365 0.27158-0.07528 0.95498-0.07528 0.72302-4.2e-5 0.8232 0.0089 0.97502 0.08637 0.31611 0.16205 0.44076 0.61372 0.24487 0.9004-0.20925 0.30897-0.24932 0.3201-1.1607 0.33213-0.7395 0.0089-0.841 0.0026-1.004-0.07254zm-19.802-5.326c-0.28048-0.15137-1.1963-0.68586-1.2568-0.73527-0.10685-0.08593-0.18699-0.29741-0.18699-0.48653 0-0.35261 0.24042-0.61506 0.59391-0.64726 0.19589-0.01779 0.24042 8.55e-4 0.91313 0.38689 0.78536 0.451 0.90512 0.56409 0.93139 0.878 0.04452 0.52509-0.51244 0.86265-0.99505 0.60412zm18.332-0.0043c-0.22705-0.15316-0.30719-0.29697-0.31164-0.53466 0-0.35617 0.08904-0.45322 0.85704-0.89915 0.37397-0.21593 0.73149-0.40604 0.79649-0.4225 0.42741-0.10686 0.8695 0.32233 0.7858 0.76795-0.04448 0.24932-0.2048 0.38778-0.92204 0.79675-0.76399 0.43676-0.93139 0.47736-1.2047 0.29117zm-14.394-3.832c-0.18699-0.09305-0.2137-0.12466-0.64111-0.87124-0.34727-0.60224-0.37843-0.68188-0.37843-0.88669 0-0.2787 0.09795-0.42829 0.37398-0.56631 0.15137-0.07568 0.23596-0.09216 0.35172-0.07035 0.28939 0.05432 0.40514 0.17987 0.8094 0.87676 0.3161 0.54348 0.38734 0.70379 0.40514 0.87912 0.04452 0.28717-0.08459 0.48341-0.33391 0.61106-0.21815 0.11264-0.39624 0.12109-0.58501 0.02669zm10.597 0.0089c-0.27158-0.11842-0.45457-0.46649-0.38734-0.73732 0.04449-0.1674 0.75597-1.3959 0.87617-1.5073 0.25378-0.23374 0.64957-0.21103 0.90379 0.0512 0.1202 0.12466 0.14692 0.18922 0.16473 0.38823 0 0.23508 0 0.24843-0.35618 0.89118-0.20479 0.35884-0.41404 0.6984-0.46658 0.7545-0.18254 0.20436-0.48394 0.26936-0.73682 0.15938zm-5.2722-1.4186c-0.18254-0.08637-0.25378-0.15271-0.33837-0.31388-0.06236-0.12288-0.07126-0.25778-0.06236-1.0077 0-0.98392 0.04449-1.0223 0.36953-1.1921 0.3161-0.15672 0.6834-0.04007 0.85525 0.27603 0.06236 0.1162 0.07571 0.25956 0.07571 0.97217 0 0.96914-0.04449 1.0624-0.36508 1.2329-0.21815 0.11041-0.35171 0.11842-0.53648 0.03114zm13.891-1.5318c-0.455-0.54352-1.4848-1.5814-2.027-2.0428l-0.48618-0.4136 0.60059-0.58902 0.6006-0.58902 8.56e-4 -0.41004c8.55e-4 -0.48141 0.08016-0.78785 0.26267-1.0437 0.34726-0.47892 1.0979-0.65936 1.6317-0.39223 0.26712 0.13445 2.9077 2.7668 3.0666 3.0594 0.24486 0.45118 0.16918 1.0714-0.18255 1.4808-0.36952 0.42963-1.0725 0.56685-1.9839 0.386l-0.23151-0.04585-0.47905 0.47776-0.47905 0.47772-0.29829-0.35573zm-15.661-6.4949c-0.09794-0.47656-0.36507-0.83104-0.78134-1.0347-0.21371-0.10418-0.2983-0.11843-0.85793-0.14069-0.4973-0.01781-0.66114-0.04452-0.81964-0.11353-0.26713-0.12021-0.53559-0.36953-0.67361-0.63136l-0.11576-0.21726v-2.0584l0.11576-0.21415c0.14692-0.27559 0.38734-0.50603 0.65758-0.63042l0.2137-0.09839 4.1596-0.01335c4.6569-0.01335 4.4811-0.02672 4.8911 0.28494 0.15582 0.11576 0.25377 0.24086 0.36062 0.45407l0.15137 0.29429v0.94772c0 0.93294-0.0017 0.95151-0.1113 1.1873-0.14247 0.30586-0.37398 0.53555-0.67762 0.6753-0.20925 0.09661-0.3161 0.11353-0.86104 0.13713-0.52668 0.02226-0.65358 0.04007-0.82721 0.12555-0.4096 0.19634-0.71278 0.59596-0.79693 1.046 0 0.11175-0.04902 0.21326-0.05792 0.22483 0 0.0089-0.28049-0.0014-0.59347-0.03117-0.55384-0.04898-2.7394-0.02672-3.149 0.03117l-0.17364 0.02671z" fill="#404852" stroke-width=".042882"/></g></svg>
