<?xml version="1.0" encoding="UTF-8" standalone="no"?>
<!-- Created with Inkscape (http://www.inkscape.org/) -->

<svg
   width="33.951805mm"
   height="39.696182mm"
   viewBox="0 0 33.951805 39.696182"
   version="1.1"
   id="svg38064"
   inkscape:version="1.2 (dc2aedaf03, 2022-05-15)"
   sodipodi:docname="all.svg"
   xml:space="preserve"
   inkscape:export-filename="all.pdf"
   inkscape:export-xdpi="96"
   inkscape:export-ydpi="96"
   xmlns:inkscape="http://www.inkscape.org/namespaces/inkscape"
   xmlns:sodipodi="http://sodipodi.sourceforge.net/DTD/sodipodi-0.dtd"
   xmlns="http://www.w3.org/2000/svg"
   xmlns:svg="http://www.w3.org/2000/svg"><sodipodi:namedview
     id="namedview38066"
     pagecolor="#ffffff"
     bordercolor="#000000"
     borderopacity="0.25"
     inkscape:showpageshadow="2"
     inkscape:pageopacity="0.0"
     inkscape:pagecheckerboard="0"
     inkscape:deskcolor="#d1d1d1"
     inkscape:document-units="mm"
     showgrid="false"
     inkscape:zoom="0.73940798"
     inkscape:cx="510.54358"
     inkscape:cy="478.08518"
     inkscape:window-width="1920"
     inkscape:window-height="991"
     inkscape:window-x="-9"
     inkscape:window-y="-9"
     inkscape:window-maximized="1"
     inkscape:current-layer="layer1" /><defs
     id="defs38061" /><g
     inkscape:label="Layer 1"
     inkscape:groupmode="layer"
     id="layer1"
     transform="translate(-69.431311,-73.340853)"><path
       style="fill:#404852;fill-opacity:1;stroke-width:0.0428823"
       d="m 84.841394,113.02535 c -1.324068,-0.12644 -2.049313,-0.24442 -2.990496,-0.48604 -2.444665,-0.62766 -4.578572,-1.72689 -6.572236,-3.38531 -0.59614,-0.49606 -1.667768,-1.59462 -2.180653,-2.23542 -1.96161,-2.45129 -3.131184,-5.18793 -3.546746,-8.297703 -0.112639,-0.84399 -0.15538,-2.480453 -0.08726,-3.344838 0.234627,-2.972602 1.242322,-5.816355 2.908756,-8.206213 0.824979,-1.183157 2.157057,-2.608907 3.249164,-3.476851 2.425076,-1.927772 5.152451,-3.079761 8.297429,-3.504762 0.722135,-0.0975 3.136974,-0.111748 3.859563,-0.02226 2.565316,0.316102 4.918269,1.144109 6.987613,2.459358 7.010772,4.455956 9.640652,13.325764 6.195142,20.894389 -1.511941,3.3204 -4.250449,6.17403 -7.528106,7.84443 -1.745683,0.8895 -3.624033,1.45055 -5.697389,1.70192 -0.396241,0.0481 -2.551527,0.0926 -2.894779,0.0596 z m 1.743004,-2.63263 c 2.618751,-0.13935 4.893341,-0.88322 7.026804,-2.29837 5.00019,-3.31742 7.306388,-9.471334 5.719203,-15.262578 -0.436303,-1.590211 -1.186045,-3.152247 -2.146816,-4.470609 -2.300863,-3.156561 -5.77842,-5.199955 -9.617494,-5.650867 -2.013695,-0.236408 -4.021163,-0.03561 -5.94092,0.599836 -2.140585,0.706864 -3.890717,1.786684 -5.490368,3.387406 -2.074248,2.076163 -3.396086,4.627279 -3.877806,7.48501 -0.14692,0.86305 -0.18699,1.369657 -0.182537,2.337101 0.0022,1.73865 0.276031,3.279445 0.872172,4.888571 0.231511,0.62268 0.862378,1.89986 1.225672,2.47646 1.999897,3.17611 5.168033,5.40845 8.805429,6.20449 0.753741,0.16473 1.464738,0.26178 2.208697,0.30096 0.329454,0.0178 0.60994,0.0356 0.621514,0.0356 0,0.003 0.360619,-0.0134 0.77823,-0.0356 z m -0.820969,-1.33911 c -0.169179,-0.0463 -0.325005,-0.17364 -0.409595,-0.34237 -0.0935,-0.17942 -0.08461,-1.70428 0,-1.90476 0.155817,-0.32768 0.623739,-0.46427 0.914465,-0.26668 0.298288,0.20346 0.325005,0.29829 0.325005,1.23653 0,0.76016 0,0.84911 -0.08461,0.97854 -0.151377,0.25466 -0.461685,0.37754 -0.750632,0.29874 z m -6.13459,-1.67779 c -0.195893,-0.1349 -0.316101,-0.39891 -0.284937,-0.61658 0,-0.15448 0.564086,-1.15698 0.789809,-1.45949 0.373978,-0.50354 1.171801,-0.24932 1.171801,0.37442 0,0.17541 -0.05342,0.29028 -0.400692,0.90191 -0.227059,0.39313 -0.454562,0.73896 -0.521344,0.78745 -0.07569,0.0547 -0.204799,0.0922 -0.360623,0.10239 -0.200346,0.0134 -0.262676,-0.002 -0.391788,-0.0899 z m 11.940616,0.0178 c -0.164731,-0.10062 -0.222604,-0.18164 -0.637546,-0.90463 -0.182542,-0.31833 -0.342816,-0.64992 -0.35617,-0.73678 -0.04448,-0.19189 0.10685,-0.48889 0.276029,-0.61021 0.160283,-0.11576 0.479496,-0.13846 0.670935,-0.0477 0.169188,0.0806 0.244873,0.18699 0.711896,1.00561 0.342816,0.59725 0.382887,0.79711 0.218156,1.06477 -0.178085,0.29517 -0.59792,0.40336 -0.883745,0.22884 z m -16.105584,-4.29017 c -0.477714,-0.14959 -0.635764,-0.71496 -0.298293,-1.07318 0.06233,-0.0677 0.409596,-0.29161 0.771109,-0.49802 0.546721,-0.31298 0.686073,-0.37487 0.841453,-0.37487 0.508433,0 0.827651,0.54227 0.573879,0.97533 -0.08014,0.13891 -0.218154,0.23596 -0.785801,0.56448 -0.692751,0.39981 -0.88909,0.47238 -1.100121,0.40648 z m 20.526992,-0.04 c -0.298289,-0.1349 -1.238135,-0.69494 -1.357004,-0.80713 -0.200345,-0.18788 -0.235967,-0.60477 -0.07571,-0.81883 0.173628,-0.22706 0.445208,-0.3348 0.678053,-0.26758 0.200353,0.0574 1.346327,0.71244 1.479448,0.8456 0.222604,0.22127 0.249321,0.60954 0.05792,0.85022 -0.09795,0.1251 -0.387335,0.27603 -0.527582,0.27603 -0.04893,0 -0.164723,-0.0356 -0.258218,-0.0779 z m -10.4634,-4.381606 c -1.021759,-0.20925 -1.779517,-1.127102 -1.779517,-2.155457 0,-0.231065 1.591191,-8.275712 1.679793,-8.493466 0.04448,-0.06767 0.111298,-0.158939 0.182534,-0.203467 0.27158,-0.164277 0.682955,-0.05792 0.789359,0.203467 0.04449,0.06767 0.418501,1.898343 0.871733,4.068184 0.853033,4.096402 0.910461,4.443889 0.80895,4.908474 -0.249312,1.133424 -1.422901,1.903732 -2.552408,1.672265 z M 73.756479,97.088209 c -0.387336,-0.19901 -0.488844,-0.680157 -0.204799,-1.00204 0.18699,-0.214152 0.33391,-0.240869 1.243036,-0.225282 0.729704,0.01335 0.811623,0.02224 0.919364,0.102401 0.218155,0.163833 0.293841,0.306749 0.293841,0.554821 0,0.247986 -0.07568,0.391348 -0.293841,0.55483 -0.106851,0.08101 -0.186989,0.08948 -0.940735,0.101057 -0.786691,0.01335 -0.830768,0.0089 -1.015531,-0.08546 z m 22.481925,0.0089 c -0.475484,-0.21949 -0.482165,-0.934457 0,-1.171356 0.12466,-0.06365 0.27158,-0.07528 0.95498,-0.07528 0.723025,-4.2e-5 0.823202,0.0089 0.975015,0.08637 0.316108,0.162053 0.44076,0.61372 0.244873,0.9004 -0.209251,0.308973 -0.249321,0.320103 -1.160672,0.332131 -0.739502,0.0089 -0.841004,0.0026 -1.003956,-0.07254 z M 76.436216,91.771072 c -0.280484,-0.151368 -1.196288,-0.685858 -1.256837,-0.73527 -0.106851,-0.08593 -0.186989,-0.297408 -0.186989,-0.486529 0,-0.352611 0.240415,-0.615063 0.593914,-0.647255 0.195894,-0.01779 0.240416,8.55e-4 0.913133,0.38689 0.785355,0.451 0.905117,0.564086 0.931386,0.878004 0.04452,0.525088 -0.512441,0.862652 -0.995052,0.604117 z m 18.33209,-0.0043 c -0.227053,-0.153157 -0.307194,-0.296966 -0.311643,-0.534661 0,-0.35617 0.08904,-0.453224 0.857036,-0.899151 0.373973,-0.215932 0.731487,-0.406036 0.796486,-0.422504 0.427406,-0.106858 0.8695,0.322327 0.7858,0.767946 -0.04448,0.249321 -0.204802,0.38778 -0.922035,0.796751 -0.763986,0.436759 -0.931386,0.47736 -1.204746,0.291174 z m -14.39418,-3.832046 c -0.18699,-0.09305 -0.213702,-0.12466 -0.641107,-0.871237 -0.347266,-0.60224 -0.378431,-0.681885 -0.378431,-0.886688 0,-0.278703 0.09795,-0.428294 0.373979,-0.566311 0.151373,-0.07568 0.235963,-0.09216 0.351718,-0.07035 0.289389,0.05432 0.405144,0.179867 0.809398,0.876757 0.316101,0.543477 0.387335,0.703794 0.405144,0.879116 0.04452,0.287167 -0.08459,0.483414 -0.333911,0.61106 -0.218154,0.112641 -0.396239,0.121093 -0.585009,0.02669 z m 10.597409,0.0089 c -0.27158,-0.118424 -0.454567,-0.466492 -0.387335,-0.73732 0.04449,-0.1674 0.75597,-1.395919 0.876173,-1.507311 0.253778,-0.233737 0.649574,-0.211031 0.903788,0.0512 0.120204,0.124659 0.14692,0.189215 0.164731,0.388226 0,0.235075 0,0.248429 -0.356178,0.891185 -0.204794,0.358839 -0.414044,0.698404 -0.466579,0.754498 -0.182542,0.204357 -0.483944,0.269356 -0.736824,0.159384 z M 85.69932,86.525065 c -0.182542,-0.08637 -0.253778,-0.152711 -0.338368,-0.313877 -0.06236,-0.122879 -0.07126,-0.257778 -0.06236,-1.007695 0,-0.983921 0.04449,-1.022299 0.369532,-1.192058 0.3161,-0.156716 0.6834,-0.04007 0.855249,0.276032 0.06236,0.116201 0.07571,0.259559 0.07571,0.972167 0,0.96914 -0.04449,1.062409 -0.365076,1.232889 -0.218147,0.110408 -0.351713,0.118424 -0.53648,0.03114 z M 99.590411,84.993306 C 99.135407,84.44979 98.105624,83.411864 97.563362,82.950534 l -0.486178,-0.413602 0.600589,-0.589018 0.600598,-0.589017 8.56e-4,-0.41004 c 8.55e-4,-0.481409 0.08016,-0.78785 0.262674,-1.043714 0.347265,-0.478915 1.097897,-0.65936 1.631709,-0.392232 0.26712,0.134454 2.90769,2.766776 3.06663,3.059415 0.24486,0.451179 0.16918,1.071406 -0.18255,1.480823 -0.36952,0.429631 -1.07251,0.566846 -1.98386,0.386 l -0.23151,-0.04585 -0.47905,0.477757 -0.479053,0.477715 -0.298289,-0.355726 z M 83.929145,78.498448 c -0.09794,-0.476556 -0.365067,-0.831035 -0.781339,-1.034675 -0.213707,-0.10418 -0.298297,-0.118426 -0.857926,-0.140688 -0.497305,-0.01781 -0.661143,-0.04452 -0.81964,-0.113529 C 81.203113,77.089349 80.93465,76.84003 80.796634,76.5782 l -0.115756,-0.217264 v -1.029199 -1.029155 l 0.115756,-0.214147 c 0.14692,-0.275588 0.387335,-0.50603 0.657579,-0.630423 l 0.213702,-0.09839 4.159624,-0.01335 c 4.656929,-0.01335 4.481068,-0.02672 4.891117,0.284937 0.155817,0.115755 0.253769,0.240861 0.360618,0.454072 l 0.151369,0.294287 v 0.947725 c 0,0.932944 -0.0017,0.951509 -0.111298,1.187294 -0.142472,0.305862 -0.373981,0.535547 -0.677617,0.675299 -0.20925,0.09661 -0.316099,0.113529 -0.861039,0.137126 -0.526685,0.02226 -0.653578,0.04007 -0.827206,0.12555 -0.409595,0.196339 -0.712785,0.595962 -0.79693,1.045983 0,0.111749 -0.04902,0.213258 -0.05792,0.224833 0,0.0089 -0.280486,-0.0014 -0.593472,-0.03117 -0.553845,-0.04898 -2.739398,-0.02672 -3.148993,0.03117 l -0.173636,0.02671 z"
       id="path9903"
       sodipodi:nodetypes="ssssssssssssssscssssssssssssscssssssssssssssssssssssssssssssssssssssssssssssssssssssssscssssssssscsssssssssssssssssssssssssssssssssscsccccssssscccccssssscccsscssscssssssscscs" /></g></svg>
