<?xml version="1.0" encoding="UTF-8"?>
<svg width="33.952mm" height="25.81mm" version="1.1" viewBox="0 0 33.952 25.81" xml:space="preserve" xmlns="http://www.w3.org/2000/svg"><g transform="translate(-247.69 -80.226)"><g transform="matrix(1.9494 0 0 1.9494 -210.12 10.24)" fill="#404852"><path d="m235.66 49.026c-0.61259-0.27228-0.81283-0.75597-0.81283-1.9636 0-1.1782 0.0175-1.2043 0.82575-1.2559l0.60639-0.0387 0.0386-4.3352c0.0345-3.8435 0.0532-4.3617 0.16698-4.5691 0.18843-0.34329 0.52653-0.65934 0.87813-0.82062 0.29174-0.13383 0.65025-0.14205 6.1932-0.14205 5.543 0 5.9014 8e-3 6.1932 0.14205 0.35155 0.16128 0.68983 0.47733 0.87808 0.82062 0.11372 0.20733 0.13266 0.72561 0.16704 4.5691l0.0386 4.3352 0.60646 0.0387c0.81078 0.0518 0.82622 0.0756 0.824 1.2728 0 0.74156-0.031 0.99721-0.14453 1.2432-0.16534 0.35824-0.41977 0.61286-0.72964 0.73028-0.35201 0.13336-15.427 0.10776-15.73-0.0267zm15.486-1.1528c0.0246-0.0981 0.0345-0.36806 0.0205-0.59997l-0.024-0.42164-5.7197-0.0406-0.21304 0.23321-0.21299 0.23322h-2.8818l-0.21298-0.23322-0.21299-0.23321-5.7197 0.0406-0.0234 0.42164c-0.0129 0.23191-6e-3 0.50189 0.0205 0.59997l0.0444 0.17832h15.09zm-1.4353-6.2893v-4.2226l-0.18995-0.19002-0.19007-0.19001h-11.549l-0.18995 0.19001-0.19007 0.19002v8.4452h12.309z" stroke-width=".077414"/><rect x="238.2" y="37.925" width="10.798" height="7.1927" ry=".44739" stop-color="#000000" stroke="#404852" stroke-linecap="round" stroke-linejoin="round" stroke-width=".26458"/></g></g></svg>
