<?xml version="1.0" encoding="UTF-8" standalone="no"?>
<!-- Created with Inkscape (http://www.inkscape.org/) -->

<svg
   width="33.951813mm"
   height="25.810005mm"
   viewBox="0 0 33.951813 25.810005"
   version="1.1"
   id="svg38064"
   inkscape:version="1.2 (dc2aedaf03, 2022-05-15)"
   sodipodi:docname="all.svg"
   xml:space="preserve"
   inkscape:export-filename="all.pdf"
   inkscape:export-xdpi="96"
   inkscape:export-ydpi="96"
   xmlns:inkscape="http://www.inkscape.org/namespaces/inkscape"
   xmlns:sodipodi="http://sodipodi.sourceforge.net/DTD/sodipodi-0.dtd"
   xmlns="http://www.w3.org/2000/svg"
   xmlns:svg="http://www.w3.org/2000/svg"><sodipodi:namedview
     id="namedview38066"
     pagecolor="#ffffff"
     bordercolor="#000000"
     borderopacity="0.25"
     inkscape:showpageshadow="2"
     inkscape:pageopacity="0.0"
     inkscape:pagecheckerboard="0"
     inkscape:deskcolor="#d1d1d1"
     inkscape:document-units="mm"
     showgrid="false"
     inkscape:zoom="0.73940798"
     inkscape:cx="510.54358"
     inkscape:cy="478.08518"
     inkscape:window-width="1920"
     inkscape:window-height="991"
     inkscape:window-x="-9"
     inkscape:window-y="-9"
     inkscape:window-maximized="1"
     inkscape:current-layer="layer1" /><defs
     id="defs38061" /><g
     inkscape:label="Layer 1"
     inkscape:groupmode="layer"
     id="layer1"
     transform="translate(-247.68758,-80.22574)"><g
       id="g41308"
       transform="matrix(1.9494032,0,0,1.9494032,-210.12428,10.240017)"><path
         style="fill:#404852;fill-opacity:1;stroke-width:0.0774141"
         d="m 235.66002,49.02631 c -0.61259,-0.27228 -0.81283,-0.75597 -0.81283,-1.96363 0,-1.17819 0.0175,-1.2043 0.82575,-1.25592 l 0.60639,-0.0387 0.0386,-4.33522 c 0.0345,-3.84346 0.0532,-4.36174 0.16698,-4.56907 0.18843,-0.34329 0.52653,-0.65934 0.87813,-0.82062 0.29174,-0.13383 0.65025,-0.14205 6.19315,-0.14205 5.54297,0 5.90142,0.008 6.19321,0.14205 0.35155,0.16128 0.68983,0.47733 0.87808,0.82062 0.11372,0.20733 0.13266,0.72561 0.16704,4.56907 l 0.0386,4.33522 0.60646,0.0387 c 0.81078,0.0518 0.82622,0.0756 0.824,1.27279 0,0.74156 -0.031,0.99721 -0.14453,1.24319 -0.16534,0.35824 -0.41977,0.61286 -0.72964,0.73028 -0.35201,0.13336 -15.42692,0.10776 -15.72954,-0.0267 z m 15.48603,-1.15284 c 0.0246,-0.0981 0.0345,-0.36806 0.0205,-0.59997 l -0.024,-0.42164 -2.85991,-0.0203 -2.8598,-0.0203 -0.21304,0.23321 -0.21299,0.23322 h -1.44086 -1.44098 l -0.21298,-0.23322 -0.21299,-0.23321 -2.85979,0.0203 -2.85991,0.0203 -0.0234,0.42164 c -0.0129,0.23191 -0.006,0.50189 0.0205,0.59997 l 0.0444,0.17832 h 7.54502 7.54491 z m -1.4353,-6.28932 v -4.22262 l -0.18995,-0.19002 -0.19007,-0.19001 h -5.77437 -5.77449 l -0.18995,0.19001 -0.19007,0.19002 v 4.22262 4.22261 h 6.15451 6.15439 z"
         id="path1614"
         sodipodi:nodetypes="cssccssscsccscsscccccccccccccccccccccccccccccccccc" /><rect
         style="fill:#404852;fill-opacity:1;stroke:#404852;stroke-width:0.264583;stroke-linecap:round;stroke-linejoin:round;stroke-dasharray:none;stroke-dashoffset:0;stroke-opacity:1;stop-color:#000000"
         id="rect10185"
         width="10.797946"
         height="7.1927147"
         x="238.20276"
         y="37.925224"
         ry="0.44739375" /></g></g></svg>
